<svg xmlns="http://www.w3.org/2000/svg" width="150.115" height="150.421" viewBox="0 0 39.718 39.799" xmlns:v="https://vecta.io/nano"><path d="M18.823 39.788l-.762-.062c-4.137-.336-8.135-2.056-11.331-4.875-2.3-2.029-4.232-4.81-5.404-7.781C.105 23.974-.28 20.536.202 17.037c.635-4.606 3.099-9.108 6.678-12.2C9.607 2.481 13.09.825 16.515.254 17.746.049 18.364.002 19.86 0c1.417-.002 1.918.029 3.006.189 3.56.521 6.925 2.066 9.906 4.548.619.515 1.823 1.712 2.302 2.289 2.585 3.108 4.082 6.595 4.563 10.626.109.913.109 3.617 0 4.53-.28 2.349-.85 4.331-1.824 6.35-1.972 4.083-5.149 7.289-9.189 9.272-2.167 1.064-4.209 1.65-6.646 1.907-.556.059-2.734.113-3.154.078zm-2.347-8.749c-.058-.931-.209-1.344-.654-1.784l-.245-.243-.347.232c-.356.238-.81.45-1.148.534l-.19.048.561.569c.309.313.64.609.737.658.2.102 1.17.457 1.258.46.048.002.053-.083.029-.474zm8.253.034a1.71 1.71 0 0 0 .324-.199c.098-.086.84-1.111.84-1.161 0-.01-.129-.018-.286-.019-.329 0-.474-.061-1.111-.462l-.402-.253-.156.17c-.186.203-.328.595-.38 1.053-.08.694-.087.881-.039 1.027l.049.148.475-.102c.261-.056.57-.147.687-.202zm-4.36-2.394l.562-1.249c.336-.735.475-1.131.475-1.354 0-.567-.349-1.508-.818-2.202-.17-.252-.65-.783-.707-.783-.017 0-.111.25-.211.555-.12.371-.344.886-.674 1.551l-.494.996.522 1.041c.559 1.116.695 1.497.782 2.189l.049.388.102-.218.412-.916zm-10.253-3.143c.061-.122.138-.337.171-.478.075-.326.181-.558.424-.929l.194-.296-.094-.074c-.052-.041-.217-.136-.368-.212l-.274-.137-1.07-.014c-.588-.008-1.07.002-1.069.021.002.067.415.815.62 1.121a5.51 5.51 0 0 0 .438.558c.23.249.772.663.868.663.027 0 .1-.1.162-.222zm20.731-.709c.224-.221.478-.51.563-.642a.71.71 0 0 0 .155-.522v-.282l-.836.014-.836.014-.286.161-.286.161v.253c0 .236.012.267.191.487a2.04 2.04 0 0 1 .446.874l.054.242.213-.178a14.08 14.08 0 0 0 .621-.581zM26.84 21.13c.721-.609 1.497-.917 2.644-1.048l.472-.054v-.304-.304l-.455-.024c-.25-.013-.607-.064-.794-.112-.424-.111-1.323-.549-1.846-.9l-.398-.267-.204.218c-.227.243-.652.485-.981.56-.806.183-1.343.321-1.564.404l-.257.096v.328.328l.254.105c.14.058.625.229 1.079.381.792.265 1.359.503 1.63.685.07.047.144.087.165.088s.135-.079.254-.18zm-12.286-.372c.923-.464 1.338-.635 1.675-.692.193-.033.221-.085.222-.405l.001-.192-.392-.002c-.31-.001-.467-.026-.751-.119-.483-.157-1.202-.511-1.693-.832-.221-.145-.422-.264-.445-.264s-.319.167-.656.373c-1.072.653-1.5.808-2.37.856l-.487.027.423.204c1.074.516 3.37 1.509 3.504 1.516.018.001.454-.21.969-.469zm17.088-4.684c-.014-.03-.691-1.065-.99-1.513-.202-.303-.575-.71-.612-.669-.018.019-.111.301-.208.627s-.236.723-.309.882c-.155.339-.143.383.149.529.163.082.296.105.76.131.795.045 1.227.05 1.211.013zm-21.824-.074c.32-.083.847-.35.822-.416a10.84 10.84 0 0 0-.259-.474c-.216-.382-.357-.75-.494-1.29l-.048-.19-.102.127c-.283.35-.669.937-1.021 1.555-.215.378-.392.701-.392.719 0 .061 1.238.036 1.494-.03zm10.318-.988c.12-.44.189-.555.759-1.284.454-.58.506-.663.484-.777-.014-.07-.249-.651-.523-1.291l-.682-1.649-.184-.485-.137.294c-.178.381-.412 1.083-.522 1.564-.167.731-.504 1.576-.751 1.88l-.083.102.141.124c.45.395 1.133 1.618 1.294 2.318l.054.233.033-.36a4.68 4.68 0 0 1 .118-.67zm-4.172-4.578c.12-.194.431-2.147.354-2.224-.04-.04-.616.1-.962.234-.184.071-.417.189-.519.262-.295.212-.974.849-.938.88.018.015.262.109.541.209.528.188 1.208.495 1.355.611.099.079.134.085.168.029zm8.438-.236c.401-.245.983-.486 1.175-.486.047 0 .061-.063.061-.271 0-.254-.012-.286-.19-.528-.351-.476-.777-.693-1.545-.785-.349-.042-.424-.041-.424.005 0 .031.069.365.153.743s.171.83.193 1.005c.063.498.079.593.102.593.012 0 .225-.124.474-.276z" fill="#f8f396"/><path d="M18.823 39.788l-.762-.062c-4.137-.336-8.135-2.056-11.331-4.875-2.3-2.029-4.232-4.81-5.404-7.781C.105 23.974-.28 20.536.202 17.037c.635-4.606 3.099-9.108 6.678-12.2C9.607 2.481 13.09.825 16.515.254 17.746.049 18.364.002 19.86 0c1.417-.002 1.918.029 3.006.189 3.56.521 6.925 2.066 9.906 4.548.619.515 1.823 1.712 2.302 2.289 2.585 3.108 4.082 6.595 4.563 10.626.109.913.109 3.617 0 4.53-.28 2.349-.85 4.331-1.824 6.35-1.972 4.083-5.149 7.289-9.189 9.272-2.167 1.064-4.209 1.65-6.646 1.907-.556.059-2.734.113-3.154.078zm.55-7.077c0-2.778.009-2.667-.318-3.609-.296-.851-.677-1.534-1.07-1.917l-.164-.16-.115.165c-.063.091-.338.382-.611.647s-.528.548-.566.628c-.068.142-.067.149.029.264.217.258.517 1.049.618 1.627.087.501-.011 1.816-.146 1.95-.011.011-.409-.055-.884-.148-.693-.135-.921-.198-1.157-.317-.874-.441-1.869-1.398-2.255-2.168-.258-.514-.268-.733-.073-1.576l.208-.9c.057-.244.181-.684.277-.977s.174-.552.174-.576-.167-.166-.37-.317-.591-.476-.861-.723l-.491-.45-.048.207c-.026.114-.218.605-.427 1.092-.432 1.009-.736 1.827-.806 2.17-.08.393.056 1.258.292 1.858.588 1.491 1.978 3.16 3.536 4.245.755.526 1.883 1.064 2.646 1.263.592.154.996.2 1.81.204l.773.004zm2.987 2.278c2.124-.658 3.108-1.081 4.188-1.801 1.327-.884 2.161-1.841 2.583-2.962l.105-.278h-1.235-1.235l-.913.901c-.976.963-1.183 1.115-1.756 1.28-.243.07-1.178.154-1.284.115-.038-.014-.053-.157-.053-.514 0-.444.017-.558.171-1.128.314-1.165.728-2.28 1.109-2.983.42-.776 1.08-1.575 1.658-2.01l.281-.211-.096-.078c-.298-.241-.636-.48-.879-.622-.152-.089-.413-.277-.581-.418l-.306-.257-.262.305c-1.34 1.557-2.825 4.319-3.232 6.009-.163.677-.19 1.104-.19 3.051l-.001 1.81h.627.627zm-5.884-3.95c-.058-.931-.209-1.344-.654-1.784l-.245-.243-.347.232c-.356.238-.81.45-1.148.534l-.19.048.561.569c.309.313.64.609.737.658.2.102 1.17.457 1.258.46.048.002.053-.083.029-.474zm8.253.034a1.71 1.71 0 0 0 .324-.199c.098-.086.84-1.111.84-1.161 0-.01-.129-.018-.286-.019-.329 0-.474-.061-1.111-.462l-.402-.253-.156.17c-.186.203-.328.595-.38 1.053-.08.694-.087.881-.039 1.027l.049.148.475-.102c.261-.056.57-.147.687-.202zm-4.36-2.394l.562-1.249c.336-.735.475-1.131.475-1.354 0-.567-.349-1.508-.818-2.202-.17-.252-.65-.783-.707-.783-.017 0-.111.25-.211.555-.12.371-.344.886-.674 1.551l-.494.996.522 1.041c.559 1.116.695 1.497.782 2.189l.049.388.102-.218.412-.916zm9.856.465c.167-.07.479-.246.693-.392 1.358-.92 2.725-2.587 3.67-4.476.434-.869.607-1.309.798-2.032.116-.442.13-.565.149-1.323l.02-.836-.629-.01a11.31 11.31 0 0 0-1.899.093l-1.757.17c-.886.079-1.982.243-2.716.405-.475.105-.946.35-1.288.669-.259.243-.286.281-.23.336.216.211 1.728 1.486 1.804 1.521s.133.008.378-.2c.486-.413.423-.4 2.041-.401h1.408v.528c0 .605-.049.775-.355 1.245-.718 1.102-2.38 2.407-3.502 2.749-.663.202-1.03.165-2.242-.229-.388-.126-.723-.229-.744-.229s-.274.216-.562.479l-.522.479-.167.42-.167.42.14.117a4.18 4.18 0 0 0 1.074.545c.224.065.49.074 2.278.076l2.024.003zm-20.657-.92c.033-.773.127-1.436.241-1.695.058-.133.066-.186.028-.198-.394-.122-.513-.171-.683-.279-.479-.304-1.005-.936-1.313-1.579-.156-.325-.6-1.631-.564-1.658a44.67 44.67 0 0 1 1.149-.094c1.101-.083 1.149-.083 1.482-.01 1.276.279 2.164.829 3.745 2.318l.565.532.112-.144c.171-.219.578-.701 1-1.183l.379-.434-.295-.28c-.835-.794-2.808-2.12-4.15-2.791-.874-.437-1.122-.515-1.775-.563l-2.138-.169c-.465-.046-1.929-.002-2.738.083l-.262.027.205.804c.513 2.019.935 3.245 1.506 4.384.577 1.15 1.351 2.141 2.173 2.784.314.245 1.207.812 1.279.812.014 0 .039-.3.055-.667zm.548-2.688c.061-.122.138-.337.171-.478.075-.326.181-.558.424-.929l.194-.296-.094-.074c-.052-.041-.217-.136-.368-.212l-.274-.137-1.07-.014c-.588-.008-1.07.002-1.069.021.002.067.415.815.62 1.121a5.51 5.51 0 0 0 .438.558c.23.249.772.663.868.663.027 0 .1-.1.162-.222zm20.731-.709c.224-.221.478-.51.563-.642a.71.71 0 0 0 .155-.522v-.282l-.836.014-.836.014-.286.161-.286.161v.253c0 .236.012.267.191.487a2.04 2.04 0 0 1 .446.874l.054.242.213-.178a14.08 14.08 0 0 0 .621-.581zM26.84 21.13c.721-.609 1.497-.917 2.644-1.048l.472-.054v-.304-.304l-.455-.024c-.25-.013-.607-.064-.794-.112-.424-.111-1.323-.549-1.846-.9l-.398-.267-.204.218c-.227.243-.652.485-.981.56-.806.183-1.343.321-1.564.404l-.257.096v.328.328l.254.105c.14.058.625.229 1.079.381.792.265 1.359.503 1.63.685.07.047.144.087.165.088s.135-.079.254-.18zm-12.286-.372c.923-.464 1.338-.635 1.675-.692.193-.033.221-.085.222-.405l.001-.192-.392-.002c-.31-.001-.467-.026-.751-.119-.483-.157-1.202-.511-1.693-.832-.221-.145-.422-.264-.445-.264s-.319.167-.656.373c-1.072.653-1.5.808-2.37.856l-.487.027.423.204c1.074.516 3.37 1.509 3.504 1.516.018.001.454-.21.969-.469zm-4.33-1.776c.492-.08 1.012-.281 1.762-.68.408-.217.736-.408.73-.423-.031-.081-1.253-1.415-1.451-1.585l-.232-.198-.168.152c-.252.227-.594.44-.785.487-.093.023-.709.055-1.37.071l-1.2.029.029-.502c.029-.496.031-.506.222-.84 1.254-2.203 2.664-3.38 4.057-3.385l.383-.001.76.369c.879.426 1.295.599 1.329.55.013-.019.141-.187.284-.373.422-.549.904-1.324.904-1.452 0-.053-.826-.457-1.376-.674-.565-.223-1.672-.581-2.001-.648-.523-.107-1.366.075-2.19.471-1.438.691-3.038 2.199-4.065 3.831-.306.486-.741 1.383-.884 1.821-.215.66-.244.875-.267 1.979l-.022 1.048h2.64c1.618 0 2.745-.017 2.911-.044zm25.32-.248c0-.249-.063-.502-.427-1.704-.235-.776-.513-1.631-.619-1.899-.925-2.351-2.155-3.758-3.897-4.459l-.265-.107v1.248 1.248l.154.157a28.37 28.37 0 0 1 1.61 2.089c.358.545.485.833.511 1.16.021.256.017.269-.08.294-.056.014-.721.02-1.477.013l-1.375-.013-.317-.152c-.734-.351-2.029-1.321-2.968-2.221-.302-.29-.565-.527-.584-.527s-.183.21-.364.468c-.302.43-.417.55-1.116 1.168l-.15.132.866.644c1.018.757 2.176 1.542 2.771 1.876.75.422 1.676.778 2.201.847.07.009 1.341.02 2.826.023l2.699.006zm-3.902-2.661c-.014-.03-.691-1.065-.99-1.513-.202-.303-.575-.71-.612-.669-.018.019-.111.301-.208.627s-.236.723-.309.882c-.155.339-.143.383.149.529.163.082.296.105.76.131.795.045 1.227.05 1.211.013zm-21.824-.074c.32-.083.847-.35.822-.416a10.84 10.84 0 0 0-.259-.474c-.216-.382-.357-.75-.494-1.29l-.048-.19-.102.127c-.283.35-.669.937-1.021 1.555-.215.378-.392.701-.392.719 0 .061 1.238.036 1.494-.03zm10.318-.988c.12-.44.189-.555.759-1.284.454-.58.506-.663.484-.777-.014-.07-.249-.651-.523-1.291l-.682-1.649-.184-.485-.137.294c-.178.381-.412 1.083-.522 1.564-.167.731-.504 1.576-.751 1.88l-.083.102.141.124c.45.395 1.133 1.618 1.294 2.318l.054.233.033-.36a4.68 4.68 0 0 1 .118-.67zm-4.085-.065c.417-.194 1.021-.856 1.626-1.784.391-.6 1.118-2.052 1.366-2.73.348-.952.335-.796.321-3.683l-.012-2.561-.529.004-.529.004-.762.257c-1.697.572-3.404 1.36-4.339 2.003-.84.577-1.574 1.356-2.095 2.222a.76.76 0 0 0-.148.492c0 .135.012.246.027.246s.133-.061.263-.135c.2-.115.288-.137.577-.15.31-.014.384 0 .826.155.47.165.488.168.571.095.719-.632 1.149-.96 1.955-1.49.861-.565 1.14-.694 1.548-.712.22-.01.352.002.394.037.102.085.09 2.108-.015 2.539-.215.884-.89 1.992-1.876 3.083-.513.568-.832.936-.913 1.055-.061.09-.058.101.057.19a15.08 15.08 0 0 1 .508.441c.626.562.769.614 1.182.422zm12.916-.579c.217-.36.446-.797.508-.972.112-.316.113-.324.132-1.822l.019-1.505-.13-.388c-.542-1.618-1.9-2.924-4.278-4.114-.957-.479-2.487-1.119-2.987-1.249-.347-.091-1.665-.163-1.841-.102l-.134.047.027.513.087 1.296.086 1.397a7.05 7.05 0 0 0 .088.889c.155.702 1.15 3.891 1.247 3.996.04.044.505-.321.96-.752.615-.584.697-.977.415-1.995l-.28-1.016c-.075-.273-.139-.627-.154-.858-.037-.567-.05-.558.716-.487l.605.057.508.249c.279.137.679.369.888.517.482.341 1.244 1.072 1.507 1.446.416.591.589 1.249.508 1.939-.175 1.503-.157 1.43-.449 1.836-.128.178-.232.361-.232.408 0 .217.293.537.741.808.409.248.97.541 1.012.528.021-.007.216-.306.433-.666zm-13.003-3.933c.12-.194.431-2.147.354-2.224-.04-.04-.616.1-.962.234-.184.071-.417.189-.519.262-.295.212-.974.849-.938.88.018.015.262.109.541.209.528.188 1.208.495 1.355.611.099.079.134.085.168.029zm8.438-.236c.401-.245.983-.486 1.175-.486.047 0 .061-.063.061-.271 0-.254-.012-.286-.19-.528-.351-.476-.777-.693-1.545-.785-.349-.042-.424-.041-.424.005 0 .031.069.365.153.743s.171.83.193 1.005c.063.498.079.593.102.593.012 0 .225-.124.474-.276z" fill="#eeec69"/><path d="M18.823 39.788l-.762-.062c-4.137-.336-8.135-2.056-11.331-4.875-2.3-2.029-4.232-4.81-5.404-7.781C.105 23.974-.28 20.536.202 17.037c.635-4.606 3.099-9.108 6.678-12.2C9.607 2.481 13.09.825 16.515.254 17.746.049 18.364.002 19.86 0c1.417-.002 1.918.029 3.006.189 3.56.521 6.925 2.066 9.906 4.548.619.515 1.823 1.712 2.302 2.289 2.585 3.108 4.082 6.595 4.563 10.626.109.913.109 3.617 0 4.53-.28 2.349-.85 4.331-1.824 6.35-1.972 4.083-5.149 7.289-9.189 9.272-2.167 1.064-4.209 1.65-6.646 1.907-.556.059-2.734.113-3.154.078zm2.519-1.331c3.037-.215 5.835-1.192 8.551-2.985 1.177-.777 2.018-1.465 3.049-2.496 1.651-1.65 2.833-3.318 3.891-5.491 1.299-2.67 1.865-5.212 1.788-8.036-.069-2.515-.611-4.694-1.763-7.091-1.404-2.919-3.542-5.507-6.158-7.452-2.18-1.621-4.701-2.803-7.114-3.337-1.325-.293-2.202-.385-3.662-.384-1.246.001-1.868.055-2.963.255-2.941.538-5.974 2.003-8.613 4.159-.7.572-2.164 2.026-2.734 2.716a20.14 20.14 0 0 0-2.751 4.254c-1.153 2.343-1.69 4.365-1.818 6.839-.18 3.492.78 6.766 2.94 10.031 2.233 3.375 5.468 6.037 9.271 7.631 2.609 1.094 5.415 1.574 8.086 1.385zm-1.905-2.272c-1.39-.121-3.185-.692-4.72-1.503-1.318-.696-2.355-1.453-3.348-2.445-.903-.901-1.31-1.501-1.58-2.323l-.089-.271-.324-.117c-.754-.274-1.374-.691-2.069-1.392-1.345-1.357-2.376-3.089-3.049-5.127-.542-1.642-.71-3.038-.524-4.369.353-2.533 1.874-5.525 3.784-7.447.778-.783 1.228-1.094 1.913-1.325l.311-.105.13-.373a5.76 5.76 0 0 1 .228-.563c.55-1.072 1.972-2.437 3.631-3.484.594-.375 2.095-1.117 2.748-1.358 1.536-.567 2.973-.82 4.029-.708 2.044.216 4.906 1.405 6.861 2.85 1.568 1.159 2.487 2.294 2.68 3.308l.053.279.403.145c.222.08.537.187.7.239.681.215 1.142.538 2.11 1.481.683.665 1.039 1.158 1.357 1.884.588 1.339 1.281 3.197 1.487 3.989.104.4.104.413.104 2.398 0 2.144-.022 2.476-.21 3.223-.214.847-.539 1.529-1.207 2.533-.698 1.049-1.845 2.339-3.345 3.763-1.061 1.008-1.575 1.558-2.295 2.456-.78.973-1.382 1.515-2.196 1.978a25.31 25.31 0 0 1-4.095 1.841c-1.423.475-2.441.635-3.479.544zm-.064-3.474c0-2.778.009-2.667-.318-3.609-.296-.851-.677-1.534-1.07-1.917l-.164-.16-.115.165c-.063.091-.338.382-.611.647s-.528.548-.566.628c-.068.142-.067.149.029.264.217.258.517 1.049.618 1.627.087.501-.011 1.816-.146 1.95-.011.011-.409-.055-.884-.148-.693-.135-.921-.198-1.157-.317-.874-.441-1.869-1.398-2.255-2.168-.258-.514-.268-.733-.073-1.576l.208-.9c.057-.244.181-.684.277-.977s.174-.552.174-.576-.167-.166-.37-.317-.591-.476-.861-.723l-.491-.45-.048.207c-.026.114-.218.605-.427 1.092-.432 1.009-.736 1.827-.806 2.17-.08.393.056 1.258.292 1.858.588 1.491 1.978 3.16 3.536 4.245.755.526 1.883 1.064 2.646 1.263.592.154.996.2 1.81.204l.773.004zm2.987 2.278c2.124-.658 3.108-1.081 4.188-1.801 1.327-.884 2.161-1.841 2.583-2.962l.105-.278h-1.235-1.235l-.913.901c-.976.963-1.183 1.115-1.756 1.28-.243.07-1.178.154-1.284.115-.038-.014-.053-.157-.053-.514 0-.444.017-.558.171-1.128.314-1.165.728-2.28 1.109-2.983.42-.776 1.08-1.575 1.658-2.01l.281-.211-.096-.078c-.298-.241-.636-.48-.879-.622-.152-.089-.413-.277-.581-.418l-.306-.257-.262.305c-1.34 1.557-2.825 4.319-3.232 6.009-.163.677-.19 1.104-.19 3.051l-.001 1.81h.627.627zm-5.884-3.95c-.058-.931-.209-1.344-.654-1.784l-.245-.243-.347.232c-.356.238-.81.45-1.148.534l-.19.048.561.569c.309.313.64.609.737.658.2.102 1.17.457 1.258.46.048.002.053-.083.029-.474zm8.253.034a1.71 1.71 0 0 0 .324-.199c.098-.086.84-1.111.84-1.161 0-.01-.129-.018-.286-.019-.329 0-.474-.061-1.111-.462l-.402-.253-.156.17c-.186.203-.328.595-.38 1.053-.08.694-.087.881-.039 1.027l.049.148.475-.102c.261-.056.57-.147.687-.202zm-4.36-2.394l.562-1.249c.336-.735.475-1.131.475-1.354 0-.567-.349-1.508-.818-2.202-.17-.252-.65-.783-.707-.783-.017 0-.111.25-.211.555-.12.371-.344.886-.674 1.551l-.494.996.522 1.041c.559 1.116.695 1.497.782 2.189l.049.388.102-.218.412-.916zm9.856.465c.167-.07.479-.246.693-.392 1.358-.92 2.725-2.587 3.67-4.476.434-.869.607-1.309.798-2.032.116-.442.13-.565.149-1.323l.02-.836-.629-.01a11.31 11.31 0 0 0-1.899.093l-1.757.17c-.886.079-1.982.243-2.716.405-.475.105-.946.35-1.288.669-.259.243-.286.281-.23.336.216.211 1.728 1.486 1.804 1.521s.133.008.378-.2c.486-.413.423-.4 2.041-.401h1.408v.528c0 .605-.049.775-.355 1.245-.718 1.102-2.38 2.407-3.502 2.749-.663.202-1.03.165-2.242-.229-.388-.126-.723-.229-.744-.229s-.274.216-.562.479l-.522.479-.167.42-.167.42.14.117a4.18 4.18 0 0 0 1.074.545c.224.065.49.074 2.278.076l2.024.003zm-16.097-.165c.885-.343 1.682-.881 2.369-1.598.801-.836 1.808-2.287 2.392-3.446.126-.25.146-.333.146-.593 0-.24-.012-.297-.059-.279-.251.096-.666.2-.963.241-1.063.147-1.259.229-1.867.78-.428.389-1.497 1.517-1.947 2.055-.373.446-.697.904-.845 1.191-.177.346-.177.59.002 1.121a4.91 4.91 0 0 1 .158.562c.033.204-.009.206.612-.035zm-4.559-.755c.033-.773.127-1.436.241-1.695.058-.133.066-.186.028-.198-.394-.122-.513-.171-.683-.279-.479-.304-1.005-.936-1.313-1.579-.156-.325-.6-1.631-.564-1.658a44.67 44.67 0 0 1 1.149-.094c1.101-.083 1.149-.083 1.482-.01 1.276.279 2.164.829 3.745 2.318l.565.532.112-.144c.171-.219.578-.701 1-1.183l.379-.434-.295-.28c-.835-.794-2.808-2.12-4.15-2.791-.874-.437-1.122-.515-1.775-.563l-2.138-.169c-.465-.046-1.929-.002-2.738.083l-.262.027.205.804c.513 2.019.935 3.245 1.506 4.384.577 1.15 1.351 2.141 2.173 2.784.314.245 1.207.812 1.279.812.014 0 .039-.3.055-.667zm18.935-1.412c.16-.049.409-.145.555-.214.227-.107.262-.138.243-.218-.012-.051-.088-.425-.17-.83-.157-.786-.245-1.002-.62-1.526-.92-1.287-2.271-2.482-3.406-3.014-.436-.204-.81-.288-1.297-.289-.325-.001-.37.008-.371.073-.001.113.128 1.623.15 1.768.017.108.051.139.221.2.451.162.864.455 1.411 1.002.793.792 1.244 1.404 1.836 2.488.264.483.293.52.459.579.258.092.651.084.988-.019zm-18.387-1.277c.061-.122.138-.337.171-.478.075-.326.181-.558.424-.929l.194-.296-.094-.074c-.052-.041-.217-.136-.368-.212l-.274-.137-1.07-.014c-.588-.008-1.07.002-1.069.021.002.067.415.815.62 1.121a5.51 5.51 0 0 0 .438.558c.23.249.772.663.868.663.027 0 .1-.1.162-.222zm20.731-.709c.224-.221.478-.51.563-.642a.71.71 0 0 0 .155-.522v-.282l-.836.014-.836.014-.286.161-.286.161v.253c0 .236.012.267.191.487a2.04 2.04 0 0 1 .446.874l.054.242.213-.178a14.08 14.08 0 0 0 .621-.581zM26.84 21.13c.721-.609 1.497-.917 2.644-1.048l.472-.054v-.304-.304l-.455-.024c-.25-.013-.607-.064-.794-.112-.424-.111-1.323-.549-1.846-.9l-.398-.267-.204.218c-.227.243-.652.485-.981.56-.806.183-1.343.321-1.564.404l-.257.096v.328.328l.254.105c.14.058.625.229 1.079.381.792.265 1.359.503 1.63.685.07.047.144.087.165.088s.135-.079.254-.18zm-12.286-.372c.923-.464 1.338-.635 1.675-.692.193-.033.221-.085.222-.405l.001-.192-.392-.002c-.31-.001-.467-.026-.751-.119-.483-.157-1.202-.511-1.693-.832-.221-.145-.422-.264-.445-.264s-.319.167-.656.373c-1.072.653-1.5.808-2.37.856l-.487.027.423.204c1.074.516 3.37 1.509 3.504 1.516.018.001.454-.21.969-.469zm-4.33-1.776c.492-.08 1.012-.281 1.762-.68.408-.217.736-.408.73-.423-.031-.081-1.253-1.415-1.451-1.585l-.232-.198-.168.152c-.252.227-.594.44-.785.487-.093.023-.709.055-1.37.071l-1.2.029.029-.502c.029-.496.031-.506.222-.84 1.254-2.203 2.664-3.38 4.057-3.385l.383-.001.76.369c.879.426 1.295.599 1.329.55.013-.019.141-.187.284-.373.422-.549.904-1.324.904-1.452 0-.053-.826-.457-1.376-.674-.565-.223-1.672-.581-2.001-.648-.523-.107-1.366.075-2.19.471-1.438.691-3.038 2.199-4.065 3.831-.306.486-.741 1.383-.884 1.821-.215.66-.244.875-.267 1.979l-.022 1.048h2.64c1.618 0 2.745-.017 2.911-.044zm25.32-.248c0-.249-.063-.502-.427-1.704-.235-.776-.513-1.631-.619-1.899-.925-2.351-2.155-3.758-3.897-4.459l-.265-.107v1.248 1.248l.154.157a28.37 28.37 0 0 1 1.61 2.089c.358.545.485.833.511 1.16.021.256.017.269-.08.294-.056.014-.721.02-1.477.013l-1.375-.013-.317-.152c-.734-.351-2.029-1.321-2.968-2.221-.302-.29-.565-.527-.584-.527s-.183.21-.364.468c-.302.43-.417.55-1.116 1.168l-.15.132.866.644c1.018.757 2.176 1.542 2.771 1.876.75.422 1.676.778 2.201.847.07.009 1.341.02 2.826.023l2.699.006zm-19.135-.679v-.632l-.25-.373a11.88 11.88 0 0 0-.602-.797c-.524-.63-2.081-2.176-2.848-2.826l-.674-.572-.448-.028c-.354-.022-.497-.014-.681.041-.251.075-.593.255-.593.313a11.5 11.5 0 0 0 .578 1.487c.686 1.272 2.236 2.584 4.351 3.686.596.31.655.332.902.333l.265.001zm5.805-2.039l1.085-.095.025-.208c.05-.419.368-.905 1.081-1.652.588-.616 1.589-1.381 2.111-1.614l.18-.08v-.329c0-.455-.072-.937-.191-1.283-.1-.291-.279-.534-.392-.534-.079 0-1.095.738-1.871 1.359-1.611 1.288-2.82 2.502-3.128 3.138-.066.136-.26 1.199-.26 1.423 0 .009.062.006.138-.007s.626-.066 1.223-.118zm9.428.057c-.014-.03-.691-1.065-.99-1.513-.202-.303-.575-.71-.612-.669-.018.019-.111.301-.208.627s-.236.723-.309.882c-.155.339-.143.383.149.529.163.082.296.105.76.131.795.045 1.227.05 1.211.013zm-21.824-.074c.32-.083.847-.35.822-.416a10.84 10.84 0 0 0-.259-.474c-.216-.382-.357-.75-.494-1.29l-.048-.19-.102.127c-.283.35-.669.937-1.021 1.555-.215.378-.392.701-.392.719 0 .061 1.238.036 1.494-.03zm10.318-.988c.12-.44.189-.555.759-1.284.454-.58.506-.663.484-.777-.014-.07-.249-.651-.523-1.291l-.682-1.649-.184-.485-.137.294c-.178.381-.412 1.083-.522 1.564-.167.731-.504 1.576-.751 1.88l-.083.102.141.124c.45.395 1.133 1.618 1.294 2.318l.054.233.033-.36a4.68 4.68 0 0 1 .118-.67zm-4.085-.065c.417-.194 1.021-.856 1.626-1.784.391-.6 1.118-2.052 1.366-2.73.348-.952.335-.796.321-3.683l-.012-2.561-.529.004-.529.004-.762.257c-1.697.572-3.404 1.36-4.339 2.003-.84.577-1.574 1.356-2.095 2.222a.76.76 0 0 0-.148.492c0 .135.012.246.027.246s.133-.061.263-.135c.2-.115.288-.137.577-.15.31-.014.384 0 .826.155.47.165.488.168.571.095.719-.632 1.149-.96 1.955-1.49.861-.565 1.14-.694 1.548-.712.22-.01.352.002.394.037.102.085.09 2.108-.015 2.539-.215.884-.89 1.992-1.876 3.083-.513.568-.832.936-.913 1.055-.061.09-.058.101.057.19a15.08 15.08 0 0 1 .508.441c.626.562.769.614 1.182.422zm12.916-.579c.217-.36.446-.797.508-.972.112-.316.113-.324.132-1.822l.019-1.505-.13-.388c-.542-1.618-1.9-2.924-4.278-4.114-.957-.479-2.487-1.119-2.987-1.249-.347-.091-1.665-.163-1.841-.102l-.134.047.027.513.087 1.296.086 1.397a7.05 7.05 0 0 0 .088.889c.155.702 1.15 3.891 1.247 3.996.04.044.505-.321.96-.752.615-.584.697-.977.415-1.995l-.28-1.016c-.075-.273-.139-.627-.154-.858-.037-.567-.05-.558.716-.487l.605.057.508.249c.279.137.679.369.888.517.482.341 1.244 1.072 1.507 1.446.416.591.589 1.249.508 1.939-.175 1.503-.157 1.43-.449 1.836-.128.178-.232.361-.232.408 0 .217.293.537.741.808.409.248.97.541 1.012.528.021-.007.216-.306.433-.666zm-13.003-3.933c.12-.194.431-2.147.354-2.224-.04-.04-.616.1-.962.234-.184.071-.417.189-.519.262-.295.212-.974.849-.938.88.018.015.262.109.541.209.528.188 1.208.495 1.355.611.099.079.134.085.168.029zm8.438-.236c.401-.245.983-.486 1.175-.486.047 0 .061-.063.061-.271 0-.254-.012-.286-.19-.528-.351-.476-.777-.693-1.545-.785-.349-.042-.424-.041-.424.005 0 .031.069.365.153.743s.171.83.193 1.005c.063.498.079.593.102.593.012 0 .225-.124.474-.276z" fill="#d5dc3f"/><path d="M18.823 39.788l-.762-.062c-4.137-.336-8.135-2.056-11.331-4.875-2.3-2.029-4.232-4.81-5.404-7.781C.105 23.974-.28 20.536.202 17.037c.635-4.606 3.099-9.108 6.678-12.2C9.607 2.481 13.09.825 16.515.254 17.746.049 18.364.002 19.86 0c1.417-.002 1.918.029 3.006.189 3.56.521 6.925 2.066 9.906 4.548.619.515 1.823 1.712 2.302 2.289 2.585 3.108 4.082 6.595 4.563 10.626.109.913.109 3.617 0 4.53-.28 2.349-.85 4.331-1.824 6.35-1.972 4.083-5.149 7.289-9.189 9.272-2.167 1.064-4.209 1.65-6.646 1.907-.556.059-2.734.113-3.154.078zm2.519-1.331c3.037-.215 5.835-1.192 8.551-2.985 1.177-.777 2.018-1.465 3.049-2.496 1.651-1.65 2.833-3.318 3.891-5.491 1.299-2.67 1.865-5.212 1.788-8.036-.069-2.515-.611-4.694-1.763-7.091-1.404-2.919-3.542-5.507-6.158-7.452-2.18-1.621-4.701-2.803-7.114-3.337-1.325-.293-2.202-.385-3.662-.384-1.246.001-1.868.055-2.963.255-2.941.538-5.974 2.003-8.613 4.159-.7.572-2.164 2.026-2.734 2.716a20.14 20.14 0 0 0-2.751 4.254c-1.153 2.343-1.69 4.365-1.818 6.839-.18 3.492.78 6.766 2.94 10.031 2.233 3.375 5.468 6.037 9.271 7.631 2.609 1.094 5.415 1.574 8.086 1.385zm-1.905-2.272c-1.39-.121-3.185-.692-4.72-1.503-1.318-.696-2.355-1.453-3.348-2.445-.903-.901-1.31-1.501-1.58-2.323l-.089-.271-.324-.117c-.754-.274-1.374-.691-2.069-1.392-1.345-1.357-2.376-3.089-3.049-5.127-.542-1.642-.71-3.038-.524-4.369.353-2.533 1.874-5.525 3.784-7.447.778-.783 1.228-1.094 1.913-1.325l.311-.105.13-.373a5.76 5.76 0 0 1 .228-.563c.55-1.072 1.972-2.437 3.631-3.484.594-.375 2.095-1.117 2.748-1.358 1.536-.567 2.973-.82 4.029-.708 2.044.216 4.906 1.405 6.861 2.85 1.568 1.159 2.487 2.294 2.68 3.308l.053.279.403.145c.222.08.537.187.7.239.681.215 1.142.538 2.11 1.481.683.665 1.039 1.158 1.357 1.884.588 1.339 1.281 3.197 1.487 3.989.104.4.104.413.104 2.398 0 2.144-.022 2.476-.21 3.223-.214.847-.539 1.529-1.207 2.533-.698 1.049-1.845 2.339-3.345 3.763-1.061 1.008-1.575 1.558-2.295 2.456-.78.973-1.382 1.515-2.196 1.978a25.31 25.31 0 0 1-4.095 1.841c-1.423.475-2.441.635-3.479.544zm-.064-3.474c0-2.778.009-2.667-.318-3.609-.296-.851-.677-1.534-1.07-1.917l-.164-.16-.115.165c-.063.091-.338.382-.611.647s-.528.548-.566.628c-.068.142-.067.149.029.264.217.258.517 1.049.618 1.627.087.501-.011 1.816-.146 1.95-.011.011-.409-.055-.884-.148-.693-.135-.921-.198-1.157-.317-.874-.441-1.869-1.398-2.255-2.168-.258-.514-.268-.733-.073-1.576l.208-.9c.057-.244.181-.684.277-.977s.174-.552.174-.576-.167-.166-.37-.317-.591-.476-.861-.723l-.491-.45-.048.207c-.026.114-.218.605-.427 1.092-.432 1.009-.736 1.827-.806 2.17-.08.393.056 1.258.292 1.858.588 1.491 1.978 3.16 3.536 4.245.755.526 1.883 1.064 2.646 1.263.592.154.996.2 1.81.204l.773.004zm2.987 2.278c2.124-.658 3.108-1.081 4.188-1.801 1.327-.884 2.161-1.841 2.583-2.962l.105-.278h-1.235-1.235l-.913.901c-.976.963-1.183 1.115-1.756 1.28-.243.07-1.178.154-1.284.115-.038-.014-.053-.157-.053-.514 0-.444.017-.558.171-1.128.314-1.165.728-2.28 1.109-2.983.42-.776 1.08-1.575 1.658-2.01l.281-.211-.096-.078c-.298-.241-.636-.48-.879-.622-.152-.089-.413-.277-.581-.418l-.306-.257-.262.305c-1.34 1.557-2.825 4.319-3.232 6.009-.163.677-.19 1.104-.19 3.051l-.001 1.81h.627.627zm-5.884-3.95c-.058-.931-.209-1.344-.654-1.784l-.245-.243-.347.232c-.356.238-.81.45-1.148.534l-.19.048.561.569c.309.313.64.609.737.658.2.102 1.17.457 1.258.46.048.002.053-.083.029-.474zm8.253.034a1.71 1.71 0 0 0 .324-.199c.098-.086.84-1.111.84-1.161 0-.01-.129-.018-.286-.019-.329 0-.474-.061-1.111-.462l-.402-.253-.156.17c-.186.203-.328.595-.38 1.053-.08.694-.087.881-.039 1.027l.049.148.475-.102c.261-.056.57-.147.687-.202zm-4.36-2.394l.562-1.249c.336-.735.475-1.131.475-1.354 0-.567-.349-1.508-.818-2.202-.17-.252-.65-.783-.707-.783-.017 0-.111.25-.211.555-.12.371-.344.886-.674 1.551l-.494.996.522 1.041c.559 1.116.695 1.497.782 2.189l.049.388.102-.218.412-.916zm9.856.465c.167-.07.479-.246.693-.392 1.358-.92 2.725-2.587 3.67-4.476.434-.869.607-1.309.798-2.032.116-.442.13-.565.149-1.323l.02-.836-.629-.01a11.31 11.31 0 0 0-1.899.093l-1.757.17c-.886.079-1.982.243-2.716.405-.475.105-.946.35-1.288.669-.259.243-.286.281-.23.336.216.211 1.728 1.486 1.804 1.521s.133.008.378-.2c.486-.413.423-.4 2.041-.401h1.408v.528c0 .605-.049.775-.355 1.245-.718 1.102-2.38 2.407-3.502 2.749-.663.202-1.03.165-2.242-.229-.388-.126-.723-.229-.744-.229s-.274.216-.562.479l-.522.479-.167.42-.167.42.14.117a4.18 4.18 0 0 0 1.074.545c.224.065.49.074 2.278.076l2.024.003zm-16.097-.165c.885-.343 1.682-.881 2.369-1.598.801-.836 1.808-2.287 2.392-3.446.126-.25.146-.333.146-.593 0-.24-.012-.297-.059-.279-.251.096-.666.2-.963.241-1.063.147-1.259.229-1.867.78-.428.389-1.497 1.517-1.947 2.055-.373.446-.697.904-.845 1.191-.177.346-.177.59.002 1.121a4.91 4.91 0 0 1 .158.562c.033.204-.009.206.612-.035zm-4.559-.755c.033-.773.127-1.436.241-1.695.058-.133.066-.186.028-.198-.394-.122-.513-.171-.683-.279-.479-.304-1.005-.936-1.313-1.579-.156-.325-.6-1.631-.564-1.658a44.67 44.67 0 0 1 1.149-.094c1.101-.083 1.149-.083 1.482-.01 1.276.279 2.164.829 3.745 2.318l.565.532.112-.144c.171-.219.578-.701 1-1.183l.379-.434-.295-.28c-.835-.794-2.808-2.12-4.15-2.791-.874-.437-1.122-.515-1.775-.563l-2.138-.169c-.465-.046-1.929-.002-2.738.083l-.262.027.205.804c.513 2.019.935 3.245 1.506 4.384.577 1.15 1.351 2.141 2.173 2.784.314.245 1.207.812 1.279.812.014 0 .039-.3.055-.667zm18.935-1.412c.16-.049.409-.145.555-.214.227-.107.262-.138.243-.218-.012-.051-.088-.425-.17-.83-.157-.786-.245-1.002-.62-1.526-.92-1.287-2.271-2.482-3.406-3.014-.436-.204-.81-.288-1.297-.289-.325-.001-.37.008-.371.073-.001.113.128 1.623.15 1.768.017.108.051.139.221.2.451.162.864.455 1.411 1.002.793.792 1.244 1.404 1.836 2.488.264.483.293.52.459.579.258.092.651.084.988-.019zm-18.387-1.277c.061-.122.138-.337.171-.478.075-.326.181-.558.424-.929l.194-.296-.094-.074c-.052-.041-.217-.136-.368-.212l-.274-.137-1.07-.014c-.588-.008-1.07.002-1.069.021.002.067.415.815.62 1.121a5.51 5.51 0 0 0 .438.558c.23.249.772.663.868.663.027 0 .1-.1.162-.222zm20.731-.709c.224-.221.478-.51.563-.642a.71.71 0 0 0 .155-.522v-.282l-.836.014-.836.014-.286.161-.286.161v.253c0 .236.012.267.191.487a2.04 2.04 0 0 1 .446.874l.054.242.213-.178a14.08 14.08 0 0 0 .621-.581zm-8.41.15c.067-.149.271-.458.455-.687s.366-.499.405-.6c.066-.171.066-.216.002-.635a11.19 11.19 0 0 0-.257-1.109c-.204-.712-.31-1.26-.352-1.806l-.027-.348-.125.089c-.437.311-1.271.326-1.868.032l-.248-.122.021.877c.018.733.04.964.133 1.4.177.829.5 1.741.966 2.726l.215.455.279-.001.279-.001.121-.271zm-5.921-2.066c.571-.288 1.499-.487 2.826-.606l.286-.026v-1.097-1.097h-.349c-1.503.001-3.485.53-4.886 1.303l-.43.237.403.274c.221.151.596.454.832.674s.522.474.634.564l.204.164.134-.142c.074-.078.23-.19.346-.249zM26.84 21.13c.721-.609 1.497-.917 2.644-1.048l.472-.054v-.304-.304l-.455-.024c-.25-.013-.607-.064-.794-.112-.424-.111-1.323-.549-1.846-.9l-.398-.267-.204.218c-.227.243-.652.485-.981.56-.806.183-1.343.321-1.564.404l-.257.096v.328.328l.254.105c.14.058.625.229 1.079.381.792.265 1.359.503 1.63.685.07.047.144.087.165.088s.135-.079.254-.18zm-12.286-.372c.923-.464 1.338-.635 1.675-.692.193-.033.221-.085.222-.405l.001-.192-.392-.002c-.31-.001-.467-.026-.751-.119-.483-.157-1.202-.511-1.693-.832-.221-.145-.422-.264-.445-.264s-.319.167-.656.373c-1.072.653-1.5.808-2.37.856l-.487.027.423.204c1.074.516 3.37 1.509 3.504 1.516.018.001.454-.21.969-.469zm3.718-1.287c.454 0 .889.014.966.031l.141.031-.017-1.64c-.019-1.763-.032-1.88-.263-2.337-.12-.236-.642-.839-.966-1.115l-.238-.203-.332.33a32.76 32.76 0 0 1-.675.648c-.521.483-.54.678-.114 1.206.388.482.375.419.39 1.85l.014 1.258.135-.03c.074-.017.506-.03.96-.03zm3.408-.148c.256-.023.599-.079.762-.124.986-.277 1.251-.358 1.681-.515.263-.096.72-.29 1.017-.43l.54-.256v-.258-.258l-.307-.138c-.197-.089-.451-.26-.709-.477s-.463-.356-.571-.385c-.229-.062-.688-.025-1.62.133-.673.114-2.225.465-2.274.515-.01.01.018.16.062.333.095.379.156.809.193 1.356.015.223.04.426.055.451.06.096.478.116 1.171.055zm-11.456-.341c.492-.08 1.012-.281 1.762-.68.408-.217.736-.408.73-.423-.031-.081-1.253-1.415-1.451-1.585l-.232-.198-.168.152c-.252.227-.594.44-.785.486-.093.023-.709.055-1.37.071l-1.2.029.029-.502c.029-.496.031-.506.222-.84 1.254-2.203 2.664-3.38 4.057-3.385l.383-.001.76.369c.879.426 1.295.599 1.329.55.013-.019.141-.187.284-.373.422-.549.904-1.324.904-1.452 0-.053-.826-.457-1.376-.674-.565-.223-1.672-.581-2.001-.648-.523-.107-1.366.075-2.19.471-1.438.691-3.038 2.199-4.065 3.831-.306.486-.741 1.383-.884 1.821-.215.66-.244.875-.267 1.979l-.022 1.048h2.64c1.618 0 2.745-.017 2.911-.044zm25.32-.248c0-.249-.063-.502-.427-1.704-.235-.776-.513-1.631-.619-1.899-.925-2.351-2.155-3.758-3.897-4.459l-.265-.107v1.248 1.248l.154.157a28.37 28.37 0 0 1 1.61 2.089c.358.545.485.833.511 1.16.021.256.017.269-.08.294-.056.014-.721.02-1.477.013l-1.375-.013-.317-.152c-.734-.351-2.029-1.321-2.968-2.221-.302-.29-.565-.527-.584-.527s-.183.21-.364.468c-.302.43-.417.55-1.116 1.168l-.15.132.866.644c1.018.757 2.176 1.542 2.771 1.876.75.422 1.676.778 2.201.847.07.009 1.341.02 2.826.023l2.699.006zm-19.135-.679v-.632l-.25-.373a11.88 11.88 0 0 0-.602-.797c-.524-.63-2.081-2.176-2.848-2.826l-.674-.572-.448-.028c-.354-.022-.497-.014-.681.041-.251.075-.593.255-.593.313a11.5 11.5 0 0 0 .578 1.487c.686 1.272 2.236 2.584 4.351 3.686.596.31.655.332.902.333l.265.001zm5.805-2.039l1.085-.095.025-.208c.05-.419.368-.905 1.081-1.652.588-.616 1.589-1.381 2.111-1.614l.18-.08v-.329c0-.455-.072-.937-.191-1.283-.1-.291-.279-.534-.392-.534-.079 0-1.095.738-1.871 1.359-1.611 1.288-2.82 2.502-3.128 3.138-.066.136-.26 1.199-.26 1.423 0 .009.062.006.138-.007s.626-.066 1.223-.118zm9.428.057c-.014-.03-.691-1.065-.99-1.513-.202-.303-.575-.71-.612-.669-.018.019-.111.301-.208.627s-.236.723-.309.882c-.155.339-.143.383.149.529.163.082.296.105.76.131.795.045 1.227.05 1.211.013zm-21.824-.074c.32-.083.847-.35.822-.416a10.84 10.84 0 0 0-.259-.474c-.216-.382-.357-.75-.494-1.29l-.048-.19-.102.127c-.283.35-.669.937-1.021 1.555-.215.378-.392.701-.392.719 0 .061 1.238.036 1.494-.03zm10.318-.988c.12-.44.189-.555.759-1.284.454-.58.506-.663.484-.777-.014-.07-.249-.651-.523-1.291l-.682-1.649-.184-.485-.137.294c-.178.381-.412 1.083-.522 1.564-.167.731-.504 1.576-.751 1.88l-.083.102.141.124c.45.395 1.133 1.618 1.294 2.318l.054.233.033-.36a4.68 4.68 0 0 1 .118-.67zm-4.085-.065c.417-.194 1.021-.856 1.626-1.784.391-.6 1.118-2.052 1.366-2.73.348-.952.335-.796.321-3.683l-.012-2.561-.529.004-.529.004-.762.257c-1.697.572-3.404 1.36-4.339 2.003-.84.577-1.574 1.356-2.095 2.222a.76.76 0 0 0-.148.492c0 .135.012.246.027.246s.133-.061.263-.135c.2-.115.288-.137.577-.15.31-.014.384 0 .826.155.47.165.488.168.571.095.719-.632 1.149-.96 1.955-1.49.861-.565 1.14-.694 1.548-.712.22-.01.352.002.394.037.102.085.09 2.108-.015 2.539-.215.884-.89 1.992-1.876 3.083-.513.568-.832.936-.913 1.055-.061.09-.058.101.057.19a15.08 15.08 0 0 1 .508.441c.626.562.769.614 1.182.422zm12.916-.579c.217-.36.446-.797.508-.972.112-.316.113-.324.132-1.822l.019-1.505-.13-.388c-.542-1.618-1.9-2.924-4.278-4.114-.957-.479-2.487-1.119-2.987-1.249-.347-.091-1.665-.163-1.841-.102l-.134.047.027.513.087 1.296.086 1.397a7.05 7.05 0 0 0 .088.889c.155.702 1.15 3.891 1.247 3.996.04.044.505-.321.96-.752.615-.584.697-.977.415-1.995l-.28-1.016c-.075-.273-.139-.627-.154-.858-.037-.567-.05-.558.716-.487l.605.057.508.249c.279.137.679.369.888.517.482.341 1.244 1.072 1.507 1.446.416.591.589 1.249.508 1.939-.175 1.503-.157 1.43-.449 1.836-.128.178-.232.361-.232.408 0 .217.293.537.741.808.409.248.97.541 1.012.528.021-.007.216-.306.433-.666zm-13.003-3.933c.12-.194.431-2.147.354-2.224-.04-.04-.616.1-.962.234-.184.071-.417.189-.519.262-.295.212-.974.849-.938.88.018.015.262.109.541.209.528.188 1.208.495 1.355.611.099.079.134.085.168.029zm8.438-.236c.401-.245.983-.486 1.175-.486.047 0 .061-.063.061-.271 0-.254-.012-.286-.19-.528-.351-.476-.777-.693-1.545-.785-.349-.042-.424-.041-.424.005 0 .031.069.365.153.743s.171.83.193 1.005c.063.498.079.593.102.593.012 0 .225-.124.474-.276z" fill="#221e1f"/></svg>