<svg xmlns="http://www.w3.org/2000/svg" width="150.369" height="150.168" viewBox="0 0 39.785 39.732" xmlns:v="https://vecta.io/nano"><path d="M18.716 39.704c-2.015-.104-4.252-.586-6.094-1.313-2.654-1.047-4.819-2.466-6.797-4.454a20.1 20.1 0 0 1-4.163-6.058 18.92 18.92 0 0 1-1.58-5.778c-.109-.906-.11-3.577-.001-4.466.294-2.407.881-4.399 1.915-6.498 1.988-4.034 5.103-7.15 9.142-9.143A19.52 19.52 0 0 1 17.827.058c.804-.086 3.525-.073 4.297.022 4.03.492 7.531 2.019 10.686 4.662 3.007 2.52 5.373 6.312 6.368 10.208.608 2.379.765 5.027.447 7.533-.466 3.674-2.046 7.218-4.567 10.245a25.25 25.25 0 0 1-2.268 2.293c-1.824 1.55-3.958 2.778-6.242 3.591-2.387.849-5.131 1.233-7.831 1.093zm1.021-.63c.076-.301-.188-1.207-.726-2.494-.495-1.186-.901-2.233-1.003-2.588l-.099-.344-.274.125c-.975.445-2.246.712-3.385.712-1.365 0-3.377-.42-4.995-1.044-.801-.309-1.306-.545-2.774-1.299-1.426-.732-2.029-1.092-2.436-1.454-.265-.236-.253-.211.229.472 2.335 3.306 5.85 5.905 9.639 7.126a19.02 19.02 0 0 0 5.405.891c.387.006.391.005.418-.103zm2.641-.084c2.193-.281 4.15-.87 6.054-1.823 2.982-1.493 5.598-3.793 7.445-6.546.121-.18.211-.328.199-.328a5.03 5.03 0 0 0-.393.3c-1.425 1.149-3.11 1.881-5.291 2.301-1.112.214-2.658.356-4.86.448-1.061.044-2.258.135-2.773.211-.663.098-1.891.034-2.72-.141-.327-.069-.31-.095-.225.353.033.175.149.889.258 1.587.265 1.711.47 2.699.73 3.53l.071.228.509-.029a17.04 17.04 0 0 0 .996-.091zm15.317-11.893c.677-1.711 1.083-3.275 1.301-5.016.091-.728.129-2.858.064-3.667-.263-3.313-1.338-6.379-3.235-9.224-2.559-3.839-6.543-6.728-10.887-7.895-.748-.201-2.402-.514-2.679-.507-.017 0 .152.074.374.164.557.225.778.341 1.438.754.777.486 1.109.747 1.574 1.235.75.788 1.13 1.595 1.168 2.481.033.783-.121 1.399-.7 2.794-.294.709-.405 1.176-.383 1.607.023.444.152.688.606 1.145.542.546.885.691 2.603 1.101.524.125 1.065.267 1.203.315.545.191 2.665 1.397 3.027 1.722.594.534.676 1.496.207 2.434-.204.408-.74.99-1.405 1.526-.71.572-.875.664-2.27 1.263-1.099.472-1.984.914-2.316 1.159-.349.257-.498.539-.499.944-.001.274.011.318.126.46.271.334.939.648 2.222 1.042 1.964.603 2.064.641 3.611 1.373.82.388 1.595.775 1.723.859.292.193.883.754 1.129 1.074.219.284.617.945.858 1.425.162.323.262.632.324 1l.028.169.267-.55a21.05 21.05 0 0 0 .518-1.185zm-35.296-.379c.434-1.152 1.739-2.317 3.681-3.286.995-.496 1.515-.695 2.54-.971.636-.171 1.375-.412 1.587-.518.514-.255.767-.57.73-.907-.024-.217-.292-.791-.542-1.165-.098-.147-.466-.542-.818-.88-2.07-1.985-2.332-2.333-2.385-3.159-.036-.566.008-.769.257-1.18.291-.481.636-.858 1.021-1.115.501-.335 1.543-.716 2.808-1.025.709-.174 1.859-.554 2.097-.694.416-.244.768-.759.817-1.195.033-.296-.126-.523-.627-.894-.727-.539-1.188-1.102-1.686-2.058-.372-.714-.478-1.064-.456-1.506.015-.317.037-.397.177-.663.168-.32.689-.922 1.169-1.355.769-.691 1.331-1.039 3.852-2.384.542-.289 1.609-.945 1.609-.99 0-.027-1.083.107-1.693.21-1.72.291-3.321.813-4.974 1.624a19.19 19.19 0 0 0-8.776 8.627C1.298 14.153.642 17.041.717 20.344c.033 1.466.163 2.544.474 3.937.218.974.654 2.356.958 3.031l.093.208.031-.275c.017-.151.074-.389.126-.528z" fill="#d99e6b"/><path d="M18.716 39.704c-2.015-.104-4.252-.586-6.094-1.313-2.654-1.047-4.819-2.466-6.797-4.454a20.1 20.1 0 0 1-4.163-6.058 18.92 18.92 0 0 1-1.58-5.778c-.109-.906-.11-3.577-.001-4.466.294-2.407.881-4.399 1.915-6.498 1.988-4.034 5.103-7.15 9.142-9.143A19.52 19.52 0 0 1 17.827.058c.804-.086 3.525-.073 4.297.022 4.03.492 7.531 2.019 10.686 4.662 3.007 2.52 5.373 6.312 6.368 10.208.608 2.379.765 5.027.447 7.533-.466 3.674-2.046 7.218-4.567 10.245a25.25 25.25 0 0 1-2.268 2.293c-1.824 1.55-3.958 2.778-6.242 3.591-2.387.849-5.131 1.233-7.831 1.093zm1.021-.63c.076-.301-.188-1.207-.726-2.494-.495-1.186-.901-2.233-1.003-2.588l-.099-.344-.274.125c-.975.445-2.246.712-3.385.712-1.365 0-3.377-.42-4.995-1.044-.801-.309-1.306-.545-2.774-1.299-1.426-.732-2.029-1.092-2.436-1.454-.265-.236-.253-.211.229.472 2.335 3.306 5.85 5.905 9.639 7.126a19.02 19.02 0 0 0 5.405.891c.387.006.391.005.418-.103zm2.641-.084c2.193-.281 4.15-.87 6.054-1.823 2.982-1.493 5.598-3.793 7.445-6.546.121-.18.211-.328.199-.328a5.03 5.03 0 0 0-.393.3c-1.425 1.149-3.11 1.881-5.291 2.301-1.112.214-2.658.356-4.86.448-1.061.044-2.258.135-2.773.211-.663.098-1.891.034-2.72-.141-.327-.069-.31-.095-.225.353.033.175.149.889.258 1.587.265 1.711.47 2.699.73 3.53l.071.228.509-.029a17.04 17.04 0 0 0 .996-.091zm-6.889-5.5c.521-.095 1.041-.252 1.407-.425.316-.15.972-.565.941-.596-.009-.009-.472.014-1.029.052-1.584.107-2.559.122-2.892.044a5.58 5.58 0 0 0-.723-.093c-.244-.016-.468-.048-.497-.071s-.086-.029-.127-.014a4.47 4.47 0 0 1-.434.093c-.398.071-.86.051-1.143-.048-.223-.079-.847-.701-.847-.844 0-.106-.032-.117-.677-.24-.323-.061-.863-.213-.889-.249a1.77 1.77 0 0 0-.317-.144c-.37-.143-.493-.201-.564-.269-.031-.029-.083-.053-.116-.053s-.06-.019-.06-.042-.048-.053-.106-.068-.106-.044-.106-.064-.024-.038-.054-.038-.082-.038-.115-.085-.076-.085-.094-.085c-.062 0-.352-.319-.462-.509-.225-.39-.263-.591-.231-1.238.023-.464.047-.622.112-.743.045-.085.083-.171.083-.193 0-.115.253-.414.451-.535.123-.074.234-.168.246-.209s.071-.096.128-.122.105-.066.105-.088c0-.078.526-.564.838-.775.174-.118.373-.268.442-.334s.195-.143.28-.17.221-.095.302-.15.191-.1.243-.1.096-.016.096-.036.11-.06.243-.09c.462-.104 1.317-.389 1.339-.446s.522-.401.583-.401c.017 0 .043-.038.058-.085s.05-.085.078-.085.079-.038.112-.085.085-.085.115-.085.054-.017.054-.037.038-.047.085-.06.085-.052.085-.09.024-.067.054-.067.082-.038.115-.085.078-.085.1-.085.096-.067.165-.148.15-.148.178-.148a2.85 2.85 0 0 0 .572-.599c0-.019.063-.107.141-.194.254-.287.336-.466.374-.81a7.8 7.8 0 0 1 .062-.464c.015-.078.007-.182-.017-.233a1.36 1.36 0 0 1-.066-.34c-.021-.237-.122-.612-.202-.747-.021-.035-.061-.11-.09-.168-.084-.166-.31-.416-.577-.637a2.71 2.71 0 0 1-.354-.381c-.096-.128-.19-.243-.209-.256-.204-.14-.483-.429-.567-.586-.057-.108-.142-.244-.189-.302a.69.69 0 0 1-.112-.275c-.019-.122-.082-.228-.232-.388-.175-.187-.206-.245-.206-.389 0-.093.016-.18.037-.192s.027-.071.016-.129a1.55 1.55 0 0 1 .034-.393.62.62 0 0 1 .248-.466c.107-.099.21-.18.23-.18s.086-.035.148-.078a1.49 1.49 0 0 1 .261-.134.96.96 0 0 0 .256-.156c.059-.054.125-.099.146-.099s.091-.051.156-.114a.33.33 0 0 0 .119-.251c0-.155.059-.334.138-.416a1.46 1.46 0 0 0 .115-.145c.034-.049.087-.09.116-.09s.054-.019.054-.042.029-.042.063-.042.063-.019.063-.042.024-.042.054-.042.12-.054.201-.121c.321-.264.465-.302 1.136-.302.337 0 .672.018.743.039l.307.09.177.051.215-.22c.225-.231.252-.31.15-.445-.048-.064-.062-.226-.062-.734v-.651l-.155-.325a3.46 3.46 0 0 0-.233-.426c-.043-.056-.079-.132-.079-.169s-.068-.173-.149-.301a6.32 6.32 0 0 1-.271-.487c-.069-.14-.163-.311-.211-.381a.51.51 0 0 1-.087-.229c0-.056-.057-.204-.127-.327a1.04 1.04 0 0 1-.127-.301c0-.042-.038-.151-.085-.242s-.085-.191-.085-.222-.094-.155-.21-.275c-.348-.363-.364-.412-.314-.985.023-.271.062-.506.086-.521s.07-.09.103-.166.074-.138.092-.138.032-.029.032-.063.029-.063.063-.063.063-.029.063-.063.029-.063.063-.063.063-.018.063-.04.071-.054.159-.07.184-.065.214-.108.076-.078.101-.078.124-.064.22-.142a2.24 2.24 0 0 1 .301-.208c.07-.036.183-.125.251-.197s.144-.131.168-.131.149-.111.278-.246c.458-.481.826-.735 1.681-1.158.519-.257.647-.303.945-.339.435-.053.863.011 1.063.159.077.056.181.103.232.103s.117.029.147.065a.77.77 0 0 0 .215.139c.088.041.347.245.575.455.37.34 1.098.823 1.241.823.024 0 .065.048.092.106s.07.106.097.106.114.08.194.178a13.42 13.42 0 0 0 .317.37c.221.248.282.348.416.684.106.264.111.313.111 1.071 0 .819-.064 1.252-.232 1.575-.035.067-.064.148-.064.18 0 .057-.033.135-.261.626-.066.143-.121.306-.121.363 0 .113-.123.508-.169.541s-.169.429-.17.547c0 .06-.047.29-.105.511s-.105.459-.106.529a.58.58 0 0 1-.063.233c-.084.147-.083.718.001.875a1.98 1.98 0 0 1 .105.236c.027.077.07.116.128.116.082 0 .155.031.549.233.17.087.396.138.847.189.34.038.469.075.516.145.02.031.087.029.216-.006.255-.068 1.184-.024 1.384.066.081.037.163.091.182.122s.089.055.156.055.134.019.149.042.091.042.169.042.155-.019.169-.042.085-.042.158-.042.168-.033.212-.073c.061-.055.18-.077.5-.09.468-.019.718.013.718.091 0 .029.084.077.186.107.216.064.235.107.236.519.001.269-.078.552-.168.608-.058.036-.054.089.011.156.108.111.201.572.233 1.157.026.462.021.605-.022.649-.03.031-.055.088-.055.128s-.041.1-.09.135a18.63 18.63 0 0 0-.756.606 1.72 1.72 0 0 1-.19.137.97.97 0 0 0-.148.107c-.048.062-.494.262-.707.317-.184.048-.729.292-1.071.48-.102.056-.358.13-.451.13-.047 0-.179.067-.293.148s-.223.148-.242.148-.092.067-.163.148-.152.148-.179.148a2.5 2.5 0 0 0-.581.304c-.014.021-.09.072-.169.115-.104.056-.149.111-.159.199-.008.069-.076.182-.159.262-.119.116-.144.171-.144.319 0 .098-.031.223-.069.277-.067.096-.154.577-.15.831.005.281.061.698.095.698.02 0 .048.067.063.148s.045.148.065.148.038.026.038.059.066.132.147.222.148.192.148.227.039.088.086.117.085.081.085.116.038.063.088.063c.089 0 .472.202.498.263.008.018.034.033.057.033.051 0 .343.132.373.169a1.49 1.49 0 0 0 .362.169c.017 0 .129.046.248.102a1.64 1.64 0 0 0 .385.125c.093.013.35.054.571.093a16.87 16.87 0 0 0 .677.103c.151.018.361.065.466.105a2.89 2.89 0 0 0 .443.113c.139.023.31.068.381.1s.271.101.446.153.337.117.36.146.114.064.201.08.159.046.159.068.029.04.063.04.063.017.063.037.119.047.265.06.388.054.54.093a4.61 4.61 0 0 0 .558.099c.207.021.309.054.383.124a.6.6 0 0 0 .305.123c.137.019.266.075.393.172.104.079.234.165.289.19s.117.096.139.157c.044.125.329.427.404.428.027 0 .124.086.217.19s.191.19.219.19.124.119.213.265c.149.244.163.293.176.63.015.367-.029.544-.134.544-.029 0-.085.054-.123.119s-.14.156-.226.201-.217.139-.293.209c-.198.183-.45.36-.514.36-.03 0-.102.048-.161.106-.065.065-.154.106-.23.106-.165 0-.407.104-.653.28-.111.079-.273.171-.36.203l-.37.137c-.116.043-.259.112-.316.153-.069.049-.184.074-.34.074s-.271.025-.337.071a.86.86 0 0 1-.274.105 19.98 19.98 0 0 0-.553.123 25.03 25.03 0 0 1-.974.213c-.493.097-.651.122-.931.148-.163.015-.382.056-.487.092-.22.074-.779.129-1.799.177-.396.018-.805.059-.91.089-.227.067-2.436.108-2.513.047a1.91 1.91 0 0 0-.599-.093c-.251.075-.413.103-.861.151-.414.045-.534.072-.579.133-.054.073-.032.079.416.104.26.015.616.056.791.092.691.143 1.654.198 3.448.198 5.176-.001 7.096-.367 9.189-1.756.708-.47 1.988-1.525 2.151-1.772.175-.267.109-.646-.234-1.34-.208-.422-.252-.477-.856-1.084-.757-.761-1.307-1.147-2.373-1.666-.977-.476-1.367-.609-2.857-.979-1.981-.49-2.744-.775-3.591-1.338-.621-.413-.855-.703-.854-1.06 0-.224.132-.415.55-.802.882-.815 1.322-1.056 2.963-1.623 1.494-.516 1.732-.629 2.434-1.158.641-.482 1.125-1.055 1.395-1.649.169-.372.223-.587.257-1.025.023-.301.015-.358-.072-.528-.177-.342-.836-.772-1.771-1.156-.198-.081-.579-.261-.848-.399s-.621-.284-.783-.325c-.313-.079-1.207-.15-1.897-.152-1.345-.003-2.362-.572-2.876-1.609-.134-.27-.136-.286-.134-.847.002-.529.012-.601.137-.965.136-.396.352-.856.859-1.829.707-1.356.738-2.024.135-2.936-.243-.368-.8-.933-1.275-1.293-.54-.409-1.501-1.046-1.818-1.206-.307-.154-1.065-.459-1.576-.633a5.27 5.27 0 0 1-.606-.259c-.159-.083-.332-.151-.385-.151s-.256.097-.452.216-.937.549-1.647.957c-1.996 1.146-2.713 1.654-3.771 2.67-.666.64-.781.838-.778 1.342.001.285.023.389.137.657.153.358.73 1.276 1.31 2.083.848 1.182.973 1.741.593 2.656-.145.35-.385.641-.629.766-.093.047-.442.123-.849.184-1.911.287-3.479.737-4.035 1.159-.302.229-.576.649-.743 1.142-.122.359-.14.47-.143.857-.003.401.009.469.114.695.246.525.636.915 1.925 1.926.944.74 1.282 1.091 1.543 1.602.301.588.356 1.117.164 1.557-.104.238-.509.661-.843.883-.59.39-1.228.665-2.758 1.19l-1.439.517c-.913.356-1.804.877-2.353 1.373-.961.871-1.357 1.697-1.204 2.51.075.399.478 1.191.82 1.611.482.594.88.853 2.695 1.76 3.066 1.532 4.443 2.018 6.392 2.257.303.037 1.515-.014 1.874-.079zm22.206-6.393c.677-1.711 1.083-3.275 1.301-5.016.091-.728.129-2.858.064-3.667-.263-3.313-1.338-6.379-3.235-9.224-2.559-3.839-6.543-6.728-10.887-7.895-.748-.201-2.402-.514-2.679-.507-.017 0 .152.074.374.164.557.225.778.341 1.438.754.777.486 1.109.747 1.574 1.235.75.788 1.13 1.595 1.168 2.481.033.783-.121 1.399-.7 2.794-.294.709-.405 1.176-.383 1.607.023.444.152.688.606 1.145.542.546.885.691 2.603 1.101.524.125 1.065.267 1.203.315.545.191 2.665 1.397 3.027 1.722.594.534.676 1.496.207 2.434-.204.408-.74.99-1.405 1.526-.71.572-.875.664-2.27 1.263-1.099.472-1.984.914-2.316 1.159-.349.257-.498.539-.499.944-.001.274.011.318.126.46.271.334.939.648 2.222 1.042 1.964.603 2.064.641 3.611 1.373.82.388 1.595.775 1.723.859.292.193.883.754 1.129 1.074.219.284.617.945.858 1.425.162.323.262.632.324 1l.028.169.267-.55a21.05 21.05 0 0 0 .518-1.185zm-35.296-.379c.434-1.152 1.739-2.317 3.681-3.286.995-.496 1.515-.695 2.54-.971.636-.171 1.375-.412 1.587-.518.514-.255.767-.57.73-.907-.024-.217-.292-.791-.542-1.165-.098-.147-.466-.542-.818-.88-2.07-1.985-2.332-2.333-2.385-3.159-.036-.566.008-.769.257-1.18.291-.481.636-.858 1.021-1.115.501-.335 1.543-.716 2.808-1.025.709-.174 1.859-.554 2.097-.694.416-.244.768-.759.817-1.195.033-.296-.126-.523-.627-.894-.727-.539-1.188-1.102-1.686-2.058-.372-.714-.478-1.064-.456-1.506.015-.317.037-.397.177-.663.168-.32.689-.922 1.169-1.355.769-.691 1.331-1.039 3.852-2.384.542-.289 1.609-.945 1.609-.99 0-.027-1.083.107-1.693.21-1.72.291-3.321.813-4.974 1.624a19.19 19.19 0 0 0-8.776 8.627C1.298 14.153.642 17.041.717 20.344c.033 1.466.163 2.544.474 3.937.218.974.654 2.356.958 3.031l.093.208.031-.275c.017-.151.074-.389.126-.528zm21.561-7.285c.014-.038.007-.055-.017-.04s-.042.044-.042.066c0 .061.03.047.059-.026z" fill="#bb895c"/><path d="M18.716 39.704c-2.015-.104-4.252-.586-6.094-1.313-2.654-1.047-4.819-2.466-6.797-4.454a20.1 20.1 0 0 1-4.163-6.058 18.92 18.92 0 0 1-1.58-5.778c-.109-.906-.11-3.577-.001-4.466.294-2.407.881-4.399 1.915-6.498 1.988-4.034 5.103-7.15 9.142-9.143A19.52 19.52 0 0 1 17.827.058c.804-.086 3.525-.073 4.297.022 4.03.492 7.531 2.019 10.686 4.662 3.007 2.52 5.373 6.312 6.368 10.208.608 2.379.765 5.027.447 7.533-.466 3.674-2.046 7.218-4.567 10.245a25.25 25.25 0 0 1-2.268 2.293c-1.824 1.55-3.958 2.778-6.242 3.591-2.387.849-5.131 1.233-7.831 1.093zm1.021-.63c.076-.301-.188-1.207-.726-2.494-.495-1.186-.901-2.233-1.003-2.588l-.099-.344-.274.125c-.975.445-2.246.712-3.385.712-1.365 0-3.377-.42-4.995-1.044-.801-.309-1.306-.545-2.774-1.299-1.426-.732-2.029-1.092-2.436-1.454-.265-.236-.253-.211.229.472 2.335 3.306 5.85 5.905 9.639 7.126a19.02 19.02 0 0 0 5.405.891c.387.006.391.005.418-.103zm2.641-.084c2.193-.281 4.15-.87 6.054-1.823 2.982-1.493 5.598-3.793 7.445-6.546.121-.18.211-.328.199-.328a5.03 5.03 0 0 0-.393.3c-1.425 1.149-3.11 1.881-5.291 2.301-1.112.214-2.658.356-4.86.448-1.061.044-2.258.135-2.773.211-.663.098-1.891.034-2.72-.141-.327-.069-.31-.095-.225.353.033.175.149.889.258 1.587.265 1.711.47 2.699.73 3.53l.071.228.509-.029a17.04 17.04 0 0 0 .996-.091zm-6.889-5.5c.873-.158 1.558-.437 2.189-.892.34-.245.582-.468.546-.505-.054-.054-.666-.148-1.119-.173-.278-.015-.686-.058-.907-.096-.445-.075-1.571-.088-2.519-.028-.856.054-2.027.041-2.19-.025a.78.78 0 0 1-.413-.382c-.067-.127-.08-.245-.08-.727 0-.738-.039-.874-.345-1.196-.311-.328-.465-.601-.465-.821 0-.162-.009-.173-.159-.213-.087-.023-.33-.062-.54-.085-.329-.037-.394-.058-.476-.152a.47.47 0 0 1 .028-.616c.119-.119.138-.124.519-.123a3.51 3.51 0 0 1 .631.056c.235.055.236.055.339-.063.057-.065.127-.119.156-.12s.053-.029.053-.063.06-.073.152-.09c.083-.016.16-.051.171-.079s.085-.077.166-.108.146-.073.146-.092.029-.034.063-.034.063-.019.063-.042.029-.042.063-.042.063-.019.063-.042.029-.042.063-.042.063-.019.063-.042.029-.042.063-.042.063-.014.063-.032.062-.058.138-.091l.307-.132c.093-.04.217-.087.275-.103a2.04 2.04 0 0 0 .233-.087c.07-.031.217-.08.328-.107s.201-.065.201-.082.119-.064.265-.104c.303-.083.497-.16.497-.196 0-.014.081-.049.18-.077.296-.086.413-.147.413-.218 0-.037.043-.105.095-.152s.178-.184.279-.304.208-.218.238-.218.116-.117.192-.259c.195-.366.226-.675.113-1.138-.048-.198-.111-.379-.14-.402s-.084-.138-.123-.254-.125-.263-.192-.326-.123-.158-.123-.213-.025-.136-.057-.182c-.159-.235-.206-.533-.191-1.209l.015-.661-.283-.425c-.432-.649-.591-.989-.579-1.241.005-.115.001-.215-.009-.223-.13-.102-.382-.244-.932-.525-.786-.402-.985-.533-1.362-.901-.261-.255-.286-.294-.286-.453 0-.145.024-.195.145-.301.285-.251.521-.212.947.155.133.115.353.286.49.381l.248.172.257-.13c.141-.071.283-.156.316-.189s.079-.059.103-.059c.042 0 .266-.219.424-.415.039-.049.095-.166.123-.26s.063-.172.078-.172.062-.105.106-.233.105-.233.136-.233.057-.017.057-.038.052-.051.116-.067.128-.048.142-.071.269-.07.565-.105c.428-.05.571-.052.694-.012a.5.5 0 0 1 .18.088c.014.021.099.048.19.061s.232.053.312.089a1.3 1.3 0 0 0 .321.085c.165.019.187.007.399-.207.457-.462.551-.707.55-1.433 0-.283-.025-.584-.061-.72l-.109-.423c-.027-.105-.085-.261-.13-.347s-.081-.179-.081-.207-.078-.214-.174-.415l-.209-.449a25.95 25.95 0 0 0-.144-.329c-.06-.135-.109-.258-.11-.275s-.038-.107-.083-.2a.88.88 0 0 1-.083-.236c-.001-.036-.049-.165-.107-.286s-.106-.246-.106-.278-.028-.113-.063-.18a.58.58 0 0 1-.063-.214c0-.051-.018-.104-.039-.117s-.051-.079-.066-.145-.126-.243-.247-.393a4.69 4.69 0 0 1-.265-.352c-.025-.044-.082-.1-.127-.125-.177-.098-.442-.329-.501-.438-.213-.395-.246-.495-.228-.686.022-.232.187-.582.288-.615.04-.013.106-.06.147-.106.063-.07.131-.084.415-.084.471 0 .889.135 1.006.324.047.075.127.15.178.165s.22.15.375.299.298.27.318.27.063.06.096.134a.92.92 0 0 0 .201.258c.078.068.141.141.141.162s.057.117.127.214.127.193.127.214c0 .033.057.172.212.52l.123.28c.109.249.259.352.464.319.084-.014.159-.044.167-.068s.033-.043.055-.043.092-.051.155-.114l.115-.114-.003-.637c-.003-.635-.037-.895-.163-1.246-.087-.242-.087-.811.001-1.109s.413-.59.656-.59c.042 0 .086-.016.098-.036s.166-.059.341-.088c.374-.06.746-.025.931.087.071.043.166.095.213.116a.79.79 0 0 1 .29.301 2.24 2.24 0 0 0 .105.19c.042.07.11.279.151.466s.11.472.154.635c.177.653.204 1.07.102 1.609-.035.186-.074.415-.087.508-.053.398-.216 1.004-.322 1.197-.042.076-.076.176-.076.222s-.014.083-.032.083-.077.1-.132.222-.125.251-.156.286c-.112.129-.357.679-.357.8a.75.75 0 0 1-.051.245c-.054.127-.116.827-.114 1.283.002.307.145.821.327 1.17.062.119.214.308.338.419.257.231.389.269.939.273.214.002.489.036.677.086.175.046.366.084.426.084.187.001.65.177.738.281.047.055.208.164.358.243l.274.144.34-.317c.6-.559 1.849-1.324 2.162-1.324.329 0 .603.47.43.735-.037.056-.254.198-.484.316-1.295.665-1.986 1.314-3.389 3.183-.817 1.088-1.021 1.339-1.59 1.959l-.38.414.121.56a7.14 7.14 0 0 1 .137.868.9.9 0 0 1-.108.571c-.223.474-.457.667-.91.751-.32.059-.497.255-.497.551 0 .118.028.268.062.334.102.196.449.476.895.72.231.126.517.291.636.366.157.099.286.143.466.16.243.023.557.066 1.117.152.151.023.432.06.624.082.324.036.375.056.709.277.198.131.36.253.36.273s.057.096.127.169.127.174.127.225.05.177.111.281c.1.171.109.221.092.519-.013.225-.044.367-.098.449-.044.066-.135.225-.203.353s-.149.263-.181.299c-.052.059-.007.072.421.118.263.029.52.063.571.077.058.015.092.005.092-.028 0-.1.405-.733.663-1.036.273-.321.818-.76 1.153-.93.49-.248 1.084-.35 1.62-.277.553.075.713.19.713.511 0 .151-.096.395-.176.447-.031.02-.353.037-.714.037h-.657l-.288.142c-.53.261-1.062.85-1.365 1.513-.308.676-.33.692-.792.592a11.79 11.79 0 0 0-1.623-.219l-.467-.028-.136.133c-.075.073-.159.133-.187.133s-.124.067-.213.148-.184.148-.212.148-.099.043-.158.095a3.21 3.21 0 0 1-.234.185c-.16.113-.841.44-.918.44-.032 0-.18.066-.331.147s-.307.148-.348.148-.203.064-.36.141a4.87 4.87 0 0 1-.602.237l-.55.171a3.63 3.63 0 0 1-1.03.209c-.364.032-.47.057-.515.118-.054.073-.031.079.416.104.26.015.616.056.791.092.691.143 1.654.198 3.448.198 5.176-.001 7.096-.367 9.189-1.756.708-.47 1.988-1.525 2.151-1.772.175-.267.109-.646-.234-1.34-.208-.422-.252-.477-.856-1.084-.757-.761-1.307-1.147-2.373-1.666-.977-.476-1.367-.609-2.857-.979-1.981-.49-2.744-.775-3.591-1.338-.621-.413-.855-.703-.854-1.06 0-.224.132-.415.55-.802.882-.815 1.322-1.056 2.963-1.623 1.494-.516 1.732-.629 2.434-1.158.641-.482 1.125-1.055 1.395-1.649.169-.372.223-.587.257-1.025.023-.301.015-.358-.072-.528-.177-.342-.836-.772-1.771-1.156-.198-.081-.579-.261-.848-.399s-.621-.284-.783-.325c-.313-.079-1.207-.15-1.897-.152-1.345-.003-2.362-.572-2.876-1.609-.134-.27-.136-.286-.134-.847.002-.529.012-.601.137-.965.136-.396.352-.856.859-1.829.707-1.356.738-2.024.135-2.936-.243-.368-.8-.933-1.275-1.293-.54-.409-1.501-1.046-1.818-1.206-.307-.154-1.065-.459-1.576-.633a5.27 5.27 0 0 1-.606-.259c-.159-.083-.332-.151-.385-.151s-.256.097-.452.216a134.85 134.85 0 0 1-1.647.957c-1.996 1.146-2.713 1.654-3.771 2.67-.666.64-.781.838-.778 1.342.001.285.023.389.137.657.153.358.73 1.276 1.31 2.083.848 1.182.973 1.741.593 2.656-.145.35-.385.641-.629.766-.093.047-.442.123-.849.184-1.911.287-3.479.737-4.035 1.159-.302.229-.576.649-.743 1.142-.122.359-.14.47-.143.857-.003.401.009.469.114.695.246.525.636.915 1.925 1.926.944.74 1.282 1.091 1.543 1.602.301.588.356 1.117.164 1.557-.104.238-.509.661-.843.883-.59.39-1.228.665-2.758 1.19l-1.439.517c-.913.356-1.804.877-2.353 1.373-.961.871-1.357 1.697-1.204 2.51.075.399.478 1.191.82 1.611.482.594.88.853 2.695 1.76 3.066 1.532 4.443 2.018 6.392 2.257.303.037 1.515-.014 1.874-.079zm22.206-6.393c.677-1.711 1.083-3.275 1.301-5.016.091-.728.129-2.858.064-3.667-.263-3.313-1.338-6.379-3.235-9.224-2.559-3.839-6.543-6.728-10.887-7.895-.748-.201-2.402-.514-2.679-.507-.017 0 .152.074.374.164.557.225.778.341 1.438.754.777.486 1.109.747 1.574 1.235.75.788 1.13 1.595 1.168 2.481.033.783-.121 1.399-.7 2.794-.294.709-.405 1.176-.383 1.607.023.444.152.688.606 1.145.542.546.885.691 2.603 1.101.524.125 1.065.267 1.203.315.545.191 2.665 1.397 3.027 1.722.594.534.676 1.496.207 2.434-.204.408-.74.99-1.405 1.526-.71.572-.875.664-2.27 1.263-1.099.472-1.984.914-2.316 1.159-.349.257-.498.539-.499.944-.001.274.011.318.126.46.271.334.939.648 2.222 1.042 1.964.603 2.064.641 3.611 1.373.82.388 1.595.775 1.723.859.292.193.883.754 1.129 1.074.219.284.617.945.858 1.425.162.323.262.632.324 1l.028.169.267-.55a21.05 21.05 0 0 0 .518-1.185zm-35.296-.379c.434-1.152 1.739-2.317 3.681-3.286.995-.496 1.515-.695 2.54-.971.636-.171 1.375-.412 1.587-.518.514-.255.767-.57.73-.907-.024-.217-.292-.791-.542-1.165-.098-.147-.466-.542-.818-.88-2.07-1.985-2.332-2.333-2.385-3.159-.036-.566.008-.769.257-1.18.291-.481.636-.858 1.021-1.115.501-.335 1.543-.716 2.808-1.025.709-.174 1.859-.554 2.097-.694.416-.244.768-.759.817-1.195.033-.296-.126-.523-.627-.894-.727-.539-1.188-1.102-1.686-2.058-.372-.714-.478-1.064-.456-1.506.015-.317.037-.397.177-.663.168-.32.689-.922 1.169-1.355.769-.691 1.331-1.039 3.852-2.384.542-.289 1.609-.945 1.609-.99 0-.027-1.083.107-1.693.21-1.72.291-3.321.813-4.974 1.624a19.19 19.19 0 0 0-8.776 8.627C1.298 14.153.642 17.041.717 20.344c.033 1.466.163 2.544.474 3.937.218.974.654 2.356.958 3.031l.093.208.031-.275c.017-.151.074-.389.126-.528z" fill="#926c47"/><path d="M18.716 39.704c-2.015-.104-4.252-.586-6.094-1.313-2.654-1.047-4.819-2.466-6.797-4.454a20.1 20.1 0 0 1-4.163-6.058 18.92 18.92 0 0 1-1.58-5.778c-.109-.906-.11-3.577-.001-4.466.294-2.407.881-4.399 1.915-6.498 1.988-4.034 5.103-7.15 9.142-9.143A19.52 19.52 0 0 1 17.827.058c.804-.086 3.525-.073 4.297.022 4.03.492 7.531 2.019 10.686 4.662 3.007 2.52 5.373 6.312 6.368 10.208.608 2.379.765 5.027.447 7.533-.466 3.674-2.046 7.218-4.567 10.245a25.25 25.25 0 0 1-2.268 2.293c-1.824 1.55-3.958 2.778-6.242 3.591-2.387.849-5.131 1.233-7.831 1.093zm1.021-.63c.076-.301-.188-1.207-.726-2.494-.495-1.186-.901-2.233-1.003-2.588l-.099-.344-.274.125c-.975.445-2.246.712-3.385.712-1.365 0-3.377-.42-4.995-1.044-.801-.309-1.306-.545-2.774-1.299-1.426-.732-2.029-1.092-2.436-1.454-.265-.236-.253-.211.229.472 2.335 3.306 5.85 5.905 9.639 7.126a19.02 19.02 0 0 0 5.405.891c.387.006.391.005.418-.103zm2.641-.084c2.193-.281 4.15-.87 6.054-1.823 2.982-1.493 5.598-3.793 7.445-6.546.121-.18.211-.328.199-.328a5.03 5.03 0 0 0-.393.3c-1.425 1.149-3.11 1.881-5.291 2.301-1.112.214-2.658.356-4.86.448-1.061.044-2.258.135-2.773.211-.663.098-1.891.034-2.72-.141-.327-.069-.31-.095-.225.353.033.175.149.889.258 1.587.265 1.711.47 2.699.73 3.53l.071.228.509-.029a17.04 17.04 0 0 0 .996-.091zm-6.889-5.5c.859-.156 1.538-.428 2.143-.859.453-.322.606-.481.918-.95.184-.276.381-.505.6-.698.18-.158.458-.413.618-.566l.291-.278-.302-.159c-.724-.381-1.307-.491-2.183-.413-.592.052-1.773.236-1.949.303-.06.023-.108.086-.125.164-.043.196-.324.601-.555.802-.263.228-.698.44-1.16.566-.31.084-.459.098-1.079.098-.792 0-.927-.032-1.028-.243-.078-.162-.022-.406.125-.553l.121-.121.603.029c.848.04 1.373-.084 1.652-.392.074-.081.069-.083-.32-.106-.664-.04-1.055-.199-2.26-.922-1.098-.659-1.342-.756-2.11-.842-.328-.037-.394-.058-.476-.152a.47.47 0 0 1 .028-.616c.118-.118.14-.124.506-.124.738 0 1.003.104 2.125.835 1.161.756 1.66.986 2.145.986.125 0 .526-.065.892-.145 1.731-.379 2.294-.462 3.141-.466l.698-.003-.652-.465c-.359-.256-.747-.55-.862-.654-.294-.265-.598-.716-.755-1.119-.181-.468-.199-.831-.085-1.703.049-.375.089-.765.088-.868-.001-.232-.109-.473-.341-.765-.421-.53-.505-.946-.398-1.971.043-.405.062-.814.047-.975-.029-.311-.195-.705-.432-1.029-.289-.394-1.012-.89-2.139-1.466-.786-.402-.985-.534-1.362-.901-.261-.255-.286-.294-.286-.453 0-.145.024-.195.145-.301.292-.256.51-.216.981.184.319.271.724.542 1.639 1.099.839.51 1.367.923 1.622 1.267.129.175.215.257.233.224.037-.066.11-.59.144-1.025.047-.611-.089-1.105-.457-1.654-.109-.162-.209-.352-.222-.421-.048-.254.251-.528.575-.528.274 0 .705.622.864 1.247.12.474.061 1.21-.212 2.605-.16.816-.253 1.42-.295 1.905-.049.558.127 1.139.519 1.716.321.472.363.778.244 1.736-.09.722-.083 1.151.024 1.47.264.785.756 1.306 2.033 2.156.926.616 1.332.982 1.52 1.371.119.246.225.272.54.135a10.44 10.44 0 0 1 .654-.245c.413-.139.413-.139.413-.282 0-.078.065-.271.144-.429.244-.484.335-.85.311-1.249a1.88 1.88 0 0 0-.391-1.081c-.141-.191-.338-.361-.84-.72-.709-.508-1.069-.863-1.113-1.097a1.61 1.61 0 0 1 .118-.845c.102-.199.201-.266.704-.482.253-.108.543-.393.69-.677.123-.237.123-.489 0-.997l-.094-.388-.22-.028c-.539-.068-.931-.236-1.332-.571-.478-.4-.842-.982-1.051-1.682-.088-.293-.116-.494-.132-.946-.025-.682.035-.98.346-1.709.109-.254.245-.626.303-.825.097-.335.231-1.253.289-1.977l.024-.302-.133-.055c-.073-.03-.269-.144-.434-.251-.819-.535-1.215-1.094-1.968-2.781-.697-1.561-.833-1.786-1.443-2.385-.226-.222-.435-.448-.464-.502-.138-.258.175-.681.504-.681.138 0 .211.036.419.209.289.24.673.68.888 1.016.168.262.459.871.8 1.674.617 1.451 1.003 2.038 1.677 2.544l.258.194.053-.365c.062-.432.138-.683.451-1.505.41-1.075.464-1.297.468-1.926s-.046-.806-.377-1.318c-.239-.37-.258-.59-.067-.781.105-.105.157-.124.346-.124.211 0 .232.01.41.201.246.264.494.69.583 1.003.059.207.068.368.049.91-.026.755-.098 1.096-.475 2.243-.318.97-.346 1.111-.466 2.401-.2 2.148-.274 2.546-.64 3.48-.442 1.128-.456 1.178-.458 1.636-.003.681.218 1.277.639 1.718.233.244.648.477.835.468.414-.02.701-.08.877-.183.345-.203.986-.971 1.722-2.066.622-.925 1.083-1.493 1.658-2.044.704-.674 1.954-1.47 2.311-1.47.329 0 .603.47.43.735-.037.056-.254.198-.484.316-1.295.665-1.986 1.314-3.389 3.183-.817 1.088-1.021 1.339-1.59 1.959l-.38.414.121.56a7.14 7.14 0 0 1 .137.868.9.9 0 0 1-.108.571c-.223.474-.457.667-.91.751-.32.059-.497.255-.497.551 0 .118.028.268.062.334.108.209.46.481 1.015.787.692.38.833.502 1.017.881.204.417.277.738.277 1.21 0 .453-.079.826-.26 1.228-.067.149-.116.277-.109.284s.26-.008.561-.033c.821-.068 2.585.018 3.247.158.076.016.116.007.116-.026 0-.099.407-.734.663-1.035.273-.321.818-.76 1.153-.93.49-.248 1.084-.35 1.62-.277.553.075.713.19.713.511 0 .151-.096.395-.176.447-.031.02-.353.037-.714.037h-.657l-.288.142c-.53.261-1.062.85-1.365 1.513-.306.671-.334.693-.772.595-1.153-.258-2.886-.325-3.974-.154-.964.151-1.746.441-2.489.922-.322.209-1.142 1.006-1.369 1.331l-.14.201h.373a5.1 5.1 0 0 1 .796.082c.833.161 1.711.214 3.553.214 5.176-.001 7.096-.367 9.189-1.756.708-.47 1.988-1.525 2.151-1.772.175-.267.109-.646-.234-1.34-.208-.422-.252-.477-.856-1.084-.757-.761-1.307-1.147-2.373-1.666-.977-.476-1.367-.609-2.857-.979-1.981-.49-2.744-.775-3.591-1.338-.621-.413-.855-.703-.854-1.06 0-.224.132-.415.55-.802.882-.815 1.322-1.056 2.963-1.623 1.494-.516 1.732-.629 2.434-1.158.641-.482 1.125-1.055 1.395-1.649.169-.372.223-.587.257-1.025.023-.301.015-.358-.072-.528-.177-.342-.836-.772-1.771-1.156-.198-.081-.579-.261-.848-.399s-.621-.284-.783-.325c-.313-.079-1.207-.15-1.897-.152-1.345-.003-2.362-.572-2.876-1.609-.134-.27-.136-.286-.134-.847.002-.529.012-.601.137-.965.136-.396.352-.856.859-1.829.707-1.356.738-2.024.135-2.936-.243-.368-.8-.933-1.275-1.293-.54-.409-1.501-1.046-1.818-1.206-.307-.154-1.065-.459-1.576-.633a5.27 5.27 0 0 1-.606-.259c-.159-.083-.332-.151-.385-.151s-.256.097-.452.216-.937.549-1.647.957c-1.996 1.146-2.713 1.654-3.771 2.67-.666.64-.781.838-.778 1.342.001.285.023.389.137.657.153.358.73 1.276 1.31 2.083.848 1.182.973 1.741.593 2.656-.145.35-.385.641-.629.766-.093.047-.442.123-.849.184-1.911.287-3.479.737-4.035 1.159-.302.229-.576.649-.743 1.142-.122.359-.14.47-.143.857-.003.401.009.469.114.695.246.525.636.915 1.925 1.926.944.74 1.282 1.091 1.543 1.602.301.588.356 1.117.164 1.557-.104.238-.509.661-.843.883-.59.39-1.228.665-2.758 1.19l-1.439.517c-.913.356-1.804.877-2.353 1.373-.961.871-1.357 1.697-1.204 2.51.075.399.478 1.191.82 1.611.482.594.88.853 2.695 1.76 3.066 1.532 4.443 2.018 6.392 2.257.303.037 1.515-.014 1.874-.079zm22.206-6.393c.677-1.711 1.083-3.275 1.301-5.016.091-.728.129-2.858.064-3.667-.263-3.313-1.338-6.379-3.235-9.224-2.559-3.839-6.543-6.728-10.887-7.895-.748-.201-2.402-.514-2.679-.507-.017 0 .152.074.374.164.557.225.778.341 1.438.754.777.486 1.109.747 1.574 1.235.75.788 1.13 1.595 1.168 2.481.033.783-.121 1.399-.7 2.794-.294.709-.405 1.176-.383 1.607.023.444.152.688.606 1.145.542.546.885.691 2.603 1.101.524.125 1.065.267 1.203.315.545.191 2.665 1.397 3.027 1.722.594.534.676 1.496.207 2.434-.204.408-.74.99-1.405 1.526-.71.572-.875.664-2.27 1.263-1.099.472-1.984.914-2.316 1.159-.349.257-.498.539-.499.944-.001.274.011.318.126.46.271.334.939.648 2.222 1.042 1.964.603 2.064.641 3.611 1.373.82.388 1.595.775 1.723.859.292.193.883.754 1.129 1.074.219.284.617.945.858 1.425.162.323.262.632.324 1l.028.169.267-.55a21.05 21.05 0 0 0 .518-1.185zm-35.296-.379c.434-1.152 1.739-2.317 3.681-3.286.995-.496 1.515-.695 2.54-.971.636-.171 1.375-.412 1.587-.518.514-.255.767-.57.73-.907-.024-.217-.292-.791-.542-1.165-.098-.147-.466-.542-.818-.88-2.07-1.985-2.332-2.333-2.385-3.159-.036-.566.008-.769.257-1.18.291-.481.636-.858 1.021-1.115.501-.335 1.543-.716 2.808-1.025.709-.174 1.859-.554 2.097-.694.416-.244.768-.759.817-1.195.033-.296-.126-.523-.627-.894-.727-.539-1.188-1.102-1.686-2.058-.372-.714-.478-1.064-.456-1.506.015-.317.037-.397.177-.663.168-.32.689-.922 1.169-1.355.769-.691 1.331-1.039 3.852-2.384.542-.289 1.609-.945 1.609-.99 0-.027-1.083.107-1.693.21-1.72.291-3.321.813-4.974 1.624a19.19 19.19 0 0 0-8.776 8.627C1.298 14.153.642 17.041.717 20.344c.033 1.466.163 2.544.474 3.937.218.974.654 2.356.958 3.031l.093.208.031-.275c.017-.151.074-.389.126-.528z" fill="#221e1f"/></svg>