<svg xmlns="http://www.w3.org/2000/svg" width="1040" height="1082.667" xmlns:v="https://vecta.io/nano"><path d="M129.456 1060.628c-40.19-10.383-66.627-36.066-76.916-74.725-3.317-12.464-3.447-14.24-2.897-39.808.639-29.695 2.294-39.798 11.909-72.681 14.293-48.885 38.814-102.513 88.812-194.236l21.161-38.822-10.763-.845c-27.381-2.151-63.874-14.97-86.096-30.243-9.693-6.662-28.9-26.462-35.998-37.11-9.085-13.628-15.963-29.858-20.815-49.122-4.401-17.471-4.52-18.658-4.501-44.825.021-28.528.821-34.353 7.535-54.878 13.493-41.248 47.124-80.831 96.132-113.145 40.135-26.463 93.448-51.178 161.765-74.991l26.119-9.104 1.704-12.047c3.791-26.803 15.141-64.31 26.013-85.957 10.458-20.822 23.144-38.114 40.263-54.879 8.68-8.501 19.382-17.871 23.782-20.822 11.277-7.565 35.4-19.375 48-23.5 26.049-8.528 30.797-9.213 68.484-9.871 39.772-.694 48.455.159 72.815 7.153 33.134 9.514 60.439 25.742 84.166 50.021 21.323 21.819 35.338 43.903 46.781 73.712 5.791 15.085 14.283 48.128 16.538 64.345l1.703 12.249 24.09 8.191c39.627 13.474 76.896 28.882 110.09 45.513 50.157 25.13 73.739 41.216 102.107 69.65 24.269 24.325 39.04 47.093 47.672 73.48 6.714 20.525 7.514 26.351 7.535 54.878.019 26.167-.1 27.354-4.501 44.825-4.852 19.264-11.73 35.494-20.815 49.122-7.098 10.648-26.305 30.448-35.998 37.11-22.039 15.148-58.3 27.943-85.734 30.251-8.048.677-10.241 1.29-9.696 2.711.388 1.01 9.462 17.871 20.165 37.469 24.632 45.102 57.736 111.369 67.757 135.633 15.41 37.311 27.739 78.499 31.547 105.384.871 6.15 1.303 20.925 1.013 34.667-.478 22.683-.729 24.619-4.746 36.616-12.086 36.089-37.257 58.963-75.583 68.686L896.991 1064H768.829 640.667l-12.295-3.294c-38.858-10.409-61.929-31.805-95.642-88.698l-10.998-18.424c-1.855-2.998-2.236-2.536-12.683 15.333-16.992 29.064-28.509 45.546-40.207 57.539-17.319 17.755-34.879 28.268-57.213 34.251l-12.295 3.294-128.667-.062-128.667-.07-12.544-3.241z" fill="#f6f6f6"/><path d="M138.921 1021.3c-24.977-6.543-41.356-22.582-47.62-46.633-3.039-11.668-2.047-44.511 1.882-62.294 11.971-54.18 35.828-109.126 92.5-213.039 36.312-66.581 50.375-94.386 48.625-96.137-.411-.411-15.649-1.27-33.861-1.909-18.302-.641-38.284-2.078-44.674-3.213-28.192-5.004-51.833-15.743-67.583-30.7-17.029-16.172-25.738-31.66-31.689-56.354-3.15-13.071-3.376-15.996-2.86-36.941.503-20.425.94-23.904 4.283-34.08C80.341 371.738 152.694 321.584 304 269.421l36.96-12.744c2.035-.704 2.442-2.877 4.248-22.677 2.61-28.621 11.392-62.157 22.133-84.518 11.199-23.316 31.981-48.805 50.659-62.133 17.468-12.464 42.565-22.674 65.613-26.694 15.307-2.669 57.404-2.68 72.666-.019 33.496 5.841 62.649 20.977 85.168 44.217 31.434 32.441 49.159 77.054 54.391 136.905.629 7.2 1.673 13.566 2.32 14.146s16.475 6.297 35.175 12.704c46.422 15.905 83.936 30.957 113.324 45.469 45.711 22.574 71.949 40.166 96.097 64.433 20.356 20.456 31.637 38.097 39.323 61.49 3.344 10.178 3.781 13.652 4.284 34.08.516 20.946.29 23.871-2.86 36.941-5.951 24.694-14.66 40.182-31.689 56.354-15.75 14.957-39.391 25.696-67.583 30.7-6.39 1.134-26.372 2.571-44.674 3.213-18.212.638-33.451 1.498-33.864 1.911-1.745 1.745 13.172 31.065 50.944 100.134 67.498 123.427 94.01 193.433 94.028 248.283.004 13.494-.541 18.003-3.184 26.325-7.365 23.191-22.467 37.166-46.925 43.421-9.904 2.533-15.124 2.638-131.574 2.638-134.895 0-128.865.374-146.972-9.114-16.743-8.773-29.595-23.086-48.685-54.221-3.147-5.132-14.547-24.632-25.333-43.332-23.062-39.983-27.073-46.671-27.98-46.655-1.02.017-9.583 14.283-32.009 53.322-36.778 64.024-49.002 79.896-70.001 90.887-18.145 9.498-11.993 9.121-147.526 9.039-115.587-.07-122.305-.204-131.553-2.626zM916 410.207c0-.253-1.35-1.603-3-3l-3-2.54 2.54 3c2.387 2.819 3.46 3.607 3.46 2.54zM128.17 407c1.659-2.115 1.611-2.162-.503-.503-1.283 1.006-2.333 2.056-2.333 2.333 0 1.097 1.095.391 2.837-1.83z" fill="#d83a17"/><path d="M138.921 1021.3c-24.977-6.543-41.356-22.582-47.62-46.633-3.039-11.668-2.047-44.511 1.882-62.294 11.971-54.18 35.828-109.126 92.5-213.039 36.312-66.581 50.375-94.386 48.625-96.137-.411-.411-15.649-1.27-33.861-1.909-18.302-.641-38.284-2.078-44.674-3.213-28.192-5.004-51.833-15.743-67.583-30.7-17.029-16.172-25.738-31.66-31.689-56.354-3.15-13.071-3.376-15.996-2.86-36.941.503-20.425.94-23.904 4.283-34.08C80.341 371.738 152.694 321.584 304 269.421l36.96-12.744c2.035-.704 2.442-2.877 4.248-22.677 2.61-28.621 11.392-62.157 22.133-84.518 11.199-23.316 31.981-48.805 50.659-62.133 17.468-12.464 42.565-22.674 65.613-26.694 15.307-2.669 57.404-2.68 72.666-.019 33.496 5.841 62.649 20.977 85.168 44.217 31.434 32.441 49.159 77.054 54.391 136.905.629 7.2 1.673 13.566 2.32 14.146s16.475 6.297 35.175 12.704c46.422 15.905 83.936 30.957 113.324 45.469 45.711 22.574 71.949 40.166 96.097 64.433 20.356 20.456 31.637 38.097 39.323 61.49 3.344 10.178 3.781 13.652 4.284 34.08.516 20.946.29 23.871-2.86 36.941-5.951 24.694-14.66 40.182-31.689 56.354-15.75 14.957-39.391 25.696-67.583 30.7-6.39 1.134-26.372 2.571-44.674 3.213-18.212.638-33.451 1.498-33.864 1.911-1.745 1.745 13.172 31.065 50.944 100.134 67.498 123.427 94.01 193.433 94.028 248.283.004 13.494-.541 18.003-3.184 26.325-7.365 23.191-22.467 37.166-46.925 43.421-9.904 2.533-15.124 2.638-131.574 2.638-134.895 0-128.865.374-146.972-9.114-16.743-8.773-29.595-23.086-48.685-54.221-3.147-5.132-14.547-24.632-25.333-43.332-23.062-39.983-27.073-46.671-27.98-46.655-1.02.017-9.583 14.283-32.009 53.322-36.778 64.024-49.002 79.896-70.001 90.887-18.145 9.498-11.993 9.121-147.526 9.039-115.587-.07-122.305-.204-131.553-2.626zm248.014-38.766c19.931-4.135 27.697-13.903 70.389-88.534 31.309-54.733 47.471-77.359 58.532-81.94 3.38-1.4 4.909-1.4 8.288 0 10.029 4.154 25.466 24.801 49.051 65.607l24.281 42c24.565 42.482 35.327 55.962 48.865 61.204 5.922 2.293 13.301 2.475 115.659 2.851 115.322.424 125.994.001 135.838-5.383 12.394-6.778 14.897-24.538 8.152-57.852-9.495-46.893-33.953-102.315-92.597-209.82-54.165-99.295-63.605-124.586-51.299-137.431 8.127-8.483 22.872-11.265 66.573-12.56 33.799-1.002 48.424-2.586 63.072-6.83 15.042-4.359 22.55-8.402 32.204-17.339 13.368-12.377 20.376-29.505 22.183-54.218 2.652-36.268-20.696-71.562-68.126-102.981-40.33-26.716-83.681-46.057-168.667-75.248-23.833-8.186-45.133-15.931-47.333-17.21-4.435-2.579-5.719-7.405-5.901-22.189-.131-10.631-3.543-39.407-6.203-52.317-12.795-62.1-45.97-99.505-98.062-110.563-15.494-3.289-48.243-3.274-63.813.029-49.743 10.554-81.137 43.899-95.949 101.912-3.789 14.839-6.396 33.78-7.991 58.052-.763 11.608-1.731 21.662-2.152 22.343-1.51 2.443-8.695 5.23-51.331 19.908-89.303 30.744-137.093 52.602-176.943 80.93-41.665 29.619-62.261 63.296-59.758 97.715 1.744 23.986 8.992 41.661 22.013 53.685 9.518 8.789 17.782 13.272 32.123 17.428 14.932 4.327 29.479 5.916 63.299 6.912 44.03 1.298 58.442 4.048 66.754 12.74 3.618 3.783 3.903 4.812 3.788 13.663-.087 6.696-1.224 12.777-3.783 20.238-5.502 16.044-24.025 53.249-52.773 106-53.408 98.001-76.084 147.611-87.932 192.374-5.102 19.275-6.843 30.677-6.912 45.26-.095 19.955 6.554 28.577 24.307 31.523 10.89 1.807 223.458 1.848 232.152.044z" fill="#010101"/></svg>