<svg xmlns="http://www.w3.org/2000/svg" width="1144" height="1082.667" xmlns:v="https://vecta.io/nano"><path d="M181.456 1056.628c-40.19-10.383-66.627-36.066-76.916-74.725-3.317-12.464-3.447-14.24-2.897-39.808.639-29.695 2.294-39.798 11.909-72.681 14.293-48.885 38.814-102.513 88.812-194.236l21.161-38.822-10.763-.845c-27.381-2.151-63.874-14.97-86.096-30.243-9.693-6.662-28.9-26.462-35.998-37.11-9.085-13.628-15.963-29.859-20.815-49.122-4.401-17.471-4.52-18.658-4.501-44.825.021-28.528.821-34.353 7.535-54.878 13.493-41.248 47.124-80.831 96.132-113.145 40.135-26.463 93.448-51.178 161.765-74.991l26.119-9.104 1.704-12.047c3.791-26.803 15.141-64.31 26.013-85.957 10.458-20.822 23.144-38.114 40.263-54.879 8.68-8.501 19.382-17.871 23.782-20.822 11.277-7.565 35.4-19.375 48-23.5 26.049-8.528 30.797-9.213 68.484-9.871 39.772-.694 48.455.159 72.815 7.153 33.134 9.514 60.439 25.742 84.166 50.021 21.323 21.819 35.338 43.903 46.781 73.712 5.791 15.085 14.283 48.128 16.538 64.345l1.703 12.249 24.09 8.191c39.627 13.474 76.896 28.882 110.09 45.513 50.157 25.13 73.739 41.216 102.107 69.65 24.269 24.325 39.04 47.093 47.672 73.48 6.714 20.525 7.514 26.351 7.535 54.878.019 26.167-.1 27.354-4.501 44.825-4.852 19.264-11.73 35.494-20.815 49.122-7.099 10.648-26.305 30.448-35.998 37.11-22.039 15.148-58.3 27.943-85.734 30.251-8.048.677-10.241 1.29-9.696 2.711.388 1.01 9.462 17.871 20.165 37.469 24.632 45.102 57.736 111.369 67.757 135.633 15.41 37.311 27.739 78.499 31.547 105.384.871 6.15 1.303 20.925 1.013 34.667-.478 22.683-.729 24.619-4.746 36.616-12.086 36.089-37.257 58.963-75.583 68.686L948.991 1060H820.829 692.667l-12.295-3.294c-38.858-10.409-61.929-31.805-95.642-88.698l-10.998-18.424c-1.855-2.998-2.236-2.536-12.683 15.333-16.992 29.064-28.509 45.546-40.207 57.539-17.319 17.755-34.879 28.268-57.213 34.251l-12.295 3.294-128.667-.062-128.667-.07-12.544-3.241z" fill="#f6f6f6"/><path d="M190.921 1017.3c-24.977-6.543-41.356-22.582-47.62-46.633-3.039-11.668-2.047-44.511 1.882-62.294 11.971-54.18 35.828-109.126 92.5-213.039 36.312-66.581 50.375-94.386 48.625-96.137-.411-.411-15.649-1.27-33.861-1.909-18.302-.641-38.284-2.078-44.674-3.213-28.192-5.004-51.833-15.743-67.583-30.7-17.029-16.172-25.739-31.66-31.689-56.354-3.15-13.071-3.376-15.996-2.86-36.941.503-20.425.94-23.904 4.283-34.08C132.341 367.738 204.694 317.584 356 265.421l36.96-12.744c2.035-.704 2.442-2.877 4.248-22.677 2.61-28.621 11.392-62.157 22.133-84.518C430.54 122.166 451.322 96.676 470 83.349c17.468-12.464 42.565-22.674 65.613-26.694 15.307-2.669 57.404-2.68 72.666-.019 33.496 5.841 62.649 20.977 85.168 44.217 31.434 32.441 49.159 77.054 54.391 136.905.629 7.2 1.673 13.566 2.32 14.146s16.475 6.297 35.175 12.704c46.422 15.905 83.936 30.957 113.324 45.469 45.711 22.574 71.949 40.166 96.097 64.433 20.356 20.456 31.637 38.097 39.323 61.49 3.344 10.178 3.781 13.652 4.284 34.08.516 20.946.29 23.871-2.86 36.941-5.951 24.694-14.66 40.182-31.689 56.354-15.75 14.957-39.391 25.696-67.583 30.7-6.39 1.134-26.372 2.571-44.674 3.213-18.212.638-33.451 1.498-33.864 1.911-1.745 1.745 13.172 31.065 50.944 100.134 67.498 123.427 94.01 193.433 94.028 248.283 0 13.494-.541 18.003-3.184 26.325-7.365 23.191-22.467 37.166-46.925 43.421-9.904 2.533-15.124 2.638-131.574 2.638-134.895 0-128.865.374-146.972-9.114-16.743-8.773-29.595-23.086-48.685-54.221-3.147-5.132-14.547-24.632-25.333-43.332-23.062-39.983-27.073-46.671-27.98-46.655-1.02.017-9.583 14.283-32.009 53.322-36.778 64.024-49.002 79.896-70.001 90.887-18.145 9.498-11.993 9.121-147.526 9.039-115.587-.07-122.305-.204-131.553-2.626z" fill="#76be55"/><path d="M190.667 1016.931c-59.607-15.415-65.339-80.241-17.151-193.961 11.367-26.825 37.835-79.465 64.513-128.303 36.156-66.188 50.052-93.697 48.246-95.503-.429-.429-15.367-1.296-33.195-1.926-46.829-1.654-66.097-5.532-91.081-18.327-17.094-8.755-33.709-25.353-42.368-42.326-10.493-20.566-13.241-32.118-13.968-58.713-.543-19.855-.274-24.177 2.086-33.51 12.519-49.505 52.434-90.46 124.297-127.535 37.939-19.573 76.71-35.37 133.622-54.441 28.584-9.579 29.009-9.776 29.555-13.719.305-2.2 1.218-10.75 2.029-19 8.476-86.196 49.576-145.894 114.796-166.742 22.982-7.346 33.106-8.578 65.199-7.934 26.865.539 29.78.848 44.389 4.694 43.572 11.472 76.746 37.577 98.674 77.649C734.339 162.969 748 214.833 748 242.458c0 3.501.75 7.367 1.667 8.59.929 1.24 16.711 7.293 35.667 13.68 47.394 15.968 83.802 30.686 117.436 47.473 77.511 38.686 119.148 79.303 132.541 129.294 2.837 10.59 3.351 15.423 3.353 31.561 0 20.934-1.857 32.705-7.847 49.632-11.13 31.452-36.402 54.673-71.483 65.678-17.832 5.594-33.992 7.679-69.113 8.916l-33.598 1.651c-1.033 1.033 20.071 42.387 43.411 85.067 74.229 135.737 100.216 200.98 102.233 256.667.649 17.92.414 21.147-2.259 31.033-6.474 23.938-20.343 37.524-45.823 44.886L942.368 1020H820.586 698.804l-10.402-3.286c-19.594-6.19-35.042-18.22-48.661-37.894-6.798-9.82-22.902-36.74-51.506-86.1-8.304-14.329-15.504-26.046-16-26.037-1.368.025-4.67 5.466-29.572 48.733-44.877 77.974-56.671 91.696-87.065 101.297L445.196 1020l-121.598-.069c-120.814-.069-121.671-.088-132.931-3zm256.234-40.479c14.837-6.857 24.58-20.217 61.106-83.785 27.092-47.15 37.845-63.863 47.917-74.471 8.654-9.114 13.669-12.088 18.39-10.903 5.682 1.426 18.615 15.125 28.906 30.617 5.392 8.116 20.15 32.757 32.797 54.757 36.652 63.758 46.257 76.934 61.081 83.785 6.21 2.87 6.675 2.883 117.568 3.258l120.444-1.029c23.802-3.675 29.792-14.536 25.636-46.481-6.546-50.308-29.149-103.733-95.435-225.567-37.608-69.124-49.266-93.537-54.034-113.152-4.183-17.209-.52-25.497 13.601-30.781 9.306-3.482 24.465-5.039 58.455-6.004 54.668-1.552 77.666-8.023 95.226-26.795 13.642-14.583 19.198-30.865 19.306-56.569.056-13.287-.41-16.685-3.489-25.462-12.275-34.993-47.226-66.977-105.778-96.8-36.34-18.509-60.763-28.312-128.922-51.744-24.012-8.255-45.104-15.957-46.872-17.115-2.92-1.913-3.289-3.297-4.044-15.159-3.135-49.272-9.413-78.813-22.275-104.819-12.232-24.732-30.072-43.235-52.741-54.7-17.071-8.634-45.711-13.771-69.607-12.486-36.733 1.976-63.604 13.308-84.869 35.791-26.646 28.173-39.114 64.803-43.281 127.16-1.229 18.388-1.782 21.635-4.005 23.519-2.862 2.425-6.591 3.807-57.316 21.243-99.029 34.039-158.022 64.1-194.439 99.08-9.707 9.324-21.922 25.719-26.675 35.803-10.994 23.324-10.588 52.631 1.057 76.421 9.815 20.05 27.356 32.512 53.56 38.051 8.559 1.809 22.159 3.055 43.163 3.955 57.348 2.456 67.885 4.173 77.686 12.658 4.948 4.284 4.98 4.376 4.822 14.125-.294 18.177-11.606 43.637-53.829 121.146-50.162 92.084-68.975 131.263-83.551 174-9.784 28.686-16.159 62.423-14.361 76 2.113 15.956 8.96 21.981 28.566 25.136 1.833.295 54.333.46 116.667.367 113.159-.169 113.343-.174 119.568-3.051z" fill="#010101"/></svg>