<svg xmlns="http://www.w3.org/2000/svg" width="150.308" height="150.017" viewBox="0 0 39.769 39.692" xmlns:v="https://vecta.io/nano"><path d="M18.561 39.672c-.014-.015-.262-.028-.55-.03s-.543-.018-.567-.037-.261-.065-.529-.103a19.88 19.88 0 0 1-9.842-4.421c-.21-.176-.702-.635-1.094-1.02a18.37 18.37 0 0 1-2.674-3.24C1.459 28.037.406 25.139.057 21.889c-.086-.798-.072-3.481.022-4.254a19.32 19.32 0 0 1 1.915-6.498c1.988-4.034 5.103-7.15 9.142-9.143A19.52 19.52 0 0 1 17.825.058c.804-.086 3.525-.073 4.297.022 4.03.492 7.531 2.019 10.686 4.662 2.361 1.978 4.424 4.875 5.614 7.883a19.48 19.48 0 0 1 1.25 5.053 23.63 23.63 0 0 1-.049 4.762c-.555 4.351-2.66 8.515-5.907 11.684-.981.958-1.754 1.581-2.877 2.319-2.652 1.744-5.455 2.76-8.675 3.146-.581.07-3.55.138-3.603.083z" fill="#c6c7c9"/><path d="M18.557 39.668c-.012-.012-.258-.024-.547-.026s-.543-.018-.567-.037-.261-.065-.529-.103c-.782-.112-1.874-.345-2.603-.557l-.751-.218c-.132-.038-.08-.078.233-.177 1.986-.629 3.858-1.783 4.972-3.065.182-.209.797-.827 1.368-1.373 1.207-1.155 1.681-1.661 2.208-2.356.505-.667.497-.644.358-.953-.062-.139-.135-.401-.161-.583-.063-.434.022-.875.257-1.338l.167-.33-.201-.201c-.406-.406-.548-.805-.467-1.312.07-.438.354-.772.854-1.004.346-.161 1.389-.375 2.286-.469.479-.05.611-.078.644-.136.089-.155.456-1.116.634-1.66.17-.521.356-1.271.426-1.722l.028-.177-.204-.026c-1.118-.144-1.476-.222-2.681-.591-.879-.269-1.258-.423-1.503-.609-.536-.408-.496-.931.152-1.942.565-.883 1.363-2.656 1.711-3.804.193-.636.47-2.119.505-2.698l.027-.456-.342-.596c-.915-1.594-1.975-2.986-3.237-4.249-1.209-1.21-2.624-2.21-4.551-3.218l-4.189-2.396c-.003-.045.902-.367 1.58-.563a19.26 19.26 0 0 1 3.159-.639c.76-.094 2.994-.132 3.841-.065a19 19 0 0 1 7.251 2.018c4.483 2.229 7.909 5.97 9.749 10.645 1.846 4.692 1.779 10.19-.181 14.772-1.963 4.588-5.37 8.196-9.716 10.288-2.272 1.094-4.529 1.702-7.065 1.903-.561.045-2.872.061-2.913.021zm-.596-.979c.205-.131.42-.287.478-.345s.186-.142.284-.186.19-.098.204-.121.086-.041.16-.041.192-.035.262-.077.192-.1.272-.127c.172-.059.531-.278.681-.415.059-.053.329-.211.602-.35a9.13 9.13 0 0 0 .655-.361c.088-.06.175-.108.194-.108s.143-.073.276-.162.355-.22.495-.292c.515-.263.935-.486 1.067-.568.099-.061.207-.083.402-.081l.535.005c.213.002.301-.018.423-.097.28-.18.634-.33.777-.33s.311-.089.404-.218c.03-.041.179-.135.331-.211a2.6 2.6 0 0 0 .518-.361c.132-.123.264-.225.293-.226s.053-.02.053-.044.029-.042.063-.042.064-.014.064-.032.081-.069.18-.115c.464-.216 1.2-.762 1.661-1.232.533-.544.601-.619.742-.823.101-.145.329-.394.887-.966.385-.395.626-.782.681-1.091.024-.137.103-.431.175-.652a6.19 6.19 0 0 0 .184-.72l.121-.673c.051-.271.056-.369.018-.414s-.029-.1.042-.242c.05-.1.103-.247.117-.326s.064-.258.111-.398c.079-.234.085-.347.078-1.439-.008-1.1-.014-1.19-.088-1.259a.56.56 0 0 1-.096-.5c.034-.09.027-.134-.035-.214-.043-.056-.078-.121-.079-.146s-.113-.21-.251-.411c-.235-.344-.973-1.131-1.06-1.131-.022 0-.095-.059-.161-.13l-.122-.13-.049.162a1.35 1.35 0 0 1-.574.686c-.258.133-.815.17-1.159.077l-.222-.06v.59c0 .537-.015.659-.172 1.35-.197.87-.399 1.627-.618 2.314-.117.366-.169.475-.221.467-.038-.006-.164.027-.28.072-.271.106-.831.105-1.482-.003-.265-.044-.694-.079-.995-.08-.457-.002-.556.01-.727.089-.423.196-.806.681-.717.91s.469.447.89.506c.58.081.927.268 1.149.619.151.238.163.461.036.687-.159.283-.427.367-.747.233-.15-.063-.159-.061-.227.029s-.083.091-.244.043c-.185-.055-.259-.147-.259-.321 0-.134-.077-.139-.232-.017-.245.193-.302.61-.143 1.037.075.2.164.315.506.649.525.514.546.566.413 1.004-.086.283-.474.389-.805.22l-.173-.088-.238.229-3.73 3.566c-1.032.984-2.155 1.83-3.229 2.434-.226.127-.411.244-.411.258 0 .07 1.127.329 1.618.372.04.003.24-.101.444-.233zm12.821-18.515c.058-.134.057-.164-.003-.296a2.07 2.07 0 0 0-.171-.291 1.18 1.18 0 0 1-.151-.317c-.061-.223-.017-.823.074-1.013.066-.138.064-.152-.038-.356-.091-.181-.229-.668-.306-1.077-.012-.062-.048-.14-.08-.172s-.101-.143-.154-.246a1.32 1.32 0 0 0-.122-.209c-.043-.034-.343-.539-.344-.578 0-.02-.048-.081-.106-.136s-.105-.117-.105-.138-.02-.038-.044-.038-.088-.048-.142-.106c-.126-.136-.151-.133-.292.027l-.116.133.082.174a1.49 1.49 0 0 1 .106.322l.076.458c.04.241.04.317.001.341s-.044.227-.022.833l.029.802.325.158c.252.123.395.231.64.488.48.503.707.973.717 1.49l.004.192.04-.148a2.65 2.65 0 0 1 .104-.297zm-4.586.017c.239-.024.243-.026.212-.137-.049-.179-.024-.378.065-.504s.081-.222-.016-.222a.06.06 0 0 1-.06-.06c0-.041-.094-.075-.307-.108-.377-.06-.531-.117-.584-.216-.102-.19.004-.674.147-.674.056 0 .184-.135.32-.337.132-.196.262-.307.404-.347.081-.022.147-.068.147-.102s.028-.062.062-.062.082-.037.106-.081a.77.77 0 0 1 .112-.15c.1-.1.141-.329.143-.788.001-.328.022-.465.112-.72.086-.243.119-.438.144-.865.043-.72.058-.775.225-.806.13-.024.133-.03.119-.23-.02-.29.17-.707.34-.744.065-.014.119-.053.119-.086s.076-.136.169-.229c.16-.16.184-.169.422-.169.22 0 .271.016.398.127.08.07.157.173.171.228.02.079.103.134.375.247.495.207.886.297 1.302.299.8.004 1.415-.329 2.322-1.258.241-.247.464-.449.495-.449.075 0 .12-.246.086-.475l-.061-.459c-.019-.153-.074-.353-.123-.444s-.149-.296-.223-.454c-.078-.166-.182-.318-.247-.359a.85.85 0 0 1-.133-.098c-.034-.043-.345-.191-.519-.248-.087-.028-.159-.066-.159-.085s-.1-.053-.222-.078c-.177-.035-.236-.032-.287.014-.128.115-.381.188-.648.188a4.77 4.77 0 0 0-.647.064c-.802.137-1.272.339-1.72.741-.232.208-.242.225-.218.378.028.176-.047.364-.203.51-.07.065-.149.086-.328.086-.338 0-.553-.073-.71-.239-.24-.255-.229-.5.043-.951l.137-.228-.433.012c-.381.011-.442.003-.509-.069-.174-.185-.297-.333-.395-.472-.057-.081-.132-.178-.167-.216-.071-.076-.209-.241-.403-.481a7.53 7.53 0 0 0-.339-.379 6.84 6.84 0 0 1-.339-.382 8.7 8.7 0 0 0-.708-.721c-.066-.059-.079-.117-.068-.294.01-.161-.007-.252-.063-.339-.043-.065-.088-.22-.101-.344-.02-.19-.008-.247.075-.367.054-.078.111-.151.127-.162s.041-.326.057-.698c.027-.637.023-.685-.058-.804a.5.5 0 0 1-.087-.216c0-.049-.057-.161-.127-.249s-.127-.186-.127-.219-.029-.07-.063-.083-.063-.051-.063-.083-.019-.059-.042-.059-.042-.038-.042-.085-.019-.085-.042-.085-.042-.026-.042-.058-.025-.079-.057-.105-.099-.128-.151-.227c-.115-.22-.36-.398-.629-.458-.11-.025-.345-.139-.521-.254s-.348-.21-.382-.21-.128-.044-.209-.099c-.167-.112-.384-.178-.853-.26a4.82 4.82 0 0 1-.466-.102c-.078-.025-.212-.056-.3-.069s-.159-.043-.159-.065-.054-.04-.121-.04c-.075 0-.192-.057-.307-.148-.102-.081-.21-.148-.239-.148s-.053-.021-.053-.045c0-.111-2.109.18-3.111.429-.566.141-1.249.344-1.249.373 0 .015.119.072.265.128.381.146.7.311 1.301.674 1.24.748 2.561 1.622 4.03 2.665l1.129.792c.531.366 1.225 1.012 1.935 1.801.879.977 2.661 3.283 2.879 3.725l.152.305c.115.229.099.429-.108 1.346-.426 1.891-.963 3.677-1.48 4.922a20.7 20.7 0 0 1-.937 1.874c-.107.181-.189.369-.182.417.03.206.476.281 1.515.254a20.89 20.89 0 0 0 .984-.043zm3.787-7.892c-.664-.36-.871-1.178-.441-1.74.362-.473 1.433-.788 1.811-.533a1.38 1.38 0 0 1 .508.743c.06.289-.009.719-.155.97-.091.156-.163.208-.558.399-.376.182-.5.222-.729.234-.217.011-.309-.004-.436-.073z" fill="#b3b4b4"/><path d="M18.163 39.644c-.993-.081-2.192-.274-3.129-.504l-1.548-.464c0-.015.138-.071.307-.125 1.986-.629 3.858-1.783 4.972-3.065.182-.209.797-.827 1.368-1.373 1.207-1.155 1.681-1.661 2.208-2.356.505-.667.497-.644.358-.953-.062-.139-.135-.401-.161-.583-.063-.434.022-.875.257-1.338l.167-.33-.201-.201c-.406-.406-.548-.805-.467-1.312.07-.438.354-.772.854-1.004.346-.161 1.389-.375 2.286-.469.479-.05.611-.078.644-.136.089-.155.456-1.116.634-1.66.17-.521.356-1.271.426-1.722l.028-.177-.204-.026c-1.118-.144-1.476-.222-2.681-.591-.879-.269-1.258-.423-1.503-.609-.536-.408-.496-.931.152-1.942.565-.883 1.363-2.656 1.711-3.804.193-.636.47-2.119.505-2.698l.027-.456-.342-.596c-.915-1.594-1.975-2.986-3.237-4.249-1.209-1.21-2.624-2.21-4.551-3.218l-4.189-2.396c-.003-.045.902-.367 1.58-.563a19.26 19.26 0 0 1 3.159-.639c.76-.094 2.994-.132 3.841-.065a19 19 0 0 1 7.251 2.018c4.483 2.229 7.909 5.97 9.749 10.645 1.846 4.692 1.779 10.19-.181 14.772-1.963 4.588-5.37 8.196-9.716 10.288-2.272 1.094-4.529 1.702-7.065 1.903-.628.05-2.681.048-3.306-.003zm2.201-.779a14.1 14.1 0 0 0 1.996-.362c1.373-.336 2.64-.753 2.64-.869 0-.033.029-.06.065-.06s.077-.033.093-.074c.04-.107.096-.152.287-.236a4.51 4.51 0 0 0 .238-.112 1.54 1.54 0 0 1 .243-.084c.096-.026.175-.065.175-.088s.029-.041.063-.041.063-.019.063-.042.048-.053.106-.068.106-.043.106-.062.067-.048.148-.064.148-.045.148-.065.029-.038.063-.038.063-.029.063-.063.02-.063.044-.063.067-.019.095-.043c.185-.155.387-.296.424-.296.024 0 .134-.095.245-.212s.222-.212.248-.212.058-.029.072-.063.051-.063.083-.063.059-.019.059-.042.029-.042.063-.042.063-.019.063-.042.029-.042.063-.042.063-.019.063-.042.029-.042.063-.042.063-.029.063-.063.029-.063.063-.063.063-.019.063-.042.029-.042.063-.042.063-.029.063-.063.029-.063.063-.063.063-.019.063-.042.029-.042.063-.042.063-.029.063-.063.029-.063.063-.063.063-.029.063-.063.029-.063.063-.063.063-.029.063-.063.029-.063.063-.063.063-.029.063-.063.029-.063.063-.063.063-.019.063-.042.029-.042.063-.042.063-.029.063-.063.022-.063.049-.063.241-.195.476-.434a9.07 9.07 0 0 1 .702-.646c.455-.351.749-.692.955-1.106.103-.207.246-.48.319-.609l.236-.423c.057-.105.145-.238.197-.296a1.22 1.22 0 0 0 .161-.254 6.24 6.24 0 0 1 .536-1.001c.075-.117.137-.227.137-.243s.067-.129.148-.25.148-.244.148-.274.018-.053.039-.053.052-.057.067-.127.044-.127.063-.127.048-.057.063-.127.044-.127.063-.127.048-.057.063-.127.043-.127.061-.127.057-.091.086-.201.079-.261.111-.334.059-.152.059-.175.028-.096.063-.163.063-.151.063-.187.018-.084.04-.106c.062-.063.215-.713.215-.915.001-.254.036-.363.126-.386.064-.017.081-.085.106-.42a24.14 24.14 0 0 0-.147-2.796c-.103-.58-.129-.753-.169-1.132-.045-.427-.097-.604-.215-.741-.071-.082-.423-1.562-.484-2.032-.015-.116-.067-.364-.115-.55-.103-.397-.118-1.209-.035-1.905.028-.233.059-.86.07-1.393l.02-.97-.139.112c-.626.502-1.383.819-2.491 1.045-.64.13-1.081.102-1.766-.113-.424-.133-.812-.375-1.183-.738-.447-.438-.492-.7-.175-1.018.153-.153.179-.164.416-.164.22 0 .271.016.398.127.08.07.157.173.171.228.02.079.103.134.375.247.495.207.886.297 1.302.299.777.004 1.432-.34 2.247-1.183.532-.55.503-.531.864-.566.176-.017.327-.039.335-.047s-.01-.292-.039-.63c-.058-.657-.137-1.101-.196-1.101-.02 0-.036-.029-.036-.064s-.014-.064-.032-.064-.098-.103-.18-.228c-.099-.152-.201-.252-.307-.299-.087-.039-.18-.113-.207-.163-.066-.129-.37-.41-.442-.41-.033 0-.06-.031-.06-.068 0-.045-.023-.059-.067-.042-.037.014-.237.026-.444.026h-.378v.139c0 .302-.296.494-.767.495-.154.001-.449.03-.656.065-.802.137-1.272.339-1.72.741-.234.209-.242.225-.217.38.03.19-.1.466-.262.552-.13.069-.632.033-.809-.058-.17-.088-.308-.281-.339-.474-.019-.119.009-.217.135-.471s.259-.425.618-.795l.459-.474-.102-.151c-.097-.142-.113-.149-.29-.13-.103.012-.256-.001-.34-.029-.199-.066-.458-.364-.581-.669-.054-.133-.151-.345-.216-.469s-.119-.248-.119-.275-.048-.142-.106-.257-.106-.226-.106-.248-.027-.099-.061-.173-.129-.399-.212-.724-.173-.604-.199-.62c-.035-.022-.042-.218-.025-.702.026-.736 0-.884-.195-1.115-.061-.073-.112-.171-.112-.218s-.038-.134-.085-.193-.085-.136-.085-.17c0-.14-.548-.688-.688-.688-.094 0-.279-.159-.391-.337-.055-.087-.158-.181-.229-.211s-.14-.087-.153-.127c-.042-.132-.884-.326-2.583-.597-1.418-.226-2.774-.18-4.593.155-.822.151-2.159.499-2.159.562 0 .015.119.072.265.128.381.146.7.311 1.301.674 1.24.748 2.561 1.622 4.03 2.665l1.129.792c.531.366 1.225 1.012 1.935 1.801.879.977 2.661 3.283 2.879 3.725l.152.305c.115.229.099.429-.108 1.346-.426 1.891-.963 3.677-1.48 4.922a20.7 20.7 0 0 1-.937 1.874c-.214.363-.226.478-.057.559.274.131 1.32.162 2.353.07.263-.023.264-.024.233-.137a.55.55 0 0 1 .348-.708c.283-.108.418-.063.681.227.122.135.334.329.469.431l.48.362c.488.371.771.446.928.247.11-.14.187-.418.153-.553-.047-.189-.348-.464-.631-.577-.299-.12-.832-.239-1.073-.241-.208-.001-.482-.127-.598-.275-.069-.087-.092-.175-.092-.347 0-.417.148-.529.693-.525.911.007 1.618.284 2.155.846.487.509.708.982.708 1.512 0 .517-.306 1.083-.693 1.282-.258.133-.815.17-1.159.077l-.222-.06v.59c0 .537-.015.659-.172 1.35-.197.87-.399 1.627-.618 2.314-.117.366-.169.475-.221.467-.038-.006-.164.027-.28.072-.271.106-.831.105-1.482-.003-.265-.044-.694-.079-.995-.08-.457-.002-.556.01-.727.089-.423.196-.806.681-.717.91s.469.447.89.506c.58.081.927.268 1.149.619a.62.62 0 0 1 .034.69c-.191.34-.515.378-.954.113-.372-.224-.543-.274-.679-.198-.303.172-.395.616-.222 1.076.079.21.164.319.51.658.525.514.546.566.413 1.004-.086.283-.474.389-.805.22l-.173-.088-.238.229-3.73 3.566c-1.032.984-2.155 1.83-3.229 2.434-.226.127-.411.244-.411.258 0 .081 1.093.321 1.722.377.567.051 2.074.017 2.745-.063zm9.618-26.566c-.664-.36-.871-1.178-.441-1.74.362-.473 1.433-.788 1.811-.533a1.38 1.38 0 0 1 .508.743c.06.289-.009.719-.155.97-.091.156-.163.208-.558.399-.376.182-.5.222-.729.234-.217.011-.309-.004-.436-.073zm4.86-.083c.014-.023-.004-.042-.04-.042s-.066.019-.066.042.018.042.04.042.052-.019.066-.042z" fill="#9a9a9a"/><path d="M18.163 39.644c-.993-.081-2.192-.274-3.129-.504l-1.548-.464c0-.015.138-.071.307-.125 1.986-.629 3.858-1.783 4.972-3.065.182-.209.797-.827 1.368-1.373 1.207-1.155 1.681-1.661 2.208-2.356.505-.667.497-.644.358-.953-.062-.139-.135-.401-.161-.583-.063-.434.022-.875.257-1.338l.167-.33-.201-.201c-.406-.406-.548-.805-.467-1.312.07-.438.354-.772.854-1.004.346-.161 1.389-.375 2.286-.469.479-.05.611-.078.644-.136.089-.155.456-1.116.634-1.66.17-.521.356-1.271.426-1.722l.028-.177-.204-.026c-1.118-.144-1.476-.222-2.681-.591-.879-.269-1.258-.423-1.503-.609-.536-.408-.496-.931.152-1.942.565-.883 1.363-2.656 1.711-3.804.193-.636.47-2.119.505-2.698l.027-.456-.342-.596c-.915-1.594-1.975-2.986-3.237-4.249-1.209-1.21-2.624-2.21-4.551-3.218l-4.189-2.396c-.003-.045.902-.367 1.58-.563a19.26 19.26 0 0 1 3.159-.639c.76-.094 2.994-.132 3.841-.065a19 19 0 0 1 7.251 2.018c4.483 2.229 7.909 5.97 9.749 10.645 1.846 4.692 1.779 10.19-.181 14.772-1.963 4.588-5.37 8.196-9.716 10.288-2.272 1.094-4.529 1.702-7.065 1.903-.628.05-2.681.048-3.306-.003zm1.503-.717c1.245-.088 2.261-.278 3.741-.702 1.263-.362 2.313-.786 3.879-1.567 2.017-1.006 2.834-1.577 4.868-3.404 1.54-1.383 2.405-2.303 3.231-3.437 1.992-2.735 3.039-6.482 2.825-10.107-.159-2.699-.798-5.182-2.153-8.361-.361-.848-1.317-2.808-1.465-3.006a3.54 3.54 0 0 1-.248-.444c-.195-.408-.678-.992-1.489-1.8-.726-.723-1.293-1.206-2.153-1.831-.532-.387-.777-.524-2.23-1.251-2.502-1.251-3.398-1.618-4.828-1.977-.999-.25-2.359-.482-3.234-.551-1.065-.084-3.072.128-4.449.471-.566.141-1.249.344-1.249.373 0 .015.119.072.265.128.381.146.7.311 1.301.674 1.24.748 2.561 1.622 4.03 2.665l1.129.792c.531.366 1.225 1.012 1.935 1.801.879.977 2.661 3.283 2.879 3.725l.152.305c.115.229.099.429-.108 1.346-.426 1.891-.963 3.677-1.48 4.922a20.7 20.7 0 0 1-.937 1.874c-.214.363-.226.478-.057.559.274.131 1.32.162 2.353.07.263-.023.264-.024.233-.137a.55.55 0 0 1 .348-.708c.283-.108.418-.063.681.227.122.135.334.329.469.431l.48.362c.488.371.771.446.928.247.11-.14.187-.418.153-.553-.047-.189-.348-.464-.631-.577-.299-.12-.832-.239-1.073-.241-.208-.001-.482-.127-.598-.275-.069-.087-.092-.175-.092-.347 0-.417.148-.529.693-.525.911.007 1.618.284 2.155.846.487.509.708.982.708 1.512 0 .517-.306 1.083-.693 1.282-.258.133-.815.17-1.159.077l-.222-.06v.59c0 .537-.015.659-.172 1.35-.197.87-.399 1.627-.618 2.314-.117.366-.169.475-.221.467-.038-.006-.164.027-.28.072-.271.106-.831.105-1.482-.003-.265-.044-.694-.079-.995-.08-.457-.002-.556.01-.727.089-.423.196-.806.681-.717.91s.469.447.89.506c.58.081.927.268 1.149.619a.62.62 0 0 1 .034.69c-.191.34-.515.378-.954.113-.372-.224-.543-.274-.679-.198-.303.172-.395.616-.222 1.076.079.21.164.319.51.658.525.514.546.566.413 1.004-.086.283-.474.389-.805.22l-.173-.088-.238.229-3.73 3.566c-1.032.984-2.155 1.83-3.229 2.434-.226.127-.411.244-.411.258 0 .037.536.189.96.272.705.139 1.764.178 2.808.104zm10.456-24.3c-.714-.125-1.271-.405-1.766-.891-.447-.438-.492-.7-.175-1.018.153-.153.179-.164.416-.164.22 0 .271.016.398.127.08.07.157.173.171.228.02.079.103.134.375.247.495.207.886.297 1.302.299.795.004 1.421-.333 2.304-1.24.231-.237.466-.449.521-.47.386-.147.775.158.772.605-.003.539-.5 1.184-1.227 1.592-.863.484-2.347.813-3.09.683zm-.14-2.327c-.664-.36-.871-1.178-.441-1.74.362-.473 1.433-.788 1.811-.533a1.38 1.38 0 0 1 .508.743c.06.289-.009.719-.155.97-.091.156-.163.208-.558.399-.376.182-.5.222-.729.234-.217.011-.309-.004-.436-.073zm-2.422-1.332c-.203-.071-.392-.282-.428-.476-.06-.319.253-.827.885-1.436.348-.335.516-.461.827-.622.728-.376 1.618-.522 2.375-.39.22.038.426.092.458.118.199.165.286.642.153.833-.11.157-.381.257-.698.258-.154.001-.449.03-.656.065-.802.137-1.272.339-1.72.741-.232.208-.242.225-.218.378.028.176-.047.364-.203.51-.112.104-.509.116-.775.023z" fill="#221e1f"/></svg>