<svg xmlns="http://www.w3.org/2000/svg" width="150.308" height="149.975" viewBox="0 0 39.769 39.681" xmlns:v="https://vecta.io/nano"><path d="M18.417 39.664l-2.043-.25c-2.965-.502-6.004-1.819-8.458-3.664-.722-.543-1.167-.931-1.938-1.688a18.37 18.37 0 0 1-2.674-3.24C1.459 28.037.406 25.139.057 21.889c-.086-.798-.072-3.481.022-4.254a19.32 19.32 0 0 1 1.915-6.498c1.988-4.034 5.103-7.15 9.142-9.143A19.52 19.52 0 0 1 17.825.058c.804-.086 3.525-.073 4.297.022 4.03.492 7.531 2.019 10.686 4.662 2.361 1.978 4.424 4.875 5.614 7.883a19.48 19.48 0 0 1 1.25 5.053 23.63 23.63 0 0 1-.049 4.762c-.555 4.351-2.66 8.515-5.907 11.684-.981.958-1.754 1.581-2.877 2.319-2.652 1.744-5.455 2.76-8.675 3.146-.54.065-3.288.12-3.746.075zm4.127-.444c1.121-.084 2.128-.272 3.039-.566.831-.269 2.38-.947 2.38-1.042 0-.056-1.224-5.849-1.239-5.862-.005-.005-.219.094-.476.219a13.46 13.46 0 0 1-5.281 1.395l-.497.028-.001.218c-.001.435.13 5.011.154 5.355l.024.354.663-.027c.364-.015.92-.047 1.234-.07zm-9.087-4.208l1.249-2.667-.134-.062c-.944-.433-1.758-.889-2.237-1.253-.136-.104-.265-.188-.286-.188-.048 0-3.898 4.346-3.898 4.4s1.308.982 1.884 1.338c.391.242 2.138 1.134 2.165 1.106.005-.005.571-1.209 1.257-2.675zm22.021-3.429c.717-.897 1.19-1.644 1.758-2.778l.292-.583-.158-.088-2.358-1.308-2.2-1.219-.266.537c-.146.296-.505.897-.796 1.336l-.531.798.858.869 2.963 2.954c.017-.006.214-.239.437-.519zM5.187 27.56l2.651-.942c.036-.021-.029-.174-.22-.516-.935-1.681-1.548-3.697-1.69-5.556-.018-.238-.046-.37-.077-.369s-1.211.178-2.631.393l-2.582.391.012.38a21.38 21.38 0 0 0 .456 3.438c.13.554.443 1.513.674 2.064.235.562.748 1.63.782 1.63.015 0 1.196-.411 2.626-.913zm.805-4.464c0-.023.019-.042.042-.042s.042.019.042.042-.019.042-.042.042-.042-.019-.042-.042zm29.464-3.152c1.644-.13 2.994-.199 3.372-.173.215.015.398.011.411-.01.039-.063-.051-2.326-.122-3.088-.116-1.245-.243-1.871-.572-2.825-.171-.497-.59-1.471-.693-1.611-.049-.066-.213-.036-2.145.402-1.151.261-2.105.495-2.121.52s-.142.055-.279.065l-.251.018.244.535a12.25 12.25 0 0 1 .928 3.175c.118.772.234 2.116.227 2.62l-.006.434h.112c.062 0 .465-.028.895-.062zM6.839 13.978c0-.096.207-.534.253-.534.023 0 .136-.187.251-.416.196-.391.594-1.072.952-1.629.087-.135.152-.262.144-.282s-.899-.744-1.981-1.61L4.492 7.933l-.099.12c-.67.809-1.106 1.452-1.455 2.146-.284.565-.74 1.581-.778 1.735-.024.097.057.136 2.295 1.099l2.353 1.001c.017.002.032-.023.032-.055zm23.906-7.353l1.406-1.796-.216-.191c-.757-.667-1.585-1.252-2.401-1.695-.544-.296-1.447-.727-1.471-.704-.018.018-.318.839-.713 1.954l-.569 1.587-.298.852c0 .015.433.295.963.623s1.154.727 1.386.889.442.29.466.285.675-.817 1.448-1.805zm-16.241-.293c1.697-.697 3.641-1.1 5.321-1.101.332 0 .603-.007.603-.016S20.2 4.147 19.92 2.86L19.412.488c0-.018.077-.046.172-.062.359-.061.101-.068-.751-.022-1.931.105-3.444.395-4.994.956-1.013.367-2.196.917-2.164 1.005l.795 2.301.777 2.251.374-.188a15.76 15.76 0 0 1 .881-.396z" fill="#fab260"/><path d="M18.417 39.664l-2.043-.25c-2.965-.502-6.004-1.819-8.458-3.664-.722-.543-1.167-.931-1.938-1.688a18.37 18.37 0 0 1-2.674-3.24C1.459 28.037.406 25.139.057 21.889c-.086-.798-.072-3.481.022-4.254a19.32 19.32 0 0 1 1.915-6.498c1.988-4.034 5.103-7.15 9.142-9.143A19.52 19.52 0 0 1 17.825.058c.804-.086 3.525-.073 4.297.022 4.03.492 7.531 2.019 10.686 4.662 2.361 1.978 4.424 4.875 5.614 7.883a19.48 19.48 0 0 1 1.25 5.053 23.63 23.63 0 0 1-.049 4.762c-.555 4.351-2.66 8.515-5.907 11.684-.981.958-1.754 1.581-2.877 2.319-2.652 1.744-5.455 2.76-8.675 3.146-.54.065-3.288.12-3.746.075zm1.291-2.011v-1.657l-.196.022c-.108.012-.211.047-.23.078-.048.077-.538.08-.585.003-.043-.069-.782-.185-1.253-.197-.186-.005-.409-.032-.495-.06s-.343-.067-.571-.085c-.297-.024-.463-.059-.583-.124-.093-.05-.211-.091-.262-.091s-.105-.019-.12-.042-.081-.042-.148-.042-.134-.019-.148-.042-.063-.042-.108-.042-.082-.019-.082-.042-.052-.054-.116-.069a1.11 1.11 0 0 1-.256-.111c-.077-.046-.148-.076-.158-.066-.03.03-1.292 3.009-1.28 3.02.006.006.27.097.587.202 1.834.611 3.785.95 5.742.996l.265.006zm2.836 1.568c1.121-.084 2.128-.272 3.039-.566.831-.269 2.38-.947 2.38-1.042 0-.056-1.224-5.849-1.239-5.862-.005-.005-.219.094-.476.219a13.46 13.46 0 0 1-5.281 1.395l-.497.028-.001.218c-.001.435.13 5.011.154 5.355l.024.354.663-.027c.364-.015.92-.047 1.234-.07zm-9.087-4.208l1.249-2.667-.134-.062c-.944-.433-1.758-.889-2.237-1.253-.136-.104-.265-.188-.286-.188-.048 0-3.898 4.346-3.898 4.4s1.308.982 1.884 1.338c.391.242 2.138 1.134 2.165 1.106.005-.005.571-1.209 1.257-2.675zm16.495 1.511c1.31-.759 2.631-1.791 3.825-2.986l.628-.629-.189-.196c-.104-.108-.584-.625-1.067-1.149l-.911-.965c-.019-.007-.055.012-.081.042-.172.203-.215.265-.215.317 0 .032-.076.136-.169.23s-.169.189-.169.21-.024.039-.053.04-.11.067-.179.148-.141.147-.158.147c-.032 0-.338.311-.647.655-.093.104-.193.19-.222.19s-.053.017-.053.036-.052.062-.116.095a1.13 1.13 0 0 0-.198.134c-.045.041-.107.074-.138.074s-.056.016-.056.036c0 .06-.141.194-.275.261-.07.035-.152.087-.183.116s-.083.053-.116.053-.06.018-.06.039-.057.052-.127.067-.127.046-.127.067-.1.105-.222.185c-.371.243-.401.279-.424.503-.018.17.036.401.314 1.355l.378 1.309.043.16.284-.156.686-.389zM8.638 33.45c.921-1.006.999-1.102.929-1.154-.042-.031-.105-.056-.14-.056s-.096-.03-.137-.067-.133-.099-.206-.138-.295-.223-.495-.409c-.77-.718-.88-.844-1.071-1.222-.101-.201-.201-.365-.221-.365s-.036-.04-.036-.089-.112-.218-.248-.377-.29-.373-.34-.478a1.47 1.47 0 0 0-.208-.311.86.86 0 0 1-.167-.293c-.028-.095-.095-.212-.147-.262l-.096-.09-1.503.631-1.539.644c-.07.026.711 1.273 1.238 1.979.563.753 1.139 1.399 2.109 2.366l1.036 1.033.118-.122c.065-.067.57-.616 1.123-1.22zm26.841-1.866c.717-.897 1.19-1.644 1.758-2.778l.292-.583-.158-.088-2.358-1.308-2.2-1.219-.266.537c-.146.296-.505.897-.796 1.336l-.531.798.858.869 2.963 2.954c.017-.006.214-.239.437-.519zM5.187 27.56l2.651-.942c.036-.021-.029-.174-.22-.516-.935-1.681-1.548-3.697-1.69-5.556-.018-.238-.046-.37-.077-.369s-1.211.178-2.631.393l-2.582.391.012.38a21.38 21.38 0 0 0 .456 3.438c.13.554.443 1.513.674 2.064.235.562.748 1.63.782 1.63.015 0 1.196-.411 2.626-.913zm.805-4.464c0-.023.019-.042.042-.042s.042.019.042.042-.019.042-.042.042-.042-.019-.042-.042zm31.919 4.22c0-.008.097-.27.215-.582.444-1.173.827-2.629 1.015-3.851.111-.724.209-1.64.209-1.963v-.25l-1.027.033-1.373.025-.347-.008-.113.223c-.09.178-.108.259-.088.404.014.099.008.191-.013.204s-.051.08-.066.15-.042.126-.06.126-.074.148-.125.328a3.3 3.3 0 0 1-.276.73c-.06.128-.14.337-.177.465s-.095.27-.128.316-.059.131-.059.188c0 .115-.141.435-.261.592a.42.42 0 0 0-.077.216c0 .063-.037.148-.082.189s-.094.13-.109.197-.042.123-.061.123-.046.048-.061.106-.045.106-.068.106-.042.024-.042.054-.038.082-.085.115-.084.081-.084.105.739.409 1.64.855c1.545.764 1.703.839 1.703.805zM9.76 24.848c0-.084.026-.212.058-.286s.081-.219.109-.324c.129-.478.325-.762.692-1 .088-.057.172-.133.185-.168.04-.103.301-.227.859-.405a3.37 3.37 0 0 1 1.213-.173c.401.008.435.002.54-.095.161-.149.159-.448-.002-.598-.112-.103-.124-.105-.582-.078-.29.017-.557.059-.701.11a3.44 3.44 0 0 1-.425.118c-.106.02-.258.075-.339.123a9.81 9.81 0 0 1-.315.179 2.23 2.23 0 0 0-.323.223c-.236.202-.357.297-.444.348-.223.13-.594.77-.696 1.203-.03.128-.071.254-.09.279s-.022.192-.007.37c.027.321.028.324.148.324.11 0 .121-.013.121-.152zm9.215-2.583c.086-.023.165-.133.125-.174-.01-.01-.11.03-.223.089-.17.088-.187.107-.099.108a.88.88 0 0 0 .198-.023zm.077-.608c-.092-.261-.093-1.884-.001-2.06.035-.067.063-.176.063-.243 0-.14.082-.451.134-.511.019-.022.035-.111.035-.199s.017-.169.037-.181.049-.095.063-.182.055-.214.09-.281a.59.59 0 0 0 .064-.161c0-.022.039-.12.087-.217.207-.421.343-1.126.269-1.387-.039-.136-.054-.112-.479.809-.494 1.069-.627 1.411-.795 2.037-.105.394-.117.507-.118 1.156s.008.743.093.952.462.707.504.665c.009-.009-.012-.098-.047-.198zm16.404-1.714c1.644-.13 2.994-.199 3.372-.173.215.015.398.011.411-.01.039-.063-.051-2.326-.122-3.088-.116-1.245-.243-1.871-.572-2.825-.171-.497-.59-1.471-.693-1.611-.049-.066-.213-.036-2.145.402-1.151.261-2.105.495-2.121.52s-.142.055-.279.065l-.251.018.244.535a12.25 12.25 0 0 1 .928 3.175c.118.772.234 2.116.227 2.62l-.006.434h.112c.062 0 .465-.028.895-.062zm-33.681-.086l1.332-.13.184-.024-.011-.6c-.011-.586.054-1.786.128-2.378.051-.409.123-.728.215-.952a1.88 1.88 0 0 0 .103-.387c.014-.108.065-.298.113-.423a6.21 6.21 0 0 0 .134-.386c.026-.087.079-.169.119-.182.103-.033.264-.313.195-.338-.344-.128-2.631-.906-2.639-.898a14.88 14.88 0 0 0-.204.574C.9 15.325.598 16.904.491 18.708l-.044 1.005c0 .227.008.249.091.249.05 0 .607-.048 1.238-.106zm5.063-5.879c0-.096.207-.534.253-.534.023 0 .136-.187.251-.416.196-.391.594-1.072.952-1.629.087-.135.152-.262.144-.282s-.899-.744-1.981-1.61L4.492 7.933l-.099.12c-.67.809-1.106 1.452-1.455 2.146-.284.565-.74 1.581-.778 1.735-.024.097.057.136 2.295 1.099l2.353 1.001c.017.002.032-.023.032-.055zm29.326-2.543c.611-.203 1.111-.389 1.111-.414 0-.066-.585-1.088-.94-1.642-.396-.619-.914-1.321-1.45-1.968-.445-.537-1.795-1.936-1.849-1.916-.018.006-.331.345-.696.752l-.77.854-.106.114.312-.008.312-.008.317.267c.416.35.473.401.561.498a3.48 3.48 0 0 0 .14.145c.036.035.141.144.233.243s.186.18.209.18.042.028.042.062.075.141.167.237c.121.128.202.275.294.542.221.638.261.736.346.844.045.058.083.13.083.159s.027.108.061.174c.253.499.405.93.405 1.148 0 .098.017.139.053.126a234.47 234.47 0 0 1 1.164-.389zM7.581 8.954a.88.88 0 0 1 .154-.215c.043-.038.078-.088.078-.113s.014-.051.032-.059c.029-.013.066-.083.292-.56.082-.173.19-.261.664-.54.159-.094.324-.202.366-.241.092-.085.268-.206.636-.44.151-.096.294-.196.317-.222s.127-.104.231-.172.234-.167.29-.219a2.84 2.84 0 0 1 .32-.231 3.75 3.75 0 0 0 .356-.255c.076-.065.186-.13.243-.144s.105-.043.105-.064.029-.038.063-.038.063-.007.063-.015c0-.032-1.094-2.617-1.118-2.641-.03-.03-.303.116-.951.507-1.341.809-2.487 1.714-3.611 2.853-.78.791-1.023 1.076-.965 1.134.024.024.543.465 1.153.98.836.706 1.121.925 1.158.888a1.05 1.05 0 0 0 .124-.195zm23.164-2.329l1.406-1.796-.216-.191c-.757-.667-1.585-1.252-2.401-1.695-.557-.303-1.447-.727-1.472-.702s-1.579 4.354-1.579 4.392c0 .015.433.295.963.623s1.154.727 1.386.889.442.29.466.285.675-.817 1.448-1.805zm-16.241-.293c1.697-.697 3.641-1.1 5.321-1.101.332 0 .603-.007.603-.016S20.2 4.147 19.92 2.86L19.412.488c0-.018.077-.046.172-.062.359-.061.101-.068-.751-.022-1.931.105-3.444.395-4.994.956-1.013.367-2.196.917-2.164 1.005l.795 2.301.777 2.251.374-.188a15.76 15.76 0 0 1 .881-.396zm12.181-2.53l.423-1.223.255-.726-.494-.191C24.975.932 23.11.533 20.904.388l-.349-.023v.12c0 .11.265 2.328.319 2.673l.024.15.792.009c.803.009 1.024.03 1.024.094 0 .02.057.048.127.063s.127.044.127.064.271.042.603.05c.471.011.635.03.747.088.079.041.197.074.262.074s.171.021.237.046a2.48 2.48 0 0 0 .373.087 1.21 1.21 0 0 1 .348.102.42.42 0 0 0 .192.061c.054 0 .14.029.191.066.12.084.385.182.504.185.08.003.113-.061.26-.494z" fill="#f68f1d"/><path d="M18.417 39.664l-2.043-.25c-2.965-.502-6.004-1.819-8.458-3.664-.722-.543-1.167-.931-1.938-1.688a18.37 18.37 0 0 1-2.674-3.24C1.459 28.037.406 25.139.057 21.889c-.086-.798-.072-3.481.022-4.254a19.32 19.32 0 0 1 1.915-6.498c1.988-4.034 5.103-7.15 9.142-9.143A19.52 19.52 0 0 1 17.825.058c.804-.086 3.525-.073 4.297.022 4.03.492 7.531 2.019 10.686 4.662 2.361 1.978 4.424 4.875 5.614 7.883a19.48 19.48 0 0 1 1.25 5.053 23.63 23.63 0 0 1-.049 4.762c-.555 4.351-2.66 8.515-5.907 11.684-.981.958-1.754 1.581-2.877 2.319-2.652 1.744-5.455 2.76-8.675 3.146-.54.065-3.288.12-3.746.075zm1.291-3.529v-3.174l-.095-.021a6.53 6.53 0 0 0-.582-.038c-.268-.01-.573-.04-.677-.067a4.58 4.58 0 0 0-.55-.084c-.198-.019-.412-.055-.476-.081s-.146-.035-.183-.021-.194-.014-.35-.062c-.776-.239-1.016-.305-1.112-.305s-.179.175-1.322 2.857l-1.239 2.913c-.016.041.165.117.647.274 1.882.614 3.719.93 5.674.976l.265.006zm2.836 3.085c1.121-.084 2.128-.272 3.039-.566.831-.269 2.38-.947 2.38-1.042 0-.056-1.224-5.849-1.239-5.862-.005-.005-.219.094-.476.219a13.46 13.46 0 0 1-5.281 1.395l-.497.028-.001.218c-.001.435.13 5.011.154 5.355l.024.354.663-.027c.364-.015.92-.047 1.234-.07zm-9.087-4.208l1.249-2.667-.134-.062c-.944-.433-1.758-.889-2.237-1.253-.136-.104-.265-.188-.286-.188-.048 0-3.898 4.346-3.898 4.4s1.308.982 1.884 1.338c.391.242 2.138 1.134 2.165 1.106.005-.005.571-1.209 1.257-2.675zm16.495 1.511c1.309-.759 2.631-1.791 3.823-2.985l.627-.628-.226-.24-1.997-2.155-1.792-1.916c-.012 0-.075.043-.14.095s-.2.143-.298.201-.305.232-.459.385c-.256.256-.583.549-.851.76l-.208.168c-.056.046-.117.084-.136.084s-.12.086-.225.19-.209.19-.232.19-.093.048-.157.107a.62.62 0 0 1-.208.13c-.059.015-.109.076-.138.172-.042.136.028.403.798 3.051l.844 2.919c0 .02.406-.201.974-.53zM9.779 32.208c1.331-1.452 2.123-2.286 2.154-2.266s.002-.03-.056-.103-.134-.135-.169-.137c-.187-.009-.863-.32-1.044-.481-.057-.051-.199-.183-.315-.293s-.271-.232-.345-.27c-.141-.073-.455-.377-.455-.441 0-.056-.504-.541-.59-.568-.04-.013-.099-.07-.129-.128s-.089-.115-.129-.128-.097-.08-.125-.149-.058-.126-.065-.126a859.87 859.87 0 0 0-5.514 2.307c-.021.018.404.725.724 1.206.736 1.105 1.389 1.879 2.642 3.128l1.036 1.033.138-.144a621.44 621.44 0 0 0 2.243-2.441zm10.526.388c.044-.053.115-.064.323-.051.257.016.266.013.266-.083a.45.45 0 0 1 .042-.179c.029-.053.028-.118-.003-.198a.56.56 0 0 1-.019-.256c.024-.127.04-.139.238-.165s.219-.042.299-.202c.129-.258.243-.365.389-.365.135 0 .282.103.282.197 0 .031.04.097.089.146.067.067.085.129.073.254l-.016.165h.409c.457 0 .461.003.461.306v.172l.181-.025c.424-.058 1.545-.446 2.327-.805l.328-.151v-.174c0-.096.032-.235.071-.309.059-.113.069-.25.062-.812-.006-.483-.025-.701-.066-.763-.031-.048-.098-.248-.149-.446s-.137-.454-.193-.571-.114-.258-.13-.314-.065-.141-.109-.189a.71.71 0 0 1-.125-.236l-.045-.15-.621.027c-.683.029-1.045.099-1.49.289-.322.137-.723.384-.696.428.01.015.137.053.283.084.212.045.294.086.407.207.124.133.139.173.122.331a.79.79 0 0 1-.092.29c-.064.097-.091.107-.227.082-.147-.027-.645-.056-2.251-.129-.384-.017-.729-.047-.766-.066s-.11-.151-.162-.293c-.088-.241-.09-.271-.032-.441l.062-.182-.281.098c-.323.112-.754.169-1.59.21-.334.016-.614.05-.648.077-.15.123-.236.229-.295.366-.107.244-.182.559-.182.767a2.8 2.8 0 0 1-.044.423 1.12 1.12 0 0 0 .004.461c.058.284.123.466.166.466.018 0 .055.056.083.124a.65.65 0 0 0 .132.197c.049.044.081.129.081.215s.021.142.056.142c.079 0 .309.216.341.32.044.142.275.22.75.253.242.017.536.064.652.106s.342.087.501.102c.316.029.494.116.494.24 0 .101.177.109.258.012zm15.174-1.012c.717-.897 1.19-1.644 1.758-2.778l.292-.583-.158-.088-2.358-1.308-2.2-1.219-.266.537c-.146.296-.505.897-.796 1.336l-.531.798.858.869 2.963 2.954c.017-.006.214-.239.437-.519zm-7.481-2.17c.132-.099.269-.194.304-.21a.76.76 0 0 0 .16-.126 1.13 1.13 0 0 1 .233-.167c.075-.039.183-.102.242-.142l.847-.565a2.84 2.84 0 0 0 .381-.322 2.99 2.99 0 0 1 .41-.341c.121-.08.239-.189.264-.242s.078-.097.119-.097.117-.065.168-.144l.093-.144-.195-.016c-.11-.009-.216.005-.243.033s-.114.082-.194.123-.156.089-.167.107-.164.1-.339.182c-.438.206-.899.257-1.584.172-.459-.057-.514-.073-.691-.209-.321-.245-.336-.232-.48.445a5.83 5.83 0 0 1-.108.42c-.032.103-.053.189-.048.192s.068.024.137.047c.115.038.13.063.155.273a8.09 8.09 0 0 1 .032.669l.004.437.13-.098.37-.279zm-1.008-.793c0-.035-.018-.063-.041-.063s-.03.029-.017.063.032.063.041.063.017-.029.017-.063zm-10.223-.148c.014-.023.007-.042-.016-.042s-.054.019-.068.042-.007.042.016.042.054-.019.068-.042zM5.187 27.56l2.651-.942c.036-.021-.029-.174-.22-.516-.935-1.681-1.548-3.697-1.69-5.556-.018-.238-.046-.37-.077-.369s-1.211.178-2.631.393l-2.582.391.012.38a21.38 21.38 0 0 0 .456 3.438c.13.554.443 1.513.674 2.064.235.562.748 1.63.782 1.63.015 0 1.196-.411 2.626-.913zm.805-4.464c0-.023.019-.042.042-.042s.042.019.042.042-.019.042-.042.042-.042-.019-.042-.042zm10.968 5.249c.079 0 .106-.046.056-.095-.032-.032-.188.101-.184.158.002.024.013.02.025-.009s.058-.053.103-.053zm-4.533-.124c.442-.073 1.101-.28 1.101-.346 0-.021.027-.038.06-.038s.066-.017.074-.038c.015-.041.827-.301.941-.301.039 0 .082-.029.095-.063s.05-.063.082-.063.127-.075.212-.167.193-.173.24-.18c.08-.012.217-.18.613-.75.185-.267.177-.254.347-.544.072-.123.13-.267.13-.32a.35.35 0 0 1 .062-.179c.034-.045.063-.16.063-.254.001-.138-.024-.196-.13-.296-.314-.299-.397-.767-.19-1.08.06-.09.109-.191.109-.224 0-.105-.22-.719-.279-.777a1.16 1.16 0 0 1-.131-.182c-.041-.069-.097-.125-.126-.125s-.065-.041-.081-.092-.074-.137-.13-.192-.101-.119-.101-.141-.02-.04-.044-.04-.088-.048-.142-.106-.12-.106-.146-.106-.048-.019-.048-.042-.027-.042-.059-.042-.118-.055-.19-.122-.198-.135-.28-.15-.149-.044-.149-.064-.095-.059-.212-.087-.212-.068-.212-.089-.046-.038-.103-.038-.156-.02-.221-.045a3.56 3.56 0 0 0-.449-.103c-.306-.053-.349-.052-.568.024-.13.045-.289.082-.352.082s-.196.029-.295.063a1.12 1.12 0 0 1-.287.063c-.178 0-.605.177-.672.278-.034.052-.107.106-.162.12s-.185.141-.301.298c-.148.202-.235.281-.332.302-.127.027-.723.599-1.116 1.07-.15.18-.154.192-.142.499.013.357-.047.588-.17.654-.057.03-.075.069-.055.116.016.039.046.233.067.432s.077.465.125.593.125.346.17.485.111.305.145.366a.49.49 0 0 1 .062.175c0 .035.052.121.116.192.179.199.306.363.306.398 0 .017.029.032.064.032s.063.019.063.042.025.042.056.042.082.048.113.106.082.106.113.106.056.019.056.042.029.042.063.042.063.015.063.034.098.069.218.112a1.03 1.03 0 0 1 .293.153.89.89 0 0 0 .216.138c.406.184.545.239.727.285.11.028.211.069.225.091s.076.03.137.015.216-.043.344-.064zm3.154.039c.014-.023.006-.042-.019-.042s-.045.019-.045.042.008.042.019.042.03-.019.045-.042zm2.375-.553c.222-.025.531-.079.686-.121.972-.262 1.625-.425 1.808-.449s.228-.014.337.071c.158.124.487.143.487.028 0-.14-.08-.278-.177-.304-.074-.02-.151-.137-.317-.482-.12-.251-.252-.551-.293-.667s-.09-.233-.11-.258-.059-.115-.088-.199c-.058-.168-.594-.749-.691-.749-.033 0-.061-.018-.061-.039 0-.064-.142-.075-.233-.019-.047.029-.218.083-.381.12s-.527.136-.81.219l-.513.151-.055.167c-.03.092-.07.176-.087.187-.044.027-.221.426-.28.632-.08.278-.181.732-.181.815 0 .043-.036.149-.081.236a1.47 1.47 0 0 0-.11.409l-.029.25.205.016a4.11 4.11 0 0 0 .972-.014zm4.642-.378c.58-.313 1.126-.457 1.878-.496.432-.022.469-.031.45-.103-.011-.043-.037-.079-.058-.079s-.037-.019-.037-.042c0-.043-.061-.125-.265-.354-.064-.072-.116-.155-.116-.185s-.029-.054-.063-.054-.063-.02-.063-.044-.066-.113-.147-.196-.171-.206-.201-.273-.068-.122-.086-.122-.032-.029-.032-.063-.017-.063-.038-.063-.158-.114-.304-.254-.292-.254-.324-.254-.142.021-.245.047c-.142.036-.199.076-.241.169-.03.067-.077.122-.104.122s-.062.057-.078.127-.045.127-.067.127-.039.024-.039.053-.025.101-.054.159c-.055.108-.089.216-.232.747-.061.226-.07.322-.037.381.025.043.058.225.074.404.026.292.056.416.1.416.008 0 .157-.076.329-.169zm15.314-.014c0-.008.097-.27.215-.582.444-1.173.827-2.629 1.015-3.851.111-.724.209-1.64.209-1.962v-.25l-1.154.027-2.561.055-1.408.028v.092c0 .108-.162.596-.289.869-.049.105-.136.371-.193.593-.138.529-.197.682-.402 1.043-.141.249-.186.388-.254.783-.046.264-.103.534-.129.6l-.046.119 2.466 1.222 2.529 1.215zm-8.784-1.698a6.56 6.56 0 0 1 .656-.089c.234-.018.518-.081.811-.178.474-.157.634-.27.852-.604.069-.106.133-.152.223-.161.149-.015.273-.197.275-.404.001-.074.029-.182.062-.24.151-.263-.002-1.418-.252-1.905-.03-.058-.079-.182-.108-.275-.08-.251-.39-.777-.475-.806-.041-.014-.074-.049-.074-.078 0-.11-.198-.25-.804-.569-.231-.122-.24-.123-1.206-.152-.649-.02-1.041-.014-1.176.016-.224.05-.571.201-.658.286a.2.2 0 0 1-.116.055c-.033 0-.06.019-.06.042s-.029.042-.063.042-.063.017-.063.037-.058.049-.129.063c-.121.024-.252.115-.252.174 0 .014-.046.069-.103.122s-.117.152-.134.22a1.24 1.24 0 0 1-.102.252c-.039.07-.095.203-.124.296-.082.262-.147.402-.186.402-.075 0 .101.759.206.889.028.035.096.299.15.586.116.609.222.807.589 1.097l.328.263a.86.86 0 0 0 .233.125c.077.026.182.111.238.194.105.155.217.201.619.257a1.15 1.15 0 0 1 .275.065c.092.052.237.046.572-.022zm-11.33-1.637c.117-.041.133-.066.133-.202 0-.158.052-.259.236-.458.056-.061.102-.127.102-.146s.029-.036.063-.036.063-.019.063-.042.03-.042.067-.042.077-.037.089-.082.073-.094.144-.109.123-.044.123-.066c0-.067.162-.205.274-.233.156-.039.39.016.425.1.017.04.042.178.057.306l.027.233.317.055c.467.081.919.044 1.397-.116.221-.074.418-.15.437-.169s.236.03.483.108l.463.142c.008 0 .015-.162.015-.36 0-.383.003-.375-.268-.603-.062-.052-.132-.095-.155-.095s-.042-.018-.042-.04-.133-.083-.296-.135-.296-.112-.296-.132c0-.09-.155-.176-.371-.205-.265-.036-.295-.066-.327-.334-.013-.105-.089-.467-.17-.804-.166-.692-.3-1.854-.287-2.498l.021-1.711c.009-.884.027-1.314.058-1.324.025-.008.038-.068.028-.132s.013-.233.05-.375c.086-.332.088-.589.004-.621-.042-.016-.069.007-.082.07-.182.921-.326 1.313-1.095 2.976-.578 1.25-.691 1.538-.865 2.189-.104.389-.116.504-.117 1.152-.001.9.053 1.071.47 1.489l.27.27-.73.354c-.402.195-.847.44-.989.545-.446.33-.549.706-.273 1.001.133.143.303.169.547.084zm6.864-1.914c0-.007-.062-.069-.138-.138l-.138-.124.124.138c.116.128.151.157.151.124zm-13.356-1.807c.056-.024.063-.037.021-.039-.035-.001-.092.016-.127.039-.077.05-.011.05.106 0zm.329-.07c-.029-.012-.086-.012-.127-.002s-.018.02.052.021.104-.008.075-.02zm23.823-.246c1.644-.13 2.994-.199 3.372-.173.215.015.398.011.411-.01.039-.063-.051-2.326-.122-3.088-.116-1.245-.243-1.871-.572-2.825-.171-.497-.59-1.471-.693-1.611-.049-.066-.233-.031-2.41.462l-2.374.534c-.009 0 .094.243.229.54.437.958.761 2.066.93 3.18.118.772.234 2.116.227 2.62l-.006.434h.112c.062 0 .465-.028.895-.062zm-32.332-.213l2.681-.256.173-.023.03-.771c.017-.424.047-.876.067-1.004l.101-.656c.1-.664.252-1.369.324-1.496.066-.117.216-.608.193-.631a281.94 281.94 0 0 0-5.046-1.735 15.87 15.87 0 0 0-.203.574C.9 15.325.598 16.904.491 18.708l-.044 1.005c0 .222.009.249.085.249.047 0 1.214-.105 2.593-.232zm25.639-1.065c.058-.051-.08-.004-.147.05-.077.062-.076.063.024.015.058-.028.114-.057.123-.066zm.226-.043c-.029-.012-.077-.012-.106 0s-.005.021.053.021.082-.01.053-.021zM6.839 13.978c0-.096.207-.534.253-.534.023 0 .136-.187.251-.416.196-.391.594-1.072.952-1.629.087-.135.152-.262.144-.282s-.899-.744-1.981-1.61L4.492 7.933l-.099.12c-.67.809-1.106 1.452-1.455 2.146-.284.565-.74 1.581-.778 1.735-.024.097.057.136 2.295 1.099l2.353 1.001c.017.002.032-.023.032-.055zm30.438-2.956c0-.066-.585-1.088-.94-1.642-.396-.619-.914-1.321-1.45-1.968-.445-.536-1.795-1.936-1.849-1.916-.017.006-.71.764-1.54 1.684-1.457 1.616-1.507 1.677-1.486 1.816.023.15.314.47.428.47.032 0 .176.116.32.258.207.203.25.267.203.298s-.042.037.022.028.091.023.118.125c.02.076.054.138.074.138s.05.057.066.127.045.127.067.127.039.029.039.063.018.063.039.063.052.057.067.127.045.127.067.127.039.036.039.08a4.36 4.36 0 0 0 .434.887c.018.008.032.041.032.074s.019.06.042.06.042.029.042.063.019.063.042.063.042.029.042.063.019.063.042.063.042.029.042.063.019.063.042.063.042.029.042.063.019.063.042.063.042.027.042.06c0 .043.679-.166 2.413-.744 1.327-.442 2.413-.824 2.413-.848zm-27.87-.533a2.85 2.85 0 0 1 .331-.432 19.14 19.14 0 0 0 .465-.521 4.63 4.63 0 0 1 .569-.537l.606-.474c.626-.496.708-.547 1.017-.632.169-.047.323-.1.341-.117.029-.028-1.992-4.919-2.06-4.988-.03-.03-.3.113-.952.506-.882.532-1.677 1.106-2.482 1.79-.517.441-1.594 1.505-1.945 1.923-.184.22-.19.235-.119.302.336.32 4.053 3.418 4.081 3.4.02-.012.087-.112.149-.221zm20.547-1.49c0-.023-.02-.042-.045-.042s-.033.019-.019.042.035.042.045.042.019-.019.019-.042zm.792-2.373l1.406-1.796-.216-.191c-.757-.667-1.585-1.252-2.401-1.695-.557-.303-1.447-.727-1.472-.702a284.83 284.83 0 0 0-1.579 4.392c0 .015.433.295.963.623s1.154.727 1.386.889.442.29.466.285.675-.817 1.448-1.805zm-16.241-.293c1.697-.697 3.641-1.1 5.321-1.101.332 0 .603-.007.603-.016S20.2 4.147 19.92 2.86L19.412.488c0-.018.077-.046.172-.062.359-.061.101-.068-.751-.022-1.931.105-3.444.395-4.994.956-1.013.367-2.196.917-2.164 1.005l.795 2.301.777 2.251.374-.188a15.76 15.76 0 0 1 .881-.396zm11.905-1.737l.857-2.461.097-.281-.493-.19C24.975.932 23.11.533 20.904.388l-.349-.023V.48c0 .119.581 4.917.614 5.07.015.072.076.096.348.144.377.066.746.175.95.282.078.04.208.087.289.105a2.83 2.83 0 0 1 .275.074 9.69 9.69 0 0 0 .91.258c.354.075.553.131.762.216.105.043.298.087.43.098s.294.049.36.084c.088.046.125.05.138.014l.777-2.23z" fill="#df8325"/><path d="M18.417 39.664l-2.043-.25c-2.965-.502-6.004-1.819-8.458-3.664-.722-.543-1.167-.931-1.938-1.688a18.37 18.37 0 0 1-2.674-3.24C1.459 28.037.406 25.139.057 21.889c-.086-.798-.072-3.481.022-4.254a19.32 19.32 0 0 1 1.915-6.498c1.988-4.034 5.103-7.15 9.142-9.143A19.52 19.52 0 0 1 17.825.058c.804-.086 3.525-.073 4.297.022 4.03.492 7.531 2.019 10.686 4.662 2.361 1.978 4.424 4.875 5.614 7.883a19.48 19.48 0 0 1 1.25 5.053 23.63 23.63 0 0 1-.049 4.762c-.555 4.351-2.66 8.515-5.907 11.684-.981.958-1.754 1.581-2.877 2.319-2.652 1.744-5.455 2.76-8.675 3.146-.54.065-3.288.12-3.746.075zm1.291-3.678v-3.323h.646c.841 0 1.09-.03 1.09-.128 0-.041-.03-.086-.066-.1-.047-.018-.062-.071-.053-.184.012-.144.029-.165.182-.216.117-.039.295-.05.571-.035.532.028.55.038.55.266s-.018.233.814.02a12.34 12.34 0 0 0 2.851-1.105c.579-.302.564-.277.52-.843-.015-.2-.03-.546-.032-.769-.004-.389-.059-.673-.13-.673-.018 0-.047-.052-.063-.116a1.74 1.74 0 0 0-.087-.243c-.032-.07-.097-.259-.146-.42s-.105-.314-.125-.339-.049-.106-.065-.18c-.031-.144-.134-.285-.232-.317-.075-.025-.093-.502-.019-.502.026 0 .058-.038.07-.085s.005-.085-.016-.085-.078-.086-.128-.19-.108-.19-.13-.19-.118-.167-.213-.37-.189-.377-.209-.385-.036-.04-.036-.073c0-.068-.231-.315-.295-.315-.024 0-.044-.019-.044-.042s-.029-.042-.063-.042-.063-.029-.063-.063-.029-.063-.063-.063-.063-.029-.063-.063-.029-.063-.063-.063-.063-.019-.063-.042-.029-.042-.063-.042-.063-.026-.063-.059c0-.064-.126-.109-.307-.11-.096 0-.133-.034-.21-.191-.102-.21-.158-.228-.4-.127a1.05 1.05 0 0 1-.337.063c-.13 0-.185.018-.185.059 0 .07-.09.11-.247.111-.085 0-.221.104-.553.423-.304.292-.471.423-.54.423-.061 0-.1.025-.1.063s-.042.063-.124.063c-.166 0-.257-.039-.257-.11 0-.032-.019-.059-.042-.059s-.042-.028-.042-.062c0-.092-.136-.361-.183-.361-.022 0-.071-.034-.109-.076-.075-.083-.22-.133-.762-.263-.446-.107-.456-.106-.637.018-.083.057-.312.141-.51.188s-.588.155-.868.242c-.633.195-.915.207-1.251.054-.48-.22-.724-.542-.724-.956 0-.21.021-.267.202-.536.111-.165.487-.586.837-.935l.635-.634.048-.382c.041-.327.039-.388-.015-.428-.082-.061-.127-.357-.176-1.139l-.081-1.249c-.023-.338-.043-.896-.044-1.241l-.002-.627-.095.029c-.052.016-.152.098-.222.182s-.16.181-.201.216a.29.29 0 0 0-.074.199c0 .178-.205.389-.522.539-.132.062-.24.141-.24.174s-.055.124-.123.201a.61.61 0 0 0-.138.265c-.012.104-.041.132-.177.17-.1.028-.189.089-.232.16-.038.063-.094.114-.123.114s-.054.019-.054.042-.028.042-.061.042-.077.027-.095.06c-.041.073-.492.194-.723.194-.281 0-.724-.159-.861-.309-.067-.073-.121-.148-.121-.166s-.106-.033-.235-.033c-.239 0-.489-.094-.632-.238-.054-.054-.164-.075-.453-.085-.445-.015-.53-.036-.562-.137-.02-.063-.063-.072-.284-.056s-.27.006-.317-.058c-.094-.128-.07-.349.049-.459.059-.055.106-.145.106-.205 0-.11.137-.301.355-.494.067-.06.181-.173.254-.253.371-.406.68-.691.902-.831a2.63 2.63 0 0 0 .36-.27c.063-.063.234-.178.381-.256l.267-.142.72.004.847.011c.07.004.295-.016.501-.044.359-.049.38-.048.498.04.112.083.14.086.303.04a.93.93 0 0 0 .243-.102c.035-.028.168-.061.296-.074a1.5 1.5 0 0 0 .444-.132c.116-.06.274-.12.349-.135s.138-.043.138-.064.029-.038.063-.038.063-.019.063-.042.029-.042.063-.042.063-.018.063-.039.054-.051.119-.065.217-.112.337-.217a1.3 1.3 0 0 1 .834-.314c.136 0 .146-.011.207-.222.035-.122.088-.341.117-.487s.074-.264.098-.264c.073.002.742.153.762.173.031.031-.06.676-.147 1.046-.113.482-.36 1.095-.984 2.445-.578 1.25-.691 1.538-.865 2.189-.104.389-.116.504-.117 1.152-.001.9.053 1.071.47 1.489l.27.27-.73.354c-.874.424-1.209.656-1.343.932-.118.244-.093.429.085.619.117.125.143.134.338.115.258-.025.752-.262 1.112-.534l.391-.289.128-.091.337.086c.236.06.49.087.845.091.472.005.536-.004.91-.134.221-.077.418-.155.437-.173s.234.029.478.107c.639.203.711.212.817.106.154-.154.427-.088.427.103 0 .097.015.104.208.104.266 0 .703-.136.834-.258.124-.117.132-.303.018-.418-.046-.046-.202-.144-.348-.217-.366-.185-.911-.527-1.09-.684-.189-.166-.468-.502-.468-.564 0-.026.067-.083.148-.127s.148-.097.148-.119c0-.033-.104-.185-.264-.386-.131-.165-.242-.269-.312-.292-.077-.025-.271-.443-.271-.584 0-.034-.067-.317-.149-.63s-.168-.692-.193-.844l-.09-.529c-.07-.387-.053-1.338.031-1.743.013-.063.063-.101.157-.122.076-.016.148-.046.161-.067s.098.001.189.048.189.084.218.084.082.043.119.095c.061.087.1.095.465.095s.405-.008.486-.102c.049-.056.088-.136.088-.178s.024-.091.054-.11.087-.086.128-.15.095-.116.12-.116.083-.048.129-.106.11-.106.144-.106.06-.015.06-.034.067-.061.149-.093c.093-.036.159-.095.174-.155.019-.075.079-.112.263-.164a35.11 35.11 0 0 0 .717-.216c.321-.1.495-.136.529-.108.028.023.112.054.187.07s.146.063.161.109.064.092.111.107.153.092.234.171.176.144.208.144.06.019.06.042.029.042.063.042.063.016.063.036.045.085.1.144a2.83 2.83 0 0 1 .19.234c.049.069.154.157.233.194s.25.168.379.291a5.97 5.97 0 0 0 .365.321c.071.054.13.122.13.151 0 .086.195.229.377.279.317.085.392.369.177.666-.068.094-.174.183-.236.199s-.154.076-.205.134c-.066.076-.16.116-.336.144-.134.021-.286.069-.337.105s-.181.066-.289.066-.306.038-.442.085c-.268.092-.545.109-.718.043-.061-.023-.565-.044-1.121-.047l-1.011-.005-.12.128c-.307.329-.351.387-.511.679-.124.226-.12.31.021.435a4.56 4.56 0 0 0 .683.481 1.4 1.4 0 0 1 .287.217c.079.079.181.144.225.144.142 0 .213.118.215.352.001.212.068.367.158.367s.134.31.048.363c-.093.058-.004 1.205.141 1.816.129.544.49 1.42.584 1.42.023 0 .042.029.042.063s.029.063.063.063.063.024.063.053.069.11.154.18c.235.193.269.233.269.31 0 .083.337.344.649.501a2.5 2.5 0 0 1 .32.189c.059.046.169.079.265.079.09 0 .164.019.164.042s.026.042.057.042.078.048.105.106c.041.09.077.106.237.106.104 0 .199.017.212.038.039.063 1.015.106 1.122.048.051-.027.149-.051.217-.053.074-.002.124-.026.124-.061s.029-.057.063-.057.063-.019.063-.042.052-.054.116-.069.231-.08.37-.143.33-.14.422-.17.194-.08.225-.111.106-.069.166-.084a.48.48 0 0 0 .188-.106c.043-.043.107-.079.142-.079s.063-.037.063-.082.019-.094.042-.108.042-.073.042-.129.019-.103.042-.103c.067 0 .297-.493.297-.636a.69.69 0 0 1 .071-.266c.225-.43.198-1.46-.053-2.009a1.63 1.63 0 0 1-.103-.261c0-.02-.028-.059-.061-.087s-.093-.149-.133-.27c-.215-.659-.574-1.159-.954-1.329-.147-.066-.155-.081-.227-.432a16.46 16.46 0 0 1-.111-.596c-.02-.128-.056-.299-.08-.381s-.043-.291-.043-.466c.001-.558.068-.86.29-1.326.113-.237.23-.507.26-.601.106-.337.13-.383.273-.534.209-.222.404-.545.404-.671a.43.43 0 0 1 .069-.208c.059-.084.064-.159.036-.486-.033-.375-.033-.469-.01-1.191.006-.186-.002-.368-.018-.404-.023-.053.441-.221 2.614-.945 1.453-.484 2.642-.9 2.642-.925 0-.066-.584-1.087-.94-1.642-.396-.619-.914-1.321-1.45-1.968-.443-.535-1.795-1.936-1.848-1.916-.017.006-.768.831-1.668 1.832L29.55 9.334l-.184.187-.409-.335c-.84-.689-1.162-.915-1.905-1.335-.627-.355-1.46-.873-1.46-.908 0-.005.354-1.025.788-2.268l.885-2.541.097-.281-.493-.19C24.975.932 23.11.533 20.904.388l-.349-.023v.116c0 .064.143 1.273.317 2.687l.317 2.671v.1l-1.132.024c-.676.014-1.327.051-1.614.092-1.747.246-3.327.795-5.111 1.776l-.428.236-1.088-2.594-1.124-2.654c-.03-.049-.077-.038-.262.062a18.99 18.99 0 0 0-3.844 2.793c-.455.433-1.283 1.3-1.402 1.467l-.079.111 2.146 1.815 2.226 1.881c.077.063.072.075-.135.312-.355.406-1.191 1.861-1.572 2.736-.192.441-.201.48-.18.75.012.157.041.297.064.312s.058.128.077.251.054.235.076.249.108.193.191.397.189.421.236.481.086.14.087.178.029.105.063.151.062.116.062.157c0 .074.097.4.168.565.134.31.182 1.59.07 1.858a1.79 1.79 0 0 0-.09.327c-.037.224-.122.4-.219.455-.067.037-.067.044 0 .111.101.101.092.409-.019.628-.05.098-.105.188-.123.199s-.082.133-.142.27c-.102.231-.11.293-.11.868 0 .395.025.749.069.979.038.198.082.474.099.614s.073.358.125.485.111.308.13.402l.08.382a1.8 1.8 0 0 0 .131.379c.047.092.098.235.112.317a1.57 1.57 0 0 0 .104.32 1.99 1.99 0 0 1 .106.286c.016.064.041.116.057.116s.101.16.189.356c.124.275.184.362.263.382.056.014.102.044.102.066 0 .066.266.321.416.399.076.039.176.109.221.154a.28.28 0 0 0 .157.083c.073 0 .35.15.392.211.028.042.777.339.854.339.033 0 .135.038.226.085s.249.085.35.085.244.031.318.069c.105.054.305.074.919.09l.784.021.284.142a2.16 2.16 0 0 1 .428.28 3.34 3.34 0 0 0 .229.201c.047.035.118.13.159.212s.101.177.132.212c.191.213.27.313.27.343 0 .019.045.079.1.135a1.02 1.02 0 0 1 .154.203c.053.101.08.136.252.325.048.052.087.123.087.158 0 .143.44.742.545.742.021 0 .068.047.106.105a2.07 2.07 0 0 0 .217.253c.114.114.148.183.148.298 0 .23-.13.272-.497.158-.774-.239-1.019-.306-1.115-.306s-.179.175-1.322 2.857l-1.239 2.913c-.016.041.165.117.647.274 1.882.614 3.719.93 5.674.976l.265.006zm3.158-6.869c-.017-.017-.349-.044-.737-.059-1.52-.058-2.105-.092-2.17-.125-.037-.019-.11-.151-.162-.293-.088-.241-.09-.271-.032-.441l.062-.182-.281.098c-.345.12-.787.175-1.711.213-.704.029-.711.028-.815-.069-.128-.12-.137-.305-.02-.422.064-.064.141-.085.319-.085.361 0 1.01-.082 1.324-.166.974-.263 1.625-.425 1.81-.449.191-.025.227-.016.348.085.108.091.161.108.264.085.143-.032.337.065.337.168 0 .11.084.114.369.02.228-.076.306-.085.403-.048.106.04.158.026.429-.121.594-.321 1.135-.458 1.937-.494.739-.032.884.018.884.306 0 .228-.108.275-.639.275-.575 0-1.111.094-1.544.27-.355.145-.788.403-.758.452.01.015.137.053.283.084.212.045.294.086.407.207.124.133.139.173.122.331-.027.248-.129.392-.278.392-.065 0-.133-.014-.151-.032zm-.3-6.747l-.127-.124.138.048c.09.031.138.075.138.128 0 .097.008.1-.148-.052zm5.323-7.361c-.451-.124-.851-.282-1.068-.422-.105-.068-.398-.344-.651-.613s-.514-.518-.581-.553c-.443-.229-1.061-.04-2.436.746-.282.161-.556.293-.607.293s-.159-.065-.238-.144c-.258-.258-.172-.563.229-.817.133-.084.46-.329.728-.544.977-.784 1.407-1.004 1.968-1.007.513-.002.816.169 1.619.913.481.446.756.578 1.43.687.609.099.884.367.887.868.003.554-.529.8-1.279.593zm-16.703-.061c-.182-.054-.339-.106-.348-.116-.032-.032.23-.962.353-1.255.16-.382.401-.738.619-.917a2.35 2.35 0 0 1 1.026-.446c.597-.092 1.519.108 2.745.593.687.272 1.101.405 1.633.525.486.11.645.176.788.329.135.145.183.304.183.604a.63.63 0 0 1-.381.649c-.155.083-.23.097-.402.078-.451-.051-.989-.249-1.968-.723-1.274-.618-1.629-.744-2.164-.773-.505-.027-.776.05-1.013.287-.173.173-.409.628-.531 1.025-.051.164-.097.242-.141.241-.036-.002-.215-.047-.397-.101zm.283-2.922c-.013-.035-.063-.063-.109-.063-.081 0-.084-.021-.067-.413.016-.347.039-.457.146-.688.13-.28.449-.627.669-.727.059-.027.107-.062.107-.078 0-.063.31-.344.468-.424.092-.047.167-.111.167-.142 0-.113.377-.174 1.058-.171.711.004.889.04 2.307.468.329.099.627.16.847.173.307.018.38.005.783-.134.584-.201 1.563-.69 1.891-.943 1.506-1.165 1.847-1.339 2.618-1.334.911.005 1.763.391 3.348 1.515.576.409.911.733.994.964l.049.135.726-.003c.597-.002.745-.015.831-.072.151-.099 1-.124 1.059-.031.081.128.046.325-.083.463-.069.073-.136.17-.15.214s-.064.092-.111.107-.105.072-.13.126-.103.123-.173.152a.93.93 0 0 0-.23.148c-.074.068-.179.103-.375.124-.15.016-.272.042-.272.057 0 .087-.748.17-.828.093-.022-.021-.174-.048-.337-.059a3.7 3.7 0 0 1-.423-.049c-.165-.038-.445-.185-.541-.284-.042-.043-.121-.078-.177-.078s-.113-.019-.128-.042-.074-.042-.131-.042c-.068 0-.174-.068-.299-.19-.106-.105-.22-.19-.253-.19s-.071-.029-.084-.063-.063-.063-.11-.063a.57.57 0 0 1-.225-.086c-.077-.047-.279-.115-.449-.151l-.522-.11c-.278-.059-.887-.06-1.101-.001l-.407.106c-.264.066-.286.081-.62.41a3.82 3.82 0 0 1-.387.336c-.427.295-.581.386-.648.386a1.22 1.22 0 0 0-.298.099c-.415.184-1.561.184-2.509.002a9.51 9.51 0 0 0-.725-.103 2.5 2.5 0 0 1-.757-.187c-.204-.082-.43-.15-.503-.15s-.189-.038-.259-.084a.61.61 0 0 0-.288-.084.75.75 0 0 1-.288-.066c-.1-.052-.274-.065-.826-.064-.384.001-.735.021-.778.044s-.117.042-.163.042-.09.014-.098.032a2.02 2.02 0 0 1-.263.217c-.349.26-.397.315-.449.521-.025.1-.077.254-.115.341-.06.139-.086.159-.211.159-.088 0-.152-.024-.167-.063zm11.076 27.195c1.121-.084 2.128-.272 3.039-.566.831-.269 2.38-.947 2.38-1.042 0-.056-1.224-5.849-1.239-5.862-.005-.005-.219.094-.476.219a13.46 13.46 0 0 1-5.281 1.395l-.497.028-.001.218c-.001.435.13 5.011.154 5.355l.024.354.663-.027c.364-.015.92-.047 1.234-.07zm-9.087-4.208l1.249-2.667-.134-.062c-.944-.433-1.758-.889-2.237-1.253-.136-.104-.265-.188-.286-.188-.048 0-3.898 4.346-3.898 4.4s1.308.982 1.884 1.338c.391.242 2.138 1.134 2.165 1.106.005-.005.571-1.209 1.257-2.675zm16.495 1.511c1.309-.759 2.631-1.791 3.823-2.985l.627-.628-.226-.24-1.997-2.155-1.792-1.916c-.012 0-.075.043-.14.095s-.2.143-.298.201-.305.232-.459.385c-.256.256-.583.549-.851.76l-.208.168c-.056.046-.117.084-.136.084s-.12.086-.225.19-.22.19-.255.19-.065.017-.065.038c0 .066-.27.216-.3.167-.015-.024-.057.044-.094.152l-.067.196.845 2.905.845 2.922c0 .02.406-.201.974-.53zM9.779 32.208c1.331-1.452 2.123-2.286 2.154-2.266s.002-.03-.056-.103-.134-.135-.169-.137c-.187-.009-.863-.32-1.044-.481-.057-.051-.199-.183-.315-.293s-.271-.232-.345-.27c-.142-.073-.455-.377-.455-.442s-.489-.536-.581-.565c-.046-.015-.108-.073-.139-.131s-.089-.115-.129-.128-.097-.08-.125-.149-.058-.126-.065-.126a859.87 859.87 0 0 0-5.514 2.307c-.021.018.404.725.724 1.206.736 1.105 1.389 1.879 2.642 3.128l1.036 1.033.138-.144c.076-.079 1.086-1.177 2.243-2.441zm25.7-.624c.717-.897 1.19-1.644 1.758-2.778l.292-.583-.158-.088-2.358-1.308-2.2-1.219-.266.537c-.146.296-.505.897-.796 1.336l-.531.798.858.869 2.963 2.954c.017-.006.214-.239.437-.519zm-7.481-2.17c.132-.099.269-.194.304-.21a.76.76 0 0 0 .16-.126 1.13 1.13 0 0 1 .233-.167c.075-.039.183-.102.242-.142l.847-.565a2.84 2.84 0 0 0 .381-.322 2.99 2.99 0 0 1 .41-.341c.121-.08.239-.189.264-.242s.078-.097.119-.097.117-.065.168-.144l.093-.144-.195-.016c-.11-.009-.216.005-.243.033s-.114.082-.194.123-.156.089-.167.107-.164.1-.339.182c-.438.206-.899.257-1.584.172-.459-.057-.514-.073-.691-.209-.321-.245-.336-.232-.48.445a5.83 5.83 0 0 1-.108.42c-.032.103-.053.189-.048.192s.068.024.137.047c.115.038.13.063.155.273a8.09 8.09 0 0 1 .032.669l.004.437.13-.098.37-.279zm-1.008-.793c0-.035-.018-.063-.041-.063s-.03.029-.017.063.032.063.041.063.017-.029.017-.063zM5.187 27.56l2.651-.942c.036-.021-.029-.174-.22-.516-.935-1.681-1.548-3.697-1.69-5.556-.018-.238-.046-.37-.077-.369s-1.211.178-2.631.393l-2.582.391.012.38a21.38 21.38 0 0 0 .456 3.438c.13.554.443 1.513.674 2.064.235.562.748 1.63.782 1.63.015 0 1.196-.411 2.626-.913zm.805-4.464c0-.023.019-.042.042-.042s.042.019.042.042-.019.042-.042.042-.042-.019-.042-.042zm31.919 4.22c0-.008.097-.27.215-.582.444-1.173.827-2.629 1.015-3.851.111-.724.209-1.64.209-1.962v-.25l-1.154.027-2.561.055-1.408.028v.092c0 .108-.162.596-.289.869-.049.105-.136.371-.193.593-.138.529-.197.682-.402 1.043-.141.249-.186.388-.254.783-.046.264-.103.534-.129.6l-.046.119 2.466 1.222 2.529 1.215zm-13.25-5.249c0-.007-.062-.069-.138-.138l-.138-.124.124.138c.116.128.151.157.151.124zm10.795-2.123c1.644-.13 2.994-.199 3.372-.173.215.015.398.011.411-.01.039-.063-.051-2.326-.122-3.088-.116-1.245-.243-1.871-.572-2.825-.171-.497-.59-1.471-.693-1.611-.049-.066-.233-.031-2.41.462l-2.374.534c-.009 0 .094.243.229.54.728 1.595 1.098 3.442 1.099 5.482v.751h.138a25.44 25.44 0 0 0 .921-.062zm-32.332-.213l2.681-.256.173-.023.03-.771c.017-.424.047-.876.067-1.004l.101-.656c.1-.664.252-1.369.324-1.496.066-.117.216-.608.193-.631a281.94 281.94 0 0 0-5.046-1.735 15.87 15.87 0 0 0-.203.574C.9 15.325.598 16.904.491 18.708l-.044 1.005c0 .222.009.249.085.249.047 0 1.214-.105 2.593-.232zm3.714-5.753c0-.096.207-.534.253-.534.023 0 .136-.187.251-.416.196-.391.594-1.072.952-1.629.087-.135.152-.262.144-.282s-.899-.744-1.981-1.61L4.492 7.933l-.099.12c-.67.809-1.106 1.452-1.455 2.146-.284.565-.74 1.581-.778 1.735-.024.097.057.136 2.295 1.099l2.353 1.001c.017.002.032-.023.032-.055zm23.906-7.353l1.406-1.796-.216-.191c-.757-.667-1.585-1.252-2.401-1.695-.557-.303-1.447-.727-1.472-.702a284.83 284.83 0 0 0-1.579 4.392c0 .015.433.295.963.623s1.154.727 1.386.889.442.29.466.285.675-.817 1.448-1.805zm-16.241-.293c1.697-.697 3.641-1.1 5.321-1.101.332 0 .603-.007.603-.016S20.2 4.147 19.92 2.86L19.412.488c0-.018.077-.046.172-.062.359-.061.101-.068-.751-.022-1.931.105-3.444.395-4.994.956-1.013.367-2.196.917-2.164 1.005l.795 2.301.777 2.251.374-.188a15.76 15.76 0 0 1 .881-.396z" fill="#d26b27"/><path d="M18.417 39.664l-2.043-.25c-2.965-.502-6.004-1.819-8.458-3.664-.722-.543-1.167-.931-1.938-1.688a18.37 18.37 0 0 1-2.674-3.24C1.459 28.037.406 25.139.057 21.889c-.086-.798-.072-3.481.022-4.254a19.32 19.32 0 0 1 1.915-6.498c1.988-4.034 5.103-7.15 9.142-9.143A19.52 19.52 0 0 1 17.825.058c.804-.086 3.525-.073 4.297.022 4.03.492 7.531 2.019 10.686 4.662 2.361 1.978 4.424 4.875 5.614 7.883a19.48 19.48 0 0 1 1.25 5.053 23.63 23.63 0 0 1-.049 4.762c-.555 4.351-2.66 8.515-5.907 11.684-.981.958-1.754 1.581-2.877 2.319-2.652 1.744-5.455 2.76-8.675 3.146-.54.065-3.288.12-3.746.075zm1.291-3.672v-3.317l.942-.026c1.34-.037 2.217-.173 3.365-.52.713-.216 1.265-.445 2.241-.93.765-.38.886-.429.913-.366.017.04.432 1.452.921 3.139l.9 3.077c.026.026 1.212-.665 1.745-1.017a18.76 18.76 0 0 0 3.042-2.496l.629-.63-.21-.217a826.13 826.13 0 0 1-3.956-4.285c-.07-.081-.063-.095.164-.379.313-.39 1.119-1.522 1.328-1.864.091-.149.233-.404.314-.566s.235-.428.34-.591l.191-.296 2.652 1.31 2.667 1.295a12.02 12.02 0 0 0 .23-.583 20.37 20.37 0 0 0 1.015-3.851c.11-.718.209-1.639.209-1.956v-.243l-.497.004-2.809.053-2.312.049-.025-1.291c-.032-1.628-.115-2.334-.416-3.535-.27-1.075-.717-2.224-1.09-2.802l-.213-.33 2.644-.882c1.454-.485 2.644-.902 2.644-.926 0-.066-.585-1.088-.94-1.642a20.69 20.69 0 0 0-1.45-1.968c-.443-.535-1.795-1.936-1.848-1.916-.017.006-.768.831-1.668 1.832L29.55 9.334l-.184.187-.409-.335c-.84-.689-1.162-.915-1.905-1.335-.627-.355-1.46-.873-1.46-.908 0-.005.354-1.025.788-2.268l.885-2.541.097-.281-.493-.19C24.975.932 23.11.533 20.904.388l-.349-.023v.116c0 .064.143 1.273.317 2.687l.317 2.671v.1l-1.132.024c-.676.014-1.327.051-1.614.092-1.747.246-3.327.795-5.111 1.776l-.428.236-1.088-2.594-1.124-2.654c-.03-.049-.077-.038-.262.062a18.99 18.99 0 0 0-3.844 2.793c-.455.433-1.283 1.3-1.402 1.467l-.079.111 2.146 1.815 2.226 1.881c.077.063.072.075-.136.313-.435.497-1.319 2.102-1.797 3.262-.155.376-.246.547-.288.54-.034-.006-1.307-.439-2.83-.962l-2.779-.942a15.72 15.72 0 0 0-.203.574c-.397 1.159-.667 2.323-.828 3.563-.091.701-.205 2.605-.159 2.651.015.015 1.392-.1 3.06-.256l3.048-.269c.023.023.136.804.21 1.45a13.69 13.69 0 0 0 1.138 4.085c.185.41.373.756.995 1.828.036.063.057.122.046.131s-1.354.575-2.984 1.257l-2.976 1.25c-.041.036.819 1.382 1.257 1.968.67.896 1.933 2.27 2.844 3.093l.321.29 2.231-2.431 2.231-2.431.305.219a22.01 22.01 0 0 0 2.528 1.302c.272.106.888.405 1.006.488.006.004-.58 1.395-1.303 3.09l-1.302 3.093c.006.006.271.097.587.203 1.834.611 3.785.95 5.742.996l.265.006zm3.158-6.875c-.017-.017-.349-.044-.737-.059-1.52-.058-2.105-.092-2.17-.125-.037-.019-.11-.151-.162-.293-.088-.241-.09-.271-.032-.441l.062-.182-.281.098c-.345.12-.787.175-1.711.213-.704.029-.711.028-.815-.069-.128-.12-.137-.305-.02-.422.064-.064.141-.085.319-.085.361 0 1.01-.082 1.324-.166.974-.263 1.625-.425 1.81-.449.191-.025.227-.016.348.085.108.091.161.108.264.085.143-.032.337.065.337.168 0 .11.084.114.369.02.228-.076.306-.085.403-.048.106.04.158.026.429-.121.594-.321 1.135-.458 1.937-.494.739-.032.884.018.884.306 0 .228-.108.275-.639.275-.575 0-1.111.094-1.544.27-.355.145-.788.403-.758.452.01.015.137.053.283.084.212.045.294.086.407.207.124.133.139.173.122.331-.027.248-.129.392-.278.392-.065 0-.133-.014-.151-.032zm-5.878-4.077c-.37-.091-.738-.359-.883-.644-.055-.108-.085-.25-.085-.402 0-.21.021-.267.202-.536.111-.165.493-.592.85-.949.563-.564.648-.666.648-.783.001-.2.153-1.149.3-1.87.194-.951.583-2.443.972-3.725l.526-1.736a12.73 12.73 0 0 0 .236-.878c.031-.157.077-.285.102-.285a6.91 6.91 0 0 1 .762.173c.031.031-.06.676-.147 1.046-.113.482-.36 1.095-.984 2.445-.578 1.25-.691 1.538-.865 2.189-.104.389-.116.504-.117 1.152-.001.9.053 1.071.47 1.489l.27.27-.73.354c-.874.424-1.209.656-1.343.932-.118.244-.093.429.085.619.117.125.143.134.338.115.258-.025.752-.262 1.112-.534l.391-.289.128-.091.337.086c.236.06.49.087.845.091.472.005.536-.004.91-.134.221-.077.418-.155.437-.174s.206.021.415.088c1.071.345 1.508.399 1.998.247.289-.089.494-.265.494-.424 0-.094-.186-.241-.506-.402-.452-.226-.964-.57-1.194-.802-.222-.224-.367-.428-.329-.462a13.18 13.18 0 0 1 .372-.234l.354-.218.173.202c.095.111.463.488.818.837l.644.635.046.279c.107.651.031.999-.25 1.147-.221.116-.517.098-1.049-.066l-.467-.143-.269.26a2.05 2.05 0 0 1-1.044.558c-.396.084-1.432.08-1.856-.007l-.449-.09c-.082-.015-.165.011-.275.086-.087.059-.32.146-.517.193a17.39 17.39 0 0 0-.847.232c-.565.171-.806.207-1.027.153zm-2.698-6.514c-.494-.151-1.017-.696-1.082-1.127-.028-.19.057-.528.187-.738.148-.24.536-.644.696-.726.254-.13.609-.148.779-.04.312.197.435.563.435 1.297 0 .692-.168 1.083-.551 1.279-.194.099-.286.11-.465.056zm11.322-.969c-.187-.062-.39-.146-.451-.186-.123-.081-.252-.42-.334-.88-.047-.264-.044-.285.071-.529.414-.874 1.299-1.017 1.798-.291.226.328.293.559.293 1.013 0 .469-.056.639-.26.793-.298.225-.614.248-1.118.081zm2.277-2.548c-.451-.124-.851-.282-1.068-.422-.105-.068-.398-.344-.651-.613s-.514-.518-.581-.553c-.443-.229-1.061-.04-2.436.746-.282.161-.556.293-.607.293s-.159-.065-.238-.144c-.258-.258-.172-.563.229-.817.133-.084.46-.329.728-.544.977-.784 1.407-1.004 1.968-1.007.513-.002.816.169 1.619.913.481.446.756.578 1.43.687.609.099.884.367.887.868.003.554-.529.8-1.279.593zm-16.703-.061c-.182-.054-.339-.106-.348-.116-.032-.032.23-.962.353-1.255.16-.382.401-.738.619-.917a2.35 2.35 0 0 1 1.026-.446c.597-.092 1.519.108 2.745.593.687.272 1.101.405 1.633.525.486.11.645.176.788.329.135.145.183.304.183.604a.63.63 0 0 1-.381.649c-.155.083-.23.097-.402.078-.451-.051-.989-.249-1.968-.723-1.274-.618-1.629-.744-2.164-.773-.505-.027-.776.05-1.013.287-.173.173-.409.628-.531 1.025-.051.164-.097.242-.141.241-.036-.002-.215-.047-.397-.101zm14.851-4.376c-.124-.044-.396-.219-.656-.424-1.817-1.428-3.217-1.875-4.245-1.357-.223.112-.664.436-1.109.812-.509.431-1.032.774-1.337.878-.63.214-1.736.153-2.736-.152-.897-.273-1.22-.331-1.703-.304-.341.019-.848.12-1.116.223-.053.02-.085-.036-.154-.267-.166-.556-.167-.54.067-.608.14-.041.414-.059.861-.056.711.004.889.04 2.307.468.329.099.627.16.847.173.307.018.38.005.783-.134.584-.201 1.563-.69 1.891-.943 1.506-1.165 1.847-1.339 2.618-1.334.518.003.933.105 1.475.363.752.357 2.253 1.361 2.603 1.741.594.645.361 1.187-.395.92zm-3.492 28.648c1.121-.084 2.128-.272 3.039-.566.831-.269 2.38-.947 2.38-1.042 0-.056-1.224-5.849-1.239-5.862-.005-.005-.219.094-.476.219a13.46 13.46 0 0 1-5.281 1.395l-.497.028-.001.218c-.001.435.13 5.011.154 5.355l.024.354.663-.027c.364-.015.92-.047 1.234-.07zm-9.087-4.208l1.249-2.667-.134-.062c-.944-.433-1.758-.889-2.237-1.253-.136-.104-.265-.188-.286-.188-.048 0-3.898 4.346-3.898 4.4s1.308.982 1.884 1.338c.391.242 2.138 1.134 2.165 1.106.005-.005.571-1.209 1.257-2.675zm22.021-3.429c.717-.897 1.19-1.644 1.758-2.778l.292-.583-.158-.088-2.358-1.308-2.2-1.219-.266.537c-.146.296-.505.897-.796 1.336l-.531.798.858.869 2.963 2.954c.017-.006.214-.239.437-.519zM5.187 27.56l2.651-.942c.036-.021-.029-.174-.22-.516-.935-1.681-1.548-3.697-1.69-5.556-.018-.238-.046-.37-.077-.369s-1.211.178-2.631.393l-2.582.391.012.38a21.38 21.38 0 0 0 .456 3.438c.13.554.443 1.513.674 2.064.235.562.748 1.63.782 1.63.015 0 1.196-.411 2.626-.913zm30.27-7.616c1.644-.13 2.994-.199 3.372-.173.215.015.398.011.411-.01.039-.063-.051-2.326-.122-3.088-.116-1.245-.243-1.871-.572-2.825-.171-.497-.59-1.471-.693-1.611-.049-.066-.233-.031-2.41.462l-2.374.534c-.009 0 .094.243.229.54.728 1.595 1.098 3.442 1.099 5.482v.751h.138c.076 0 .49-.028.921-.062zm-28.45-6.182c.225-.571.712-1.464 1.289-2.362.087-.135.152-.262.144-.282s-.899-.744-1.981-1.61L4.492 7.933l-.099.12c-.67.809-1.106 1.452-1.455 2.146-.284.565-.74 1.581-.778 1.735-.024.097.058.137 2.338 1.117l2.386.99c.013-.014.068-.14.123-.279zm23.738-7.136l1.406-1.796-.216-.191c-.757-.667-1.585-1.252-2.401-1.695-.557-.303-1.447-.727-1.472-.702a284.83 284.83 0 0 0-1.579 4.392c0 .015.433.295.963.623s1.154.727 1.386.889.442.29.466.285.675-.817 1.448-1.805zm-16.241-.293c1.697-.697 3.641-1.1 5.321-1.101.332 0 .603-.007.603-.016S20.2 4.147 19.92 2.86L19.412.488c0-.018.077-.046.172-.062.359-.061.101-.068-.751-.022-1.931.105-3.444.395-4.994.956-1.013.367-2.196.917-2.164 1.005l.795 2.301.777 2.251.374-.188a15.76 15.76 0 0 1 .881-.396z" fill="#221e1f"/></svg>