<svg xmlns="http://www.w3.org/2000/svg" width="150.225" height="150.093" viewBox="0 0 39.747 39.712" xmlns:v="https://vecta.io/nano"><path d="M18.469 39.687c-3.534-.258-6.725-1.345-9.631-3.279-1.231-.82-2.033-1.487-3.113-2.588-1.561-1.592-2.672-3.162-3.7-5.224C.887 26.313.297 24.216.049 21.571c-.075-.793-.062-2.759.023-3.619.242-2.444.836-4.538 1.909-6.731 1.999-4.086 5.018-7.131 9.092-9.171C13.214.977 15.339.354 17.792.079c.945-.106 3.271-.105 4.212.001 2.488.282 4.598.91 6.773 2.017 4.335 2.207 7.565 5.647 9.432 10.046 1.467 3.457 1.899 7.431 1.23 11.311-.569 3.298-2.096 6.528-4.381 9.271-.459.55-1.668 1.763-2.258 2.265-2.177 1.851-4.791 3.248-7.528 4.023-.992.281-2.289.519-3.459.634-.621.061-2.709.086-3.344.039zm-1.983-5.31c1.362-.13 2.653-.412 3.524-.767.879-.359 1.439-.721 2.413-1.56.88-.758 1.775-1.494 3.179-2.615 1.526-1.218 2.135-1.849 3.057-3.166.99-1.413 1.884-3.222 2.439-4.932 1.062-3.276.923-5.921-.418-7.939a5.7 5.7 0 0 0-1.395-1.362c-.233-.155-.795-.46-1.249-.679a29.21 29.21 0 0 1-2.392-1.302c-1.03-.632-2.104-1.114-2.89-1.299-.284-.067-.519-.076-1.767-.074a21.54 21.54 0 0 0-2.625.118l-1.224.127c-.021.006.241.149.582.318.359.177.648.347.685.403.057.087.055.131-.022.432-.109.429-.338.907-.721 1.502-.37.575-.677 1.178-.823 1.617-.196.59-.224.958-.208 2.754.019 2.101.042 2.259.612 4.115.224.729.263.906.282 1.276.021.417.019.431-.079.495-.349.227-2.305.19-4.45-.084l-.2-.026.068.2c.07.206.063.47-.024.932-.022.116-.041.511-.043.876-.004.969-.089 1.281-.432 1.575-.127.109-.204.146-.266.128-.136-.04-.614-.364-.959-.652-.562-.468-1.902-1.784-1.987-1.951-.077-.152-.114-.394-.191-1.276-.03-.341-.139-.527-.376-.644-.164-.08-.169-.08-.55.01a15.64 15.64 0 0 0-.739.198c-.195.059-.485.119-.644.134-.259.024-.313.015-.522-.087-.287-.14-.603-.479-1.002-1.074-.47-.702-.784-1.435-.999-2.337-.131-.548-.185-1.842-.101-2.416a5.45 5.45 0 0 1 .709-1.981c.254-.428.552-1.025.67-1.339.052-.14.164-.569.248-.954a25.69 25.69 0 0 1 .329-1.312c.173-.603.176-.624.185-1.353.008-.612.026-.801.103-1.088.111-.409.283-.701.484-.82.18-.106.289-.329.311-.632l.016-.233-.288.317c-.159.175-.574.613-.924.974-2.303 2.38-3.634 4.471-4.147 6.516-.236.941-.645 3.119-.783 4.173-.167 1.272-.277 2.907-.242 3.598.027.547.178 1.533.35 2.284.275 1.206.95 3.292 1.29 3.993.178.366.267.491.559.786s.42.387.789.573c.559.282.744.41 1.006.697.278.304.742.989 1.085 1.603.706 1.261 1.03 1.558 2.203 2.018a20.36 20.36 0 0 0 5.509 1.245 29.54 29.54 0 0 0 2.991-.033zm-4.645-6.479c-.065-.223-.064-.242.014-.392.066-.127.106-.157.205-.157h.123l.012.303c.012.293.008.306-.112.392-.069.049-.136.089-.149.089s-.055-.105-.092-.234zm-5.073-2.79c-.148-.275.024-.489.392-.489.175 0 .428.115.429.194 0 .025-.048.091-.108.147-.077.073-.101.129-.084.198.027.108-.05.131-.144.043-.045-.042-.06-.042-.075 0-.011.029-.089.053-.176.053-.135 0-.167-.02-.235-.146zm13.407-2.49a.64.64 0 0 1-.121-.732c.058-.14.071-.147.273-.147.209 0 .213.002.257.159.11.39.105.458-.043.642-.158.196-.242.214-.366.078zM2.806 18.113c-.124-.047-.225-.164-.323-.373-.115-.244-.127-.412-.037-.487.035-.029.063-.078.063-.11s-.026-.047-.063-.033c-.091.035-.082-.126.026-.454.16-.487.211-.547.467-.547h.126l-.029.307c-.02.208-.054.335-.107.393a.92.92 0 0 0-.187.602c.024.131.105.196.107.085.002-.145.069-.164.227-.066.149.093.155.106.134.282-.043.353-.178.487-.404.4zM18.51 16.77c-.102-.031-.145-.067-.136-.114.007-.037-.035-.159-.094-.271-.11-.207-.151-.571-.063-.571s.29.127.355.221c.054.077.066.081.066.021 0-.105.114-.09.235.031.15.15.135.316-.049.538l-.159.187c-.003.002-.073-.017-.155-.042zm-6.729 6.134c.086-.177.086-.189.017-.324-.04-.077-.108-.188-.151-.247-.058-.079-.124-.4-.251-1.227l-.172-1.12.141-.293c.202-.419.32-.534.549-.533a2.57 2.57 0 0 1 .499.085 2.67 2.67 0 0 0 .557.084c.232 0 .252.009.469.211.565.527 1.515 1.155 1.893 1.252.225.058.317.033.598-.156l.191-.129-.027-.377c-.023-.322-.043-.397-.139-.515-.515-.634-.718-1.081-1.015-2.233l-.298-1.118c-.047-.153-.052-.23-.019-.292.115-.215.118-.322.012-.449-.174-.207-.107-.585.154-.859.211-.222.389-.22.876.008.199.093.368.169.377.169s.015-.071.015-.159c-.001-.234-.094-.543-.268-.888-.154-.305-.154-.307-.154-.857v-.551h.169c.165 0 .169-.004.169-.147a1.26 1.26 0 0 0-.317-.742l-.148-.144v-.579c0-.574.001-.582.152-.912a11.09 11.09 0 0 0 .335-.888c.229-.691.365-1.018.577-1.382.155-.266.178-.287.345-.313.14-.022.219-.071.369-.232.2-.214.425-.334.623-.333.065 0 .274.065.465.144l.347.143.062-.176c.034-.097.073-.225.085-.285.046-.218 1.709-1.552 2.252-1.806l.25-.117 1.058.004a20.89 20.89 0 0 1 1.341.037c.381.044.671-.05 1.089-.352.678-.49.858-.609 1.136-.75.214-.109.335-.207.477-.389.168-.214.249-.272.677-.484l.529-.258c.092-.037-.104-.181-.508-.375-.444-.212-2.414-.984-2.681-1.05a6.76 6.76 0 0 1-.456-.144c-.228-.08-.403-.108-.727-.117l-.426-.011-.416.272c-.828.542-1.07.841-1.199 1.484-.049.242-.107.499-.13.57-.065.204-.259.363-.47.386-.155.017-.21 0-.361-.109-.346-.252-.532-.22-.972.172-.386.343-.633.457-.993.458-.217 0-.324-.023-.478-.105-.109-.058-.233-.106-.275-.106-.11 0-.349.184-1.131.871-.654.575-.794.67-.828.567-.008-.024-.111-.055-.23-.069-.165-.02-.242-.008-.328.048-.158.103-.398.056-.453-.089a.36.36 0 0 1 .08-.432c.103-.115.149-.135.317-.135.109 0 .197-.019.197-.042s.038-.08.085-.127c.06-.06.085-.141.085-.277 0-.251-.145-.4-.388-.4-.196 0-.491.178-.526.318-.013.052-.065.117-.116.144-.099.053-.198.228-.198.351 0 .042-.019.076-.041.076-.054 0-.17.227-.17.334 0 .046-.029.112-.063.147s-.063.084-.063.11-.148.195-.328.376c-.231.232-.407.366-.594.454-.201.094-.272.15-.289.23-.012.058-.06.173-.105.254s-.131.253-.191.381c-.231.497-.34.695-.493.902-.087.118-.159.254-.159.303s-.075.152-.189.247l-.189.158-.068-.104c-.067-.102-.258-.194-.403-.194-.179 0-.59.543-.59.779 0 .036-.038.085-.085.11-.063.033-.085.089-.085.211 0 .106-.028.194-.078.242-.043.042-.124.171-.18.287s-.116.218-.134.226c-.047.021-.158.245-.158.318 0 .059-.179.358-.389.649-.054.075-.15.147-.214.162s-.127.044-.14.065c-.044.071-.136.041-.17-.056a2.21 2.21 0 0 1-.058-.37l-.024-.275-.164-.013c-.132-.011-.188.009-.286.103-.075.072-.122.16-.122.23s-.055.171-.148.27c-.081.086-.148.178-.148.204s-.043.093-.095.148a2.7 2.7 0 0 0-.265.424c-.167.319-.242.391-.56.539-.156.073-.282.081-.387.024-.068-.036-.072-.001-.055.497.02.61-.051 1.282-.168 1.595-.044.116-.204.383-.355.593-.307.424-.463.722-.524 1-.022.102-.054.49-.07.863-.028.657-.026.687.081 1.005.061.18.223.564.36.853.213.448.289.564.519.786.266.257.522.425.649.425.057 0 .065-.145.065-1.168v-1.168l.13-.325c.149-.373.331-.703.466-.848.081-.086.123-.097.304-.08.204.02.226.036.688.502.472.476.745.672.935.672.147 0 .377.257.461.516a3.17 3.17 0 0 0 .18.426c.107.2.107.203.07.847a22.93 22.93 0 0 0-.035 1.196c.003.51.013.577.136.905.289.771.871 1.479 1.289 1.57.19.041.226.02.328-.19z" fill="#ceeafa"/><path d="M18.469 39.687c-3.534-.258-6.725-1.345-9.631-3.279-1.231-.82-2.033-1.487-3.113-2.588-1.561-1.592-2.672-3.162-3.7-5.224C.887 26.313.297 24.216.049 21.571c-.075-.793-.062-2.759.023-3.619.242-2.444.836-4.538 1.909-6.731 1.999-4.086 5.018-7.131 9.092-9.171C13.214.977 15.339.354 17.792.079c.945-.106 3.271-.105 4.212.001 2.488.282 4.598.91 6.773 2.017 4.335 2.207 7.565 5.647 9.432 10.046 1.467 3.457 1.899 7.431 1.23 11.311-.569 3.298-2.096 6.528-4.381 9.271-.459.55-1.668 1.763-2.258 2.265-2.177 1.851-4.791 3.248-7.528 4.023-.992.281-2.289.519-3.459.634-.621.061-2.709.086-3.344.039zm1.355-.929c.402-.046.957-.158 1.06-.213.049-.026.126-.084.171-.129s.128-.081.184-.081.13-.027.162-.06c.039-.039.081-.046.119-.022.115.073.32.042.437-.067.063-.058.131-.106.152-.106s.12-.081.22-.18.278-.241.394-.315c.282-.181.941-.487 1.333-.62.175-.059.413-.156.529-.215a1.04 1.04 0 0 1 .366-.108c.138-.001 1.307-.34 1.473-.426a11.41 11.41 0 0 1 .341-.158 4.42 4.42 0 0 0 .571-.328l.783-.538c.458-.313.489-.343.517-.504.017-.095.19-.448.389-.792.437-.756.458-.808.397-.971-.072-.19.016-.347.392-.7.221-.208.433-.36.648-.465l.319-.156h.689c.867 0 1.692-.096 2.002-.234.275-.122.589-.204 1.118-.295.218-.037.546-.115.729-.173.296-.093.347-.126.457-.286a8.39 8.39 0 0 1 .509-.602l.385-.421-.137-.012c-.076-.006-.363-.04-.639-.074-.577-.072-1.295-.082-1.509-.02-.081.023-.3.053-.487.067s-.378.04-.424.058c-.146.058-.483.129-.608.129a.72.72 0 0 0-.263.071c-.079.039-.286.114-.462.166-.538.16-.909.314-1.208.502a3.04 3.04 0 0 1-.233.136 1.52 1.52 0 0 0-.19.122.94.94 0 0 1-.221.122c-.052.016-.174.113-.273.217s-.201.188-.226.188-.102.057-.169.127-.154.127-.193.127-.145.078-.236.174l-.386.399c-.122.124-.222.261-.222.305s-.038.121-.085.171c-.055.06-.085.149-.085.26 0 .126-.022.181-.085.215-.047.025-.085.081-.085.125 0 .11-.174.425-.26.472-.039.021-.083.093-.098.16s-.064.162-.109.21-.083.106-.083.128-.048.07-.106.109-.106.097-.106.132-.027.063-.059.063-.12.057-.195.127-.161.127-.192.127-.081.025-.112.056-.094.067-.141.081-.189.065-.317.113-.267.088-.309.088c-.075 0-.394.148-.719.332-.088.05-.209.091-.269.091-.073 0-.116.028-.131.085-.012.048-.058.085-.104.085-.106 0-.387.143-.634.323-.108.079-.218.143-.245.143-.115 0-.384.217-.384.31 0 .065-.122.112-.29.113-.102.001-.684.285-.684.335 0 .015-.071.064-.159.109a6.72 6.72 0 0 0-.434.259 6.59 6.59 0 0 1-1.355.655c-.843.302-1.82.712-1.82.763 0 .057.44.208.529.181.047-.014.208-.039.36-.057zm-3.338-4.381c1.362-.13 2.653-.412 3.524-.767.879-.359 1.439-.721 2.413-1.56.88-.758 1.775-1.494 3.179-2.615 1.526-1.218 2.135-1.849 3.057-3.166.99-1.413 1.884-3.222 2.439-4.932 1.062-3.276.923-5.921-.418-7.939a5.7 5.7 0 0 0-1.395-1.362c-.233-.155-.795-.46-1.249-.679a29.21 29.21 0 0 1-2.392-1.302c-1.03-.632-2.104-1.114-2.89-1.299-.284-.067-.519-.076-1.767-.074a21.54 21.54 0 0 0-2.625.118l-1.224.127c-.021.006.241.149.582.318.359.177.648.347.685.403.057.087.055.131-.022.432-.109.429-.338.907-.721 1.502-.37.575-.677 1.178-.823 1.617-.196.59-.224.958-.208 2.754.019 2.101.042 2.259.612 4.115.224.729.263.906.282 1.276.021.417.019.431-.079.495-.349.227-2.305.19-4.45-.084l-.2-.026.068.2c.07.206.063.47-.024.932-.022.116-.041.511-.043.876-.004.969-.089 1.281-.432 1.575-.127.109-.204.146-.266.128-.136-.04-.614-.364-.959-.652-.562-.468-1.902-1.784-1.987-1.951-.077-.152-.114-.394-.191-1.276-.03-.341-.139-.527-.376-.644-.164-.08-.169-.08-.55.01a15.64 15.64 0 0 0-.739.198c-.195.059-.485.119-.644.134-.259.024-.313.015-.522-.087-.287-.14-.603-.479-1.002-1.074-.47-.702-.784-1.435-.999-2.337-.131-.548-.185-1.842-.101-2.416a5.45 5.45 0 0 1 .709-1.981c.254-.428.552-1.025.67-1.339.052-.14.164-.569.248-.954a25.69 25.69 0 0 1 .329-1.312c.173-.603.176-.624.185-1.353.008-.612.026-.801.103-1.088.111-.409.283-.701.484-.82.18-.106.289-.329.311-.632l.016-.233-.288.317c-.159.175-.574.613-.924.974-2.303 2.38-3.634 4.471-4.147 6.516-.236.941-.645 3.119-.783 4.173-.167 1.272-.277 2.907-.242 3.598.027.547.178 1.533.35 2.284.275 1.206.95 3.292 1.29 3.993.178.366.267.491.559.786s.42.387.789.573c.559.282.744.41 1.006.697.278.304.742.989 1.085 1.603.706 1.261 1.03 1.558 2.203 2.018a20.36 20.36 0 0 0 5.509 1.245 29.54 29.54 0 0 0 2.991-.033zm-4.645-6.479c-.065-.223-.064-.242.014-.392.066-.127.106-.157.205-.157h.123l.012.303c.012.293.008.306-.112.392-.069.049-.136.089-.149.089s-.055-.105-.092-.234zm-5.073-2.79c-.148-.275.024-.489.392-.489.175 0 .428.115.429.194 0 .025-.048.091-.108.147-.077.073-.101.129-.084.198.027.108-.05.131-.144.043-.045-.042-.06-.042-.075 0-.011.029-.089.053-.176.053-.135 0-.167-.02-.235-.146zm13.407-2.49a.64.64 0 0 1-.121-.732c.058-.14.071-.147.273-.147.209 0 .213.002.257.159.11.39.105.458-.043.642-.158.196-.242.214-.366.078zM2.806 18.113c-.124-.047-.225-.164-.323-.373-.115-.244-.127-.412-.037-.487.035-.029.063-.078.063-.11s-.026-.047-.063-.033c-.091.035-.082-.126.026-.454.16-.487.211-.547.467-.547h.126l-.029.307c-.02.208-.054.335-.107.393a.92.92 0 0 0-.187.602c.024.131.105.196.107.085.002-.145.069-.164.227-.066.149.093.155.106.134.282-.043.353-.178.487-.404.4zM18.51 16.77c-.102-.031-.145-.067-.136-.114.007-.037-.035-.159-.094-.271-.11-.207-.151-.571-.063-.571s.29.127.355.221c.054.077.066.081.066.021 0-.105.114-.09.235.031.15.15.135.316-.049.538l-.159.187c-.003.002-.073-.017-.155-.042zm-6.729 6.134c.086-.177.086-.189.017-.324-.04-.077-.108-.188-.151-.247-.058-.079-.124-.4-.251-1.227l-.172-1.12.141-.293c.202-.419.32-.534.549-.533a2.57 2.57 0 0 1 .499.085 2.67 2.67 0 0 0 .557.084c.232 0 .252.009.469.211.565.527 1.515 1.155 1.893 1.252.225.058.317.033.598-.156l.191-.129-.027-.377c-.023-.322-.043-.397-.139-.515-.515-.634-.718-1.081-1.015-2.233l-.298-1.118c-.047-.153-.052-.23-.019-.292.115-.215.118-.322.012-.449-.174-.207-.107-.585.154-.859.211-.222.389-.22.876.008.199.093.368.169.377.169s.015-.071.015-.159c-.001-.234-.094-.543-.268-.888-.154-.305-.154-.307-.154-.857v-.551h.169c.165 0 .169-.004.169-.147a1.26 1.26 0 0 0-.317-.742l-.148-.144v-.579c0-.574.001-.582.152-.912a11.09 11.09 0 0 0 .335-.888c.229-.691.365-1.018.577-1.382.155-.266.178-.287.345-.313.14-.022.219-.071.369-.232.2-.214.425-.334.623-.333.065 0 .274.065.465.144l.347.143.062-.176c.034-.097.073-.225.085-.285.046-.218 1.709-1.552 2.252-1.806l.25-.117 1.058.004a20.89 20.89 0 0 1 1.341.037c.381.044.671-.05 1.089-.352.678-.49.858-.609 1.136-.75.214-.109.335-.207.477-.389.168-.214.249-.272.677-.484l.529-.258c.092-.037-.104-.181-.508-.375-.444-.212-2.414-.984-2.681-1.05a6.76 6.76 0 0 1-.456-.144c-.228-.08-.403-.108-.727-.117l-.426-.011-.416.272c-.828.542-1.07.841-1.199 1.484-.049.242-.107.499-.13.57-.065.204-.259.363-.47.386-.155.017-.21 0-.361-.109-.346-.252-.532-.22-.972.172-.386.343-.633.457-.993.458-.217 0-.324-.023-.478-.105-.109-.058-.233-.106-.275-.106-.11 0-.349.184-1.131.871-.654.575-.794.67-.828.567-.008-.024-.111-.055-.23-.069-.165-.02-.242-.008-.328.048-.158.103-.398.056-.453-.089a.36.36 0 0 1 .08-.432c.119-.134.123-.135.53-.135.375 0 .431-.011.652-.128a5.76 5.76 0 0 0 .517-.322c.224-.158.296-.239.385-.433.204-.445.498-.68.851-.682.133-.001.174.023.273.158.209.286.324.39.456.414.119.021.168-.013.575-.405.48-.463.706-.597 1.011-.604.16-.003.236.024.422.153.125.086.241.157.259.157s.045-.077.06-.171a6.4 6.4 0 0 1 .436-1.284c.08-.16.231-.382.335-.493l.189-.202-.88-.036C19.522.58 19.074.595 18.088.719c-2.653.336-4.68.932-6.854 2.016-.891.444-2.516 1.402-2.75 1.621-.197.184-.3.426-.301.705-.002.404-.117 1.022-.277 1.482-.085.244-.391.936-.68 1.536S6.611 9.43 6.5 9.751c-.198.575-.2.588-.235 1.321-.046.98-.046 1.011-.011 1.82.023.535.015.794-.033 1.107-.077.493-.153.673-.475 1.115-.291.4-.465.732-.522.995-.023.105-.055.495-.071.868-.028.657-.026.687.081 1.005.061.18.223.564.36.853.213.448.289.564.519.786.266.257.522.425.649.425.057 0 .065-.145.065-1.168v-1.168l.13-.325c.149-.373.331-.703.466-.848.081-.086.123-.097.304-.08.204.02.226.036.688.502.472.476.745.672.935.672.147 0 .377.257.461.516a3.17 3.17 0 0 0 .18.426c.107.2.107.203.07.847a22.93 22.93 0 0 0-.035 1.196c.003.51.013.577.136.905.289.771.871 1.479 1.289 1.57.19.041.226.02.328-.19z" fill="#a4cfef"/><path d="M18.469 39.687c-3.534-.258-6.725-1.345-9.631-3.279-1.231-.82-2.033-1.487-3.113-2.588-1.561-1.592-2.672-3.162-3.7-5.224C.887 26.313.297 24.216.049 21.571c-.075-.793-.062-2.759.023-3.619.242-2.444.836-4.538 1.909-6.731 1.999-4.086 5.018-7.131 9.092-9.171C13.214.977 15.339.354 17.792.079c.945-.106 3.271-.105 4.212.001 2.488.282 4.598.91 6.773 2.017 4.335 2.207 7.565 5.647 9.432 10.046 1.467 3.457 1.899 7.431 1.23 11.311-.569 3.298-2.096 6.528-4.381 9.271-.459.55-1.668 1.763-2.258 2.265-2.177 1.851-4.791 3.248-7.528 4.023-.992.281-2.289.519-3.459.634-.621.061-2.709.086-3.344.039zm1.355-.929c.402-.046.957-.158 1.06-.213.049-.026.126-.084.171-.129s.128-.081.184-.081.13-.027.162-.06c.039-.039.081-.046.119-.022.115.073.32.042.437-.067.063-.058.131-.106.152-.106s.12-.081.22-.18.278-.241.394-.315c.282-.181.941-.487 1.333-.62.175-.059.413-.156.529-.215a1.04 1.04 0 0 1 .366-.108c.138-.001 1.307-.34 1.473-.426a11.41 11.41 0 0 1 .341-.158 4.42 4.42 0 0 0 .571-.328l.783-.538c.458-.313.489-.343.517-.504.017-.095.19-.448.389-.792.437-.756.458-.808.397-.971-.072-.19.016-.347.392-.7.221-.208.433-.36.648-.465l.319-.156h.689c.867 0 1.692-.096 2.002-.234.275-.122.589-.204 1.118-.295.218-.037.546-.115.729-.173.296-.094.347-.125.458-.286.069-.1.305-.379.526-.621.312-.342.407-.475.427-.597a.43.43 0 0 1 .152-.264c.09-.076.127-.145.127-.236 0-.145-.014-.151-.466-.194-.205-.02-.302-.052-.381-.125-.086-.08-.168-.102-.444-.121a9.05 9.05 0 0 1-.635-.069c-.282-.044-.33-.038-.988.125-2.618.645-4.648 1.711-5.553 2.917-.115.154-.21.298-.21.322s-.11.261-.245.527c-.179.356-.269.491-.338.507-.052.013-.281.232-.509.489-.28.314-.821.814-1.662 1.535l-1.356 1.175c-.06.058-.132.106-.16.106-.117 0-.387.216-.387.31 0 .065-.122.112-.29.113-.102.001-.684.285-.684.335 0 .015-.071.064-.159.109a6.72 6.72 0 0 0-.434.259 6.59 6.59 0 0 1-1.355.655c-.843.302-1.82.712-1.82.763 0 .057.44.208.529.181.047-.014.208-.039.36-.057zm-3.338-4.381c1.362-.13 2.653-.412 3.524-.767.879-.359 1.439-.721 2.413-1.56.88-.758 1.775-1.494 3.179-2.615 1.526-1.218 2.135-1.849 3.057-3.166.99-1.413 1.884-3.222 2.439-4.932 1.062-3.276.923-5.921-.418-7.939a5.7 5.7 0 0 0-1.395-1.362c-.233-.155-.795-.46-1.249-.679a29.21 29.21 0 0 1-2.392-1.302c-1.03-.632-2.104-1.114-2.89-1.299-.284-.067-.519-.076-1.767-.074a21.54 21.54 0 0 0-2.625.118l-1.224.127c-.021.006.241.149.582.318.359.177.648.347.685.403.057.087.055.131-.022.432-.109.429-.338.907-.721 1.502-.37.575-.677 1.178-.823 1.617-.196.59-.224.958-.208 2.754.019 2.101.042 2.259.612 4.115.224.729.263.906.282 1.276.021.417.019.431-.079.495-.349.227-2.305.19-4.45-.084l-.2-.026.068.2c.07.206.063.47-.024.932-.022.116-.041.511-.043.876-.004.969-.089 1.281-.432 1.575-.127.109-.204.146-.266.128-.136-.04-.614-.364-.959-.652-.562-.468-1.902-1.784-1.987-1.951-.077-.152-.114-.394-.191-1.276-.03-.341-.139-.527-.376-.644-.164-.08-.169-.08-.55.01a15.64 15.64 0 0 0-.739.198c-.195.059-.485.119-.644.134-.259.024-.313.015-.522-.087-.287-.14-.603-.479-1.002-1.074-.47-.702-.784-1.435-.999-2.337-.131-.548-.185-1.842-.101-2.416a5.45 5.45 0 0 1 .709-1.981c.254-.428.552-1.025.67-1.339.052-.14.164-.569.248-.954a25.69 25.69 0 0 1 .329-1.312c.173-.603.176-.624.185-1.353.008-.612.026-.801.103-1.088.111-.409.283-.701.484-.82.18-.106.289-.329.311-.632l.016-.233-.288.317c-.159.175-.574.613-.924.974-2.303 2.38-3.634 4.471-4.147 6.516-.236.941-.645 3.119-.783 4.173-.167 1.272-.277 2.907-.242 3.598.027.547.178 1.533.35 2.284.275 1.206.95 3.292 1.29 3.993.178.366.267.491.559.786s.42.387.789.573c.559.282.744.41 1.006.697.278.304.742.989 1.085 1.603.706 1.261 1.03 1.558 2.203 2.018a20.36 20.36 0 0 0 5.509 1.245 29.54 29.54 0 0 0 2.991-.033zm-4.645-6.479c-.065-.223-.064-.242.014-.392.066-.127.106-.157.205-.157h.123l.012.303c.012.293.008.306-.112.392-.069.049-.136.089-.149.089s-.055-.105-.092-.234zm-5.073-2.79c-.148-.275.024-.489.392-.489.175 0 .428.115.429.194 0 .025-.048.091-.108.147-.077.073-.101.129-.084.198.027.108-.05.131-.144.043-.045-.042-.06-.042-.075 0-.011.029-.089.053-.176.053-.135 0-.167-.02-.235-.146zm13.407-2.49a.64.64 0 0 1-.121-.732c.058-.14.071-.147.273-.147.209 0 .213.002.257.159.11.39.105.458-.043.642-.158.196-.242.214-.366.078zM2.806 18.113c-.124-.047-.225-.164-.323-.373-.115-.244-.127-.412-.037-.487.035-.029.063-.078.063-.11s-.026-.047-.063-.033c-.091.035-.082-.126.026-.454.16-.487.211-.547.467-.547h.126l-.029.307c-.02.208-.054.335-.107.393a.92.92 0 0 0-.187.602c.024.131.105.196.107.085.002-.145.069-.164.227-.066.149.093.155.106.134.282-.043.353-.178.487-.404.4zM18.51 16.77c-.102-.031-.145-.067-.136-.114.007-.037-.035-.159-.094-.271-.11-.207-.151-.571-.063-.571s.29.127.355.221c.054.077.066.081.066.021 0-.105.114-.09.235.031.15.15.135.316-.049.538l-.159.187c-.003.002-.073-.017-.155-.042zm-6.729 6.134c.086-.177.086-.189.017-.324-.04-.077-.108-.188-.151-.247-.058-.079-.124-.4-.251-1.227l-.172-1.12.141-.293c.202-.419.32-.534.549-.533a2.57 2.57 0 0 1 .499.085 2.67 2.67 0 0 0 .557.084c.232 0 .252.009.469.211.565.527 1.515 1.155 1.893 1.252.225.058.317.033.598-.156l.191-.129-.027-.377c-.023-.322-.043-.397-.139-.515-.515-.634-.718-1.081-1.015-2.233l-.298-1.118c-.047-.153-.052-.23-.019-.292.115-.215.118-.322.012-.449-.174-.207-.107-.585.154-.859.211-.222.389-.22.876.008.199.093.368.169.377.169s.015-.071.015-.159c-.001-.234-.094-.543-.268-.888-.154-.305-.154-.307-.154-.857v-.551h.169c.165 0 .169-.004.169-.147a1.26 1.26 0 0 0-.317-.742l-.148-.144v-.579c0-.574.001-.582.152-.912a11.09 11.09 0 0 0 .335-.888c.229-.691.365-1.018.577-1.382.155-.266.178-.287.345-.313.14-.022.219-.071.369-.232.2-.214.425-.334.623-.333.065 0 .274.065.465.144l.347.143.062-.176c.034-.097.073-.225.085-.285.046-.218 1.709-1.552 2.252-1.806l.25-.117 1.058.004a20.89 20.89 0 0 1 1.341.037c.381.044.671-.05 1.089-.352.678-.49.858-.609 1.136-.75.214-.109.335-.207.477-.389.168-.214.249-.272.677-.484l.529-.258c.092-.037-.104-.181-.508-.375-.444-.212-2.414-.984-2.681-1.05a6.76 6.76 0 0 1-.456-.144c-.228-.08-.403-.108-.727-.117l-.426-.011-.416.272c-.828.542-1.07.841-1.199 1.484-.049.242-.107.499-.13.57-.065.204-.259.363-.47.386-.155.017-.21 0-.361-.109-.346-.252-.532-.22-.972.172-.386.343-.633.457-.993.458-.217 0-.324-.023-.478-.105-.109-.058-.233-.106-.275-.106-.11 0-.349.184-1.131.871-.654.575-.794.67-.828.567-.008-.024-.111-.055-.23-.069-.165-.02-.242-.008-.328.048-.158.103-.398.056-.453-.089a.36.36 0 0 1 .08-.432c.119-.134.123-.135.53-.135.375 0 .431-.011.652-.128a5.76 5.76 0 0 0 .517-.322c.224-.158.296-.239.385-.433.204-.445.498-.68.851-.682.133-.001.174.023.273.158.209.286.324.39.456.414.119.021.168-.013.575-.405.48-.463.706-.597 1.011-.604.16-.003.236.024.422.153.125.086.241.157.259.157s.045-.077.06-.171a6.4 6.4 0 0 1 .436-1.284c.08-.16.231-.382.335-.493l.189-.202-.88-.036C19.522.58 19.074.595 18.088.719c-2.653.336-4.68.932-6.854 2.016-.891.444-2.516 1.402-2.75 1.621-.197.184-.3.426-.301.705-.002.404-.117 1.022-.277 1.482-.085.244-.391.936-.68 1.536S6.611 9.43 6.5 9.751c-.198.575-.2.588-.235 1.321-.046.98-.046 1.011-.011 1.82.023.535.015.794-.033 1.107-.077.493-.153.673-.475 1.115-.291.4-.465.732-.522.995-.023.105-.055.495-.071.868-.028.657-.026.687.081 1.005.061.18.223.564.36.853.213.448.289.564.519.786.266.257.522.425.649.425.057 0 .065-.145.065-1.168v-1.168l.13-.325c.149-.373.331-.703.466-.848.081-.086.123-.097.304-.08.204.02.226.036.688.502.472.476.745.672.935.672.147 0 .377.257.461.516a3.17 3.17 0 0 0 .18.426c.107.2.107.203.07.847a22.93 22.93 0 0 0-.035 1.196c.003.51.013.577.136.905.289.771.871 1.479 1.289 1.57.19.041.226.02.328-.19z" fill="#84b5e1"/><path d="M18.469 39.687c-3.534-.258-6.725-1.345-9.631-3.279-1.231-.82-2.033-1.487-3.113-2.588-1.561-1.592-2.672-3.162-3.7-5.224C.887 26.313.297 24.216.049 21.571c-.075-.793-.062-2.759.023-3.619.242-2.444.836-4.538 1.909-6.731 1.999-4.086 5.018-7.131 9.092-9.171C13.214.977 15.339.354 17.792.079c.945-.106 3.271-.105 4.212.001 2.488.282 4.598.91 6.773 2.017 4.335 2.207 7.565 5.647 9.432 10.046 1.467 3.457 1.899 7.431 1.23 11.311-.569 3.298-2.096 6.528-4.381 9.271-.459.55-1.668 1.763-2.258 2.265-2.177 1.851-4.791 3.248-7.528 4.023-.992.281-2.289.519-3.459.634-.621.061-2.709.086-3.344.039zm2.871-.596c.311-.037.44-.072.536-.145.174-.133.657-.357.769-.357.05 0 .099-.021.107-.046.015-.045.345-.152.606-.197.07-.012.161-.058.203-.101s.112-.079.157-.079c.1 0 .297-.087.297-.13 0-.018.1-.064.222-.104a5.1 5.1 0 0 0 .392-.146c.225-.098.429-.17.635-.224a27.33 27.33 0 0 0 .571-.162l.603-.168c.111-.028.201-.063.201-.078 0-.049.224-.159.57-.281.313-.11.688-.308.82-.432.031-.029.105-.053.165-.053.065 0 .156-.05.227-.124.065-.068.185-.155.266-.194s.182-.12.225-.181a4.19 4.19 0 0 1 .311-.352c.305-.315.318-.333.381-.528.03-.092.099-.274.154-.405s.1-.258.1-.281a2.48 2.48 0 0 1 .162-.366c.156-.311.685-.949.869-1.049.147-.08 1.135-.203 1.424-.178.266.023.602.117.707.197.075.057.102.028.341-.362.203-.332.63-.788.744-.795.027-.002.011-.019-.035-.039-.151-.065-.429-.044-.832.062a9.96 9.96 0 0 1-1.433.255 8.83 8.83 0 0 0-1.228.22c-.432.121-.607.397-.91 1.432-.336 1.147-.594 1.593-1.059 1.829a2.11 2.11 0 0 0-.389.27c-.469.429-2.498 1.243-3.32 1.332-.228.025-.385.089-1 .408-.464.241-.749.366-.783.344s-.176-.044-.325-.056-.278-.04-.285-.063c-.016-.053.4-.302.874-.524.198-.093.95-.353 1.672-.578 1.404-.439 1.818-.607 2.286-.931l.783-.538c.458-.313.489-.343.517-.504.017-.095.19-.448.389-.792.437-.756.458-.808.397-.971-.036-.096-.034-.157.008-.258.086-.209.67-.729.998-.891l.288-.142.914-.033c1.074-.039 1.541-.097 1.848-.233.27-.12.586-.203 1.113-.293.218-.037.546-.115.729-.173.296-.094.347-.125.458-.286.069-.1.305-.379.526-.621.312-.342.407-.475.427-.597a.43.43 0 0 1 .152-.264c.09-.076.127-.145.127-.236 0-.145-.014-.151-.466-.194-.205-.02-.302-.052-.381-.125-.086-.08-.168-.102-.444-.121a9.05 9.05 0 0 1-.635-.069c-.282-.044-.33-.038-.988.125-1.741.429-3.065.971-4.223 1.728-.807.528-1.244.979-1.67 1.724-.531.928-1.157 1.602-2.728 2.936l-1.213 1.044c-.085.08-.175.145-.2.145s-.175.079-.332.176a8.92 8.92 0 0 1-.687.367 5.26 5.26 0 0 0-.723.43c-.409.303-.98.598-1.557.805-.846.303-1.828.714-1.828.765 0 .074 1.022.394 1.462.458.364.053.486.053.944-.001zm-3.064-4.1c.232-.025.501-.072.599-.105s.303-.082.457-.109c.177-.031.349-.095.471-.176.169-.112.455-.211.953-.329.305-.073.431-.128 1.023-.449l.956-.535a3.47 3.47 0 0 1 .651-.301c.061-.015.204-.104.317-.198s.226-.17.25-.17.14-.062.257-.138c.221-.143.254-.167.786-.583.178-.139.353-.253.389-.253s.076-.017.089-.038.105-.08.204-.131.237-.146.307-.212.241-.178.381-.251c.38-.197.612-.378.838-.649.112-.135.274-.291.36-.347a3.14 3.14 0 0 0 .305-.233 3.85 3.85 0 0 1 .317-.246 3.3 3.3 0 0 0 .36-.301 4.88 4.88 0 0 1 .405-.346c.118-.088.271-.216.339-.284a1.22 1.22 0 0 1 .222-.177c.163-.088.422-.324.862-.787.133-.14.332-.34.443-.444a9.02 9.02 0 0 0 .471-.497c.148-.169.291-.308.319-.308s.084-.048.126-.106c.065-.09.067-.105.011-.105-.12 0-.077-.201.067-.306.217-.158.968-1.084 1.142-1.406a11.72 11.72 0 0 0 1.031-2.706c.174-.774.236-1.299.264-2.208s-.007-1.556-.178-3.408l-.104-1.122-.253-.604c-.139-.332-.341-.846-.448-1.143-.597-1.65-1.006-2.409-2.132-3.961-.629-.866-.75-.941-2.509-1.534-1.659-.56-2.367-.932-2.532-1.332-.066-.158-.391-.337-.613-.337a.55.55 0 0 1-.245-.059.9.9 0 0 0-.263-.088c-.093-.016-.19-.047-.216-.068-.063-.052-.368-.1-2.409-.381-.711-.098-.625-.11-1.291.182-.338.148-.7.329-.804.402-.229.16-.465.375-.465.424 0 .019.319.068.709.107.76.077 1.256.188 2.064.463.724.246 1.302.505 2.794 1.252.722.361 1.577.769 1.901.905.747.315 1.438.772 2.402 1.587 1.259 1.065 2.174 2.556 2.595 4.23.197.783.245 1.154.267 2.062a11.81 11.81 0 0 1-.184 2.571l-.189 1.119c-.181 1.09-.479 2.014-.97 3.009-.393.797-.664 1.213-1.567 2.413-1.265 1.681-2.488 3.093-2.936 3.39-.462.306-1.317.936-2.208 1.625-2.105 1.63-3.589 2.535-5.197 3.171-.597.236-1.499.513-1.915.588l-.169.031.233.022c.128.012.28.008.339-.009a5.3 5.3 0 0 1 .527-.076zm-1.79-.614c1.362-.13 2.653-.412 3.524-.767.879-.359 1.439-.721 2.413-1.56.88-.758 1.775-1.494 3.179-2.615 1.526-1.218 2.135-1.849 3.057-3.166.99-1.413 1.884-3.222 2.439-4.932 1.062-3.276.923-5.921-.418-7.939a5.7 5.7 0 0 0-1.395-1.362c-.233-.155-.795-.46-1.249-.679a29.21 29.21 0 0 1-2.392-1.302c-1.03-.632-2.104-1.114-2.89-1.299-.284-.067-.519-.076-1.767-.074a21.54 21.54 0 0 0-2.625.118l-1.224.127c-.021.006.241.149.582.318.359.177.648.347.685.403.057.087.055.131-.022.432-.109.429-.338.907-.721 1.502-.37.575-.677 1.178-.823 1.617-.196.59-.224.958-.208 2.754.019 2.101.042 2.259.612 4.115.224.729.263.906.282 1.276.021.417.019.431-.079.495-.349.227-2.305.19-4.45-.084l-.2-.026.068.2c.07.206.063.47-.024.932-.022.116-.041.511-.043.876-.004.969-.089 1.281-.432 1.575-.127.109-.204.146-.266.128-.136-.04-.614-.364-.959-.652-.562-.468-1.902-1.784-1.987-1.951-.077-.152-.114-.394-.191-1.276-.03-.341-.139-.527-.376-.644-.164-.08-.169-.08-.55.01a15.64 15.64 0 0 0-.739.198c-.195.059-.485.119-.644.134-.259.024-.313.015-.522-.087-.287-.14-.603-.479-1.002-1.074-.47-.702-.784-1.435-.999-2.337-.131-.548-.185-1.842-.101-2.416a5.45 5.45 0 0 1 .709-1.981c.254-.428.552-1.025.67-1.339.052-.14.164-.569.248-.954a25.69 25.69 0 0 1 .329-1.312c.173-.603.176-.624.185-1.353.008-.612.026-.801.103-1.088.111-.409.283-.701.484-.82.18-.106.289-.329.311-.632l.016-.233-.288.317c-.159.175-.574.613-.924.974-2.303 2.38-3.634 4.471-4.147 6.516-.236.941-.645 3.119-.783 4.173-.167 1.272-.277 2.907-.242 3.598.027.547.178 1.533.35 2.284.275 1.206.95 3.292 1.29 3.993.178.366.267.491.559.786s.42.387.789.573c.559.282.744.41 1.006.697.278.304.742.989 1.085 1.603.706 1.261 1.03 1.558 2.203 2.018a20.36 20.36 0 0 0 5.509 1.245 29.54 29.54 0 0 0 2.991-.033zm-4.645-6.479c-.065-.223-.064-.242.014-.392.066-.127.106-.157.205-.157h.123l.012.303c.012.293.008.306-.112.392-.069.049-.136.089-.149.089s-.055-.105-.092-.234zm-5.073-2.79c-.148-.275.024-.489.392-.489.175 0 .428.115.429.194 0 .025-.048.091-.108.147-.077.073-.101.129-.084.198.027.108-.05.131-.144.043-.045-.042-.06-.042-.075 0-.011.029-.089.053-.176.053-.135 0-.167-.02-.235-.146zm13.407-2.49a.64.64 0 0 1-.121-.732c.058-.14.071-.147.273-.147.209 0 .213.002.257.159.11.39.105.458-.043.642-.158.196-.242.214-.366.078zM2.806 18.113c-.124-.047-.225-.164-.323-.373-.115-.244-.127-.412-.037-.487.035-.029.063-.078.063-.11s-.026-.047-.063-.033c-.091.035-.082-.126.026-.454.16-.487.211-.547.467-.547h.126l-.029.307c-.02.208-.054.335-.107.393a.92.92 0 0 0-.187.602c.024.131.105.196.107.085.002-.145.069-.164.227-.066.149.093.155.106.134.282-.043.353-.178.487-.404.4zM18.51 16.77c-.102-.031-.145-.067-.136-.114.007-.037-.035-.159-.094-.271-.11-.207-.151-.571-.063-.571s.29.127.355.221c.054.077.066.081.066.021 0-.105.114-.09.235.031.15.15.135.316-.049.538l-.159.187c-.003.002-.073-.017-.155-.042zm-6.729 6.134c.086-.177.086-.189.017-.324-.04-.077-.108-.188-.151-.247-.058-.079-.124-.4-.251-1.227l-.172-1.12.141-.293c.202-.419.32-.534.549-.533a2.57 2.57 0 0 1 .499.085 2.67 2.67 0 0 0 .557.084c.232 0 .252.009.469.211.565.527 1.515 1.155 1.893 1.252.225.058.317.033.598-.156l.191-.129-.027-.377c-.023-.322-.043-.397-.139-.515-.515-.634-.718-1.081-1.015-2.233l-.298-1.118c-.047-.153-.052-.23-.019-.292.115-.215.118-.322.012-.449-.174-.207-.107-.585.154-.859.211-.222.389-.22.876.008.199.093.368.169.377.169s.015-.071.015-.159c-.001-.234-.094-.543-.268-.888-.154-.305-.154-.307-.154-.857v-.551h.169c.165 0 .169-.004.169-.147a1.26 1.26 0 0 0-.317-.742l-.148-.144v-.579c0-.574.001-.582.152-.912a11.09 11.09 0 0 0 .335-.888c.229-.691.365-1.018.577-1.382.155-.266.178-.287.345-.313.14-.022.219-.071.369-.232.2-.214.425-.334.623-.333.065 0 .274.065.465.144l.347.143.062-.176c.034-.097.073-.225.085-.285.046-.218 1.709-1.552 2.252-1.806l.25-.117 1.058.004a20.89 20.89 0 0 1 1.341.037c.381.044.671-.05 1.089-.352.678-.49.858-.609 1.136-.75.214-.109.335-.207.477-.389.168-.214.249-.272.677-.484l.529-.258c.092-.037-.104-.181-.508-.375-.444-.212-2.414-.984-2.681-1.05a6.76 6.76 0 0 1-.456-.144c-.228-.08-.403-.108-.727-.117l-.426-.011-.416.272c-.828.542-1.07.841-1.199 1.484-.049.242-.107.499-.13.57-.065.204-.259.363-.47.386-.155.017-.21 0-.361-.109-.346-.252-.532-.22-.972.172-.386.343-.633.457-.993.458-.217 0-.324-.023-.478-.105-.109-.058-.233-.106-.275-.106-.11 0-.349.184-1.131.871-.654.575-.794.67-.828.567-.008-.024-.111-.055-.23-.069-.165-.02-.242-.008-.328.048-.158.103-.398.056-.453-.089a.36.36 0 0 1 .08-.432c.119-.134.123-.135.53-.135.375 0 .431-.011.652-.128a5.76 5.76 0 0 0 .517-.322c.224-.158.296-.239.385-.433.204-.445.498-.68.851-.682.133-.001.174.023.273.158.209.286.324.39.456.414.119.021.168-.013.575-.405.48-.463.706-.597 1.011-.604.16-.003.236.024.422.153.125.086.241.157.259.157s.045-.077.06-.171a6.4 6.4 0 0 1 .436-1.284c.08-.16.231-.382.335-.493l.189-.202-.88-.036C19.522.58 19.074.595 18.088.719c-2.653.336-4.68.932-6.854 2.016-.891.444-2.516 1.402-2.75 1.621-.197.184-.3.426-.301.705-.002.404-.117 1.022-.277 1.482-.085.244-.391.936-.68 1.536S6.611 9.43 6.5 9.751c-.198.575-.2.588-.235 1.321-.046.98-.046 1.011-.011 1.82.023.535.015.794-.033 1.107-.077.493-.153.673-.475 1.115-.291.4-.465.732-.522.995-.023.105-.055.495-.071.868-.028.657-.026.687.081 1.005.061.18.223.564.36.853.213.448.289.564.519.786.266.257.522.425.649.425.057 0 .065-.145.065-1.168v-1.168l.13-.325c.149-.373.331-.703.466-.848.081-.086.123-.097.304-.08.204.02.226.036.688.502.472.476.745.672.935.672.147 0 .377.257.461.516a3.17 3.17 0 0 0 .18.426c.107.2.107.203.07.847a22.93 22.93 0 0 0-.035 1.196c.003.51.013.577.136.905.289.771.871 1.479 1.289 1.57.19.041.226.02.328-.19z" fill="#699ecb"/><path d="M18.469 39.687c-3.534-.258-6.725-1.345-9.631-3.279-1.231-.82-2.033-1.487-3.113-2.588-1.561-1.592-2.672-3.162-3.7-5.224C.887 26.313.297 24.216.049 21.571c-.075-.793-.062-2.759.023-3.619.242-2.444.836-4.538 1.909-6.731 1.999-4.086 5.018-7.131 9.092-9.171C13.214.977 15.339.354 17.792.079c.945-.106 3.271-.105 4.212.001 2.488.282 4.598.91 6.773 2.017 4.335 2.207 7.565 5.647 9.432 10.046 1.467 3.457 1.899 7.431 1.23 11.311-.569 3.298-2.096 6.528-4.381 9.271-.459.55-1.668 1.763-2.258 2.265-2.177 1.851-4.791 3.248-7.528 4.023-.992.281-2.289.519-3.459.634-.621.061-2.709.086-3.344.039zm3.556-.675c1.56-.184 1.766-.226 2.988-.614a43.33 43.33 0 0 1 1.337-.399c.337-.093.772-.237.967-.32a16.14 16.14 0 0 0 2.307-1.255c1.691-1.126 2.69-2.155 3.72-3.831.222-.361.642-.815.76-.822.027-.002.011-.019-.035-.039-.151-.065-.429-.044-.832.062a9.96 9.96 0 0 1-1.433.255 8.83 8.83 0 0 0-1.228.22c-.432.121-.607.397-.91 1.432-.336 1.147-.594 1.593-1.059 1.829a2.11 2.11 0 0 0-.389.27c-.469.429-2.498 1.243-3.32 1.332-.228.025-.385.089-1 .408-.464.241-.749.366-.783.344s-.176-.044-.325-.056-.278-.04-.285-.063c-.016-.053.4-.302.874-.524.198-.093.95-.353 1.672-.578 1.404-.439 1.818-.607 2.286-.931l.783-.538c.458-.313.489-.343.517-.504.017-.095.19-.448.389-.792.437-.756.458-.808.397-.971-.036-.096-.034-.157.008-.258.086-.209.67-.729.998-.891l.288-.142.914-.033c1.074-.039 1.541-.097 1.848-.233.27-.12.586-.203 1.113-.293.218-.037.546-.115.729-.173.296-.094.347-.125.458-.286.069-.1.305-.379.526-.621.312-.342.407-.475.427-.597a.43.43 0 0 1 .152-.264c.09-.076.127-.145.127-.236 0-.145-.014-.151-.466-.194-.205-.02-.302-.052-.381-.125-.086-.08-.168-.102-.444-.121a9.05 9.05 0 0 1-.635-.069c-.282-.044-.33-.038-.988.125-1.741.429-3.065.971-4.223 1.728-.807.528-1.244.979-1.67 1.724-.531.928-1.157 1.602-2.728 2.936l-1.213 1.044c-.085.08-.175.145-.2.145s-.175.079-.332.176a8.92 8.92 0 0 1-.687.367 5.26 5.26 0 0 0-.723.43c-.409.303-.98.598-1.557.805-.846.303-1.828.714-1.828.765 0 .074 1.022.394 1.462.458.4.058.488.054 1.628-.08zm-3.937-2.547c.384-.028.708-.064.72-.081.034-.047.611-.208.748-.208.12 0 .888-.24 1.056-.33.045-.024.44-.065.878-.092.838-.051.93-.07 1.173-.237.1-.069.25-.117.444-.142.162-.021.365-.069.451-.106s.247-.067.356-.067c.184 0 .227-.023.604-.328.223-.18.851-.766 1.394-1.302.806-.793 1.083-1.099 1.5-1.651 1.193-1.579 1.664-2.096 2.183-2.392.143-.081.417-.26.61-.396.847-.6 3.209-1.629 4.061-1.77.182-.03.29-.068.29-.102s.045-.09.1-.133.112-.116.127-.162.085-.15.155-.231c.175-.202.422-.574.422-.637s.159-.336.229-.4c.111-.101.283-.416.329-.602.1-.405.301-1.01.38-1.141.045-.074.092-.236.105-.36a2.55 2.55 0 0 1 .104-.458c.044-.128.098-.461.12-.741s.062-.613.089-.741c.039-.189.095-1.911.133-4.127a6.25 6.25 0 0 0-.046-.741l-.089-.698c-.065-.515-.095-.676-.137-.729-.022-.028-.057-.248-.077-.487-.041-.498-.079-.71-.126-.71-.018 0-.054-.138-.08-.307-.101-.66-.204-1.069-.333-1.318-.065-.126-.189-.566-.378-1.338-.095-.388-.267-.825-.35-.889-.039-.03-.212-.399-.212-.452 0-.024-.052-.113-.116-.197-.218-.285-.35-.526-.435-.794-.047-.147-.1-.278-.117-.29-.082-.059-.393-.491-.472-.654a1.86 1.86 0 0 0-.259-.367c-.094-.102-.221-.252-.282-.334a8.31 8.31 0 0 0-.254-.319c-.199-.236-.223-.268-.223-.296 0-.014-.035-.063-.078-.109s-.172-.269-.286-.495-.231-.436-.26-.468a.22.22 0 0 1-.053-.128c0-.099-.155-.257-.54-.548a16.79 16.79 0 0 0-3.141-1.85l-.527-.238-.574.594c-.547.567-.806.761-1.019.764-.035.001-.388.202-.783.448s-.88.527-1.076.624c-.418.208-.477.212-1.741.119L22 5.262l-.225.114a18.67 18.67 0 0 1-.754.342c-.291.125-.617.285-.725.356-.222.144-.514.404-.514.457 0 .019.319.067.709.107.76.077 1.256.188 2.064.463.724.246 1.302.505 2.794 1.252.722.361 1.577.769 1.901.905.747.315 1.438.772 2.402 1.587 1.259 1.065 2.174 2.556 2.595 4.23.197.783.245 1.154.267 2.062a11.81 11.81 0 0 1-.184 2.571l-.189 1.119c-.181 1.09-.479 2.014-.97 3.009-.393.797-.664 1.213-1.567 2.413-1.265 1.681-2.488 3.093-2.936 3.39-.462.306-1.317.936-2.208 1.625-2.105 1.63-3.589 2.535-5.197 3.171-1.642.65-3.077.881-5.208.84-1.588-.03-1.778-.063-5.301-.919-.854-.207-2.084-.466-2.215-.466s.119.158.289.186c.093.015.169.046.169.069s.029.042.063.042.063.017.063.039.157.091.349.154.359.127.37.141c.044.054.24.125.402.148.093.013.175.042.183.064s.155.083.328.134.315.109.315.128.071.046.159.061c.325.054.73.159.73.19 0 .042.646.237.906.274.114.016.238.045.275.065.157.084.511.18.788.215.66.082.856.112 1.048.159.457.112.595.134.831.134.136 0 .331.031.433.069.172.064.344.085 1.498.183.659.056 1.121.113 1.151.143.041.041.424.034 1.199-.022zm13.589-10.384c0-.068.046-.138.132-.201.217-.158.968-1.084 1.142-1.406a11.72 11.72 0 0 0 1.031-2.706c.174-.774.236-1.299.264-2.208s-.007-1.556-.178-3.408l-.104-1.122-.253-.604c-.139-.332-.341-.846-.448-1.143-.597-1.65-1.006-2.409-2.132-3.961-.629-.866-.75-.941-2.509-1.534-1.271-.429-1.95-.731-2.264-1.008-.252-.222-.394-.522-.394-.836-.001-.291.072-.396.419-.607.243-.148.256-.15.703-.15.42 0 .484.011.841.15.212.083.777.344 1.254.582.785.39.895.458 1.148.712.281.281.63.87.63 1.064 0 .05.163.255.393.495 1.816 1.892 3.097 4.949 3.53 8.428.062.494.076.927.077 2.222 0 1.599 0 1.612-.118 2.159-.383 1.79-1.328 3.671-2.44 4.858-.303.323-.311.328-.515.328-.192 0-.207-.008-.207-.105zm-15.191 8.297c1.362-.13 2.653-.412 3.524-.767.879-.359 1.439-.721 2.413-1.56.88-.758 1.775-1.494 3.179-2.615 1.526-1.218 2.135-1.849 3.057-3.166.99-1.413 1.884-3.222 2.439-4.932 1.062-3.276.923-5.921-.418-7.939a5.7 5.7 0 0 0-1.395-1.362c-.233-.155-.795-.46-1.249-.679a29.21 29.21 0 0 1-2.392-1.302c-1.03-.632-2.104-1.114-2.89-1.299-.284-.067-.519-.076-1.767-.074a21.54 21.54 0 0 0-2.625.118l-1.224.127c-.021.006.241.149.582.318.359.177.648.347.685.403.057.087.055.131-.022.432-.109.429-.338.907-.721 1.502-.37.575-.677 1.178-.823 1.617-.196.59-.224.958-.208 2.754.019 2.101.042 2.259.612 4.115.224.729.263.906.282 1.276.021.417.019.431-.079.495-.349.227-2.305.19-4.45-.084l-.2-.026.068.2c.07.206.063.47-.024.932-.022.116-.041.511-.043.876-.004.969-.089 1.281-.432 1.575-.127.109-.204.146-.266.128-.136-.04-.614-.364-.959-.652-.562-.468-1.902-1.784-1.987-1.951-.077-.152-.114-.394-.191-1.276-.03-.341-.139-.527-.376-.644-.164-.08-.169-.08-.55.01a15.64 15.64 0 0 0-.739.198c-.195.059-.485.119-.644.134-.259.024-.313.015-.522-.087-.287-.14-.603-.479-1.002-1.074-.47-.702-.784-1.435-.999-2.337-.131-.548-.185-1.842-.101-2.416a5.45 5.45 0 0 1 .709-1.981c.254-.428.552-1.025.67-1.339.052-.14.164-.569.248-.954a25.69 25.69 0 0 1 .329-1.312c.173-.603.176-.624.185-1.353.008-.612.026-.801.103-1.088.111-.409.283-.701.484-.82.18-.106.289-.329.311-.632l.016-.233-.288.317c-.159.175-.574.613-.924.974-2.303 2.38-3.634 4.471-4.147 6.516-.236.941-.645 3.119-.783 4.173-.167 1.272-.277 2.907-.242 3.598.027.547.178 1.533.35 2.284.275 1.206.95 3.292 1.29 3.993.178.366.267.491.559.786s.42.387.789.573c.559.282.744.41 1.006.697.278.304.742.989 1.085 1.603.706 1.261 1.03 1.558 2.203 2.018a20.36 20.36 0 0 0 5.509 1.245 29.54 29.54 0 0 0 2.991-.033zm-4.645-6.479c-.065-.223-.064-.242.014-.392.066-.127.106-.157.205-.157h.123l.012.303c.012.293.008.306-.112.392-.069.049-.136.089-.149.089s-.055-.105-.092-.234zm-5.073-2.79c-.148-.275.024-.489.392-.489.175 0 .428.115.429.194 0 .025-.048.091-.108.147-.077.073-.101.129-.084.198.027.108-.05.131-.144.043-.045-.042-.06-.042-.075 0-.011.029-.089.053-.176.053-.135 0-.167-.02-.235-.146zm13.407-2.49a.64.64 0 0 1-.121-.732c.058-.14.071-.147.273-.147.209 0 .213.002.257.159.11.39.105.458-.043.642-.158.196-.242.214-.366.078zM2.806 18.113c-.124-.047-.225-.164-.323-.373-.115-.244-.127-.412-.037-.487.035-.029.063-.078.063-.11s-.026-.047-.063-.033c-.091.035-.082-.126.026-.454.16-.487.211-.547.467-.547h.126l-.029.307c-.02.208-.054.335-.107.393a.92.92 0 0 0-.187.602c.024.131.105.196.107.085.002-.145.069-.164.227-.066.149.093.155.106.134.282-.043.353-.178.487-.404.4zM18.51 16.77c-.102-.031-.145-.067-.136-.114.007-.037-.035-.159-.094-.271-.11-.207-.151-.571-.063-.571s.29.127.355.221c.054.077.066.081.066.021 0-.105.114-.09.235.031.15.15.135.316-.049.538l-.159.187c-.003.002-.073-.017-.155-.042zm-6.729 6.134c.086-.177.086-.189.017-.324-.04-.077-.108-.188-.151-.247-.058-.079-.124-.4-.251-1.227l-.172-1.12.141-.293c.202-.419.32-.534.549-.533a2.57 2.57 0 0 1 .499.085 2.67 2.67 0 0 0 .557.084c.232 0 .252.009.469.211.565.527 1.515 1.155 1.893 1.252.225.058.317.033.598-.156l.191-.129-.027-.377c-.023-.322-.043-.397-.139-.515-.515-.634-.718-1.081-1.015-2.233l-.298-1.118c-.047-.153-.052-.23-.019-.292.115-.215.118-.322.012-.449-.174-.207-.107-.585.154-.859.211-.222.389-.22.876.008.199.093.368.169.377.169s.015-.071.015-.159c-.001-.234-.094-.543-.268-.888-.154-.305-.154-.307-.154-.857v-.551h.169c.165 0 .169-.004.169-.147a1.26 1.26 0 0 0-.317-.742l-.148-.144v-.579c0-.574.001-.582.152-.912a11.09 11.09 0 0 0 .335-.888c.229-.691.365-1.018.577-1.382.155-.266.178-.287.345-.313.14-.022.219-.071.369-.232.2-.214.425-.334.623-.333.065 0 .274.065.465.144l.347.143.062-.176c.034-.097.073-.225.085-.285.046-.218 1.709-1.552 2.252-1.806l.25-.117 1.058.004a20.89 20.89 0 0 1 1.341.037c.381.044.671-.05 1.089-.352.678-.49.858-.609 1.136-.75.214-.109.335-.207.477-.389.168-.214.249-.272.677-.484l.529-.258c.092-.037-.104-.181-.508-.375-.444-.212-2.414-.984-2.681-1.05a6.76 6.76 0 0 1-.456-.144c-.228-.08-.403-.108-.727-.117l-.426-.011-.416.272c-.828.542-1.07.841-1.199 1.484-.049.242-.107.499-.13.57-.065.204-.259.363-.47.386-.155.017-.21 0-.361-.109-.346-.252-.532-.22-.972.172-.386.343-.633.457-.993.458-.217 0-.324-.023-.478-.105-.109-.058-.233-.106-.275-.106-.11 0-.349.184-1.131.871-.654.575-.794.67-.828.567-.008-.024-.111-.055-.23-.069-.165-.02-.242-.008-.328.048-.158.103-.398.056-.453-.089a.36.36 0 0 1 .08-.432c.119-.134.123-.135.53-.135.375 0 .431-.011.652-.128a5.76 5.76 0 0 0 .517-.322c.224-.158.296-.239.385-.433.204-.445.498-.68.851-.682.133-.001.174.023.273.158.209.286.324.39.456.414.119.021.168-.013.575-.405.48-.463.706-.597 1.011-.604.16-.003.236.024.422.153.125.086.241.157.259.157s.045-.077.06-.171a6.4 6.4 0 0 1 .436-1.284c.08-.16.231-.382.335-.493l.189-.202-.88-.036C19.522.58 19.074.595 18.088.719c-2.653.336-4.68.932-6.854 2.016-.891.444-2.516 1.402-2.75 1.621-.197.184-.3.426-.301.705-.002.404-.117 1.022-.277 1.482-.085.244-.391.936-.68 1.536S6.611 9.43 6.5 9.751c-.198.575-.2.588-.235 1.321-.046.98-.046 1.011-.011 1.82.023.535.015.794-.033 1.107-.077.493-.153.673-.475 1.115-.291.4-.465.732-.522.995-.023.105-.055.495-.071.868-.028.657-.026.687.081 1.005.061.18.223.564.36.853.213.448.289.564.519.786.266.257.522.425.649.425.057 0 .065-.145.065-1.168v-1.168l.13-.325c.149-.373.331-.703.466-.848.081-.086.123-.097.304-.08.204.02.226.036.688.502.472.476.745.672.935.672.147 0 .377.257.461.516a3.17 3.17 0 0 0 .18.426c.107.2.107.203.07.847a22.93 22.93 0 0 0-.035 1.196c.003.51.013.577.136.905.289.771.871 1.479 1.289 1.57.19.041.226.02.328-.19z" fill="#0d5079"/><path d="M18.469 39.687c-3.534-.258-6.725-1.345-9.631-3.279-1.231-.82-2.033-1.487-3.113-2.588-1.561-1.592-2.672-3.162-3.7-5.224C.887 26.313.297 24.216.049 21.571c-.075-.793-.062-2.759.023-3.619.242-2.444.836-4.538 1.909-6.731 1.999-4.086 5.018-7.131 9.092-9.171C13.214.977 15.339.354 17.792.079c.945-.106 3.271-.105 4.212.001 2.488.282 4.598.91 6.773 2.017 4.335 2.207 7.565 5.647 9.432 10.046 1.467 3.457 1.899 7.431 1.23 11.311-.569 3.298-2.096 6.528-4.381 9.271-.459.55-1.668 1.763-2.258 2.265-2.177 1.851-4.791 3.248-7.528 4.023-.992.281-2.289.519-3.459.634-.621.061-2.709.086-3.344.039zm3.556-.675c1.56-.184 1.766-.226 2.988-.614a43.33 43.33 0 0 1 1.337-.399c.337-.093.772-.237.967-.32a16.14 16.14 0 0 0 2.307-1.255c1.691-1.126 2.69-2.155 3.72-3.831.222-.361.642-.815.76-.822.027-.002.011-.019-.035-.039-.151-.065-.429-.044-.832.062a9.96 9.96 0 0 1-1.433.255 8.83 8.83 0 0 0-1.228.22c-.432.121-.607.397-.91 1.432-.336 1.147-.594 1.593-1.059 1.829a2.11 2.11 0 0 0-.389.27c-.469.429-2.498 1.243-3.32 1.332-.228.025-.385.089-1 .408-.464.241-.749.366-.783.344s-.176-.044-.325-.056-.278-.04-.285-.063c-.016-.053.4-.302.874-.524.198-.093.95-.353 1.672-.578 1.404-.439 1.818-.607 2.286-.931l.783-.538c.458-.313.489-.343.517-.504.017-.095.19-.448.389-.792.437-.756.458-.808.397-.971-.036-.096-.034-.157.008-.258.086-.209.67-.729.998-.891l.288-.142.914-.033c1.074-.039 1.541-.097 1.848-.233.27-.12.586-.203 1.113-.293.218-.037.546-.115.729-.173.296-.094.347-.125.458-.286.069-.1.305-.379.526-.621.312-.342.407-.475.427-.597a.43.43 0 0 1 .152-.264c.09-.076.127-.145.127-.236 0-.145-.014-.151-.466-.194-.205-.02-.302-.052-.381-.125-.086-.08-.168-.102-.444-.121a9.05 9.05 0 0 1-.635-.069c-.282-.044-.33-.038-.988.125-1.741.429-3.065.971-4.223 1.728-.807.528-1.244.979-1.67 1.724-.529.925-1.148 1.592-2.734 2.947-1.178 1.006-1.621 1.324-2.343 1.678a6.44 6.44 0 0 0-.808.475c-.41.302-.982.597-1.556.803-.846.303-1.828.714-1.828.765 0 .074 1.022.394 1.462.458.4.058.488.054 1.628-.08zm-4.272-.842c2.202-.743 4.219-1.605 5.304-2.265 1.023-.623 1.63-1.12 2.898-2.372.756-.746 1.048-1.069 1.457-1.611 1.197-1.583 1.665-2.096 2.183-2.392.143-.081.417-.26.61-.396.629-.446 2.201-1.185 3.369-1.585l.58-.199.906.011c.55.006 1.062.035 1.301.074l.417.064c.012 0 .01-.074-.004-.164-.029-.179.034-.344.131-.344.133 0 .359-.26.426-.49.038-.13.2-.429.378-.698.459-.691.716-1.366.947-2.478.294-1.417.454-3.639.348-4.842-.099-1.131-.308-2.332-.641-3.682-.582-2.358-1.204-3.631-2.852-5.833-2.299-3.071-4.205-4.692-7.008-5.957l-.527-.238-.574.594c-.547.567-.806.761-1.019.764-.035.001-.388.202-.783.448s-.88.527-1.076.624c-.418.208-.477.212-1.741.119L22 5.262l-.225.114a18.67 18.67 0 0 1-.754.342c-.291.125-.617.285-.725.356-.222.144-.514.404-.514.457 0 .019.319.067.709.107.76.077 1.256.188 2.064.463.724.246 1.302.505 2.794 1.252.722.361 1.577.769 1.901.905.747.315 1.438.772 2.402 1.587 1.259 1.065 2.174 2.556 2.595 4.23.197.783.245 1.154.267 2.062a11.81 11.81 0 0 1-.184 2.571l-.189 1.119c-.181 1.09-.479 2.014-.97 3.009-.393.797-.664 1.213-1.567 2.413-1.265 1.681-2.488 3.093-2.936 3.39-.462.306-1.317.936-2.208 1.625-2.105 1.63-3.589 2.535-5.197 3.171-1.642.65-3.077.881-5.208.84-1.588-.03-1.778-.063-5.301-.919-.489-.119-1.213-.281-1.609-.361l-.825-.171-.106-.026.106.088a61.72 61.72 0 0 0 2.586 1.848c.978.655 1.755 1.111 2.685 1.576 1.217.609 1.128.581 1.885.581h.658l.497.252.497.252.623.034c.342.019.642.042.665.052.145.06.451-.011 1.337-.31zm13.924-12.089c0-.068.046-.138.132-.201.217-.158.968-1.084 1.142-1.406a11.72 11.72 0 0 0 1.031-2.706c.174-.774.236-1.299.264-2.208s-.007-1.556-.178-3.408l-.104-1.122-.253-.604c-.139-.332-.341-.846-.448-1.143-.597-1.65-1.006-2.409-2.132-3.961-.629-.866-.75-.941-2.509-1.534-1.271-.429-1.95-.731-2.264-1.008-.252-.222-.394-.522-.394-.836-.001-.291.072-.396.419-.607.243-.148.256-.15.703-.15.42 0 .484.011.841.15.212.083.777.344 1.254.582.785.39.895.458 1.148.712.281.281.63.87.63 1.064 0 .05.163.255.393.495 1.816 1.892 3.097 4.949 3.53 8.428.062.494.076.927.077 2.222 0 1.599 0 1.612-.118 2.159-.383 1.79-1.328 3.671-2.44 4.858-.303.323-.311.328-.515.328-.192 0-.207-.008-.207-.105zm-15.191 8.297c1.362-.13 2.653-.412 3.524-.767.879-.359 1.439-.721 2.413-1.56.88-.758 1.775-1.494 3.179-2.615 1.526-1.218 2.135-1.849 3.057-3.166.99-1.413 1.884-3.222 2.439-4.932 1.062-3.276.923-5.921-.418-7.939a5.7 5.7 0 0 0-1.395-1.362c-.233-.155-.795-.46-1.249-.679a29.21 29.21 0 0 1-2.392-1.302c-1.03-.632-2.104-1.114-2.89-1.299-.284-.067-.519-.076-1.767-.074a21.54 21.54 0 0 0-2.625.118l-1.224.127c-.021.006.241.149.582.318.359.177.648.347.685.403.057.087.055.131-.022.432-.109.429-.338.907-.721 1.502-.37.575-.677 1.178-.823 1.617-.196.59-.224.958-.208 2.754.019 2.101.042 2.259.612 4.115.224.729.263.906.282 1.276.021.417.019.431-.079.495-.349.227-2.305.19-4.45-.084l-.2-.026.068.2c.07.206.063.47-.024.932-.022.116-.041.511-.043.876-.004.969-.089 1.281-.432 1.575-.127.109-.204.146-.266.128-.136-.04-.614-.364-.959-.652-.562-.468-1.902-1.784-1.987-1.951-.077-.152-.114-.394-.191-1.276-.03-.341-.139-.527-.376-.644-.164-.08-.169-.08-.55.01a15.64 15.64 0 0 0-.739.198c-.195.059-.485.119-.644.134-.259.024-.313.015-.522-.087-.287-.14-.603-.479-1.002-1.074-.47-.702-.784-1.435-.999-2.337-.131-.548-.185-1.842-.101-2.416a5.45 5.45 0 0 1 .709-1.981c.254-.428.552-1.025.67-1.339.052-.14.164-.569.248-.954a25.69 25.69 0 0 1 .329-1.312c.173-.603.176-.624.185-1.353.008-.612.026-.801.103-1.088.111-.409.283-.701.484-.82.18-.106.289-.329.311-.632l.016-.233-.288.317c-.159.175-.574.613-.924.974-2.303 2.38-3.634 4.471-4.147 6.516-.236.941-.645 3.119-.783 4.173-.167 1.272-.277 2.907-.242 3.598.027.547.178 1.533.35 2.284.275 1.206.95 3.292 1.29 3.993.178.366.267.491.559.786s.42.387.789.573c.559.282.744.41 1.006.697.278.304.742.989 1.085 1.603.706 1.261 1.03 1.558 2.203 2.018a20.36 20.36 0 0 0 5.509 1.245 29.54 29.54 0 0 0 2.991-.033zm-4.645-6.479c-.065-.223-.064-.242.014-.392.066-.127.106-.157.205-.157h.123l.012.303c.012.293.008.306-.112.392-.069.049-.136.089-.149.089s-.055-.105-.092-.234zm-5.073-2.79c-.148-.275.024-.489.392-.489.175 0 .428.115.429.194 0 .025-.048.091-.108.147-.077.073-.101.129-.084.198.027.108-.05.131-.144.043-.045-.042-.06-.042-.075 0-.011.029-.089.053-.176.053-.135 0-.167-.02-.235-.146zm13.407-2.49a.64.64 0 0 1-.121-.732c.058-.14.071-.147.273-.147.209 0 .213.002.257.159.11.39.105.458-.043.642-.158.196-.242.214-.366.078zM2.806 18.113c-.124-.047-.225-.164-.323-.373-.115-.244-.127-.412-.037-.487.035-.029.063-.078.063-.11s-.026-.047-.063-.033c-.091.035-.082-.126.026-.454.16-.487.211-.547.467-.547h.126l-.029.307c-.02.208-.054.335-.107.393a.92.92 0 0 0-.187.602c.024.131.105.196.107.085.002-.145.069-.164.227-.066.149.093.155.106.134.282-.043.353-.178.487-.404.4zM18.51 16.77c-.102-.031-.145-.067-.136-.114.007-.037-.035-.159-.094-.271-.11-.207-.151-.571-.063-.571s.29.127.355.221c.054.077.066.081.066.021 0-.105.114-.09.235.031.15.15.135.316-.049.538l-.159.187c-.003.002-.073-.017-.155-.042zm-6.729 6.134c.086-.177.086-.189.017-.324-.04-.077-.108-.188-.151-.247-.058-.079-.124-.4-.251-1.227l-.172-1.12.141-.293c.202-.419.32-.534.549-.533a2.57 2.57 0 0 1 .499.085 2.67 2.67 0 0 0 .557.084c.232 0 .252.009.469.211.565.527 1.515 1.155 1.893 1.252.225.058.317.033.598-.156l.191-.129-.027-.377c-.023-.322-.043-.397-.139-.515-.515-.634-.718-1.081-1.015-2.233l-.298-1.118c-.047-.153-.052-.23-.019-.292.115-.215.118-.322.012-.449-.174-.207-.107-.585.154-.859.211-.222.389-.22.876.008.199.093.368.169.377.169s.015-.071.015-.159c-.001-.234-.094-.543-.268-.888-.154-.305-.154-.307-.154-.857v-.551h.169c.165 0 .169-.004.169-.147a1.26 1.26 0 0 0-.317-.742l-.148-.144v-.579c0-.574.001-.582.152-.912a11.09 11.09 0 0 0 .335-.888c.229-.691.365-1.018.577-1.382.155-.266.178-.287.345-.313.14-.022.219-.071.369-.232.2-.214.425-.334.623-.333.065 0 .274.065.465.144l.347.143.062-.176c.034-.097.073-.225.085-.285.046-.218 1.709-1.552 2.252-1.806l.25-.117 1.058.004a20.89 20.89 0 0 1 1.341.037c.381.044.671-.05 1.089-.352.678-.49.858-.609 1.136-.75.214-.109.335-.207.477-.389.168-.214.249-.272.677-.484l.529-.258c.092-.037-.104-.181-.508-.375-.444-.212-2.414-.984-2.681-1.05a6.76 6.76 0 0 1-.456-.144c-.228-.08-.403-.108-.727-.117l-.426-.011-.416.272c-.828.542-1.07.841-1.199 1.484-.049.242-.107.499-.13.57-.065.204-.259.363-.47.386-.155.017-.21 0-.361-.109-.346-.252-.532-.22-.972.172-.386.343-.633.457-.993.458-.217 0-.324-.023-.478-.105-.109-.058-.233-.106-.275-.106-.11 0-.349.184-1.131.871-.654.575-.794.67-.828.567-.008-.024-.111-.055-.23-.069-.165-.02-.242-.008-.328.048-.158.103-.398.056-.453-.089a.36.36 0 0 1 .08-.432c.119-.134.123-.135.53-.135.375 0 .431-.011.652-.128a5.76 5.76 0 0 0 .517-.322c.224-.158.296-.239.385-.433.204-.445.498-.68.851-.682.133-.001.174.023.273.158.209.286.324.39.456.414.119.021.168-.013.575-.405.48-.463.706-.597 1.011-.604.16-.003.236.024.422.153.125.086.241.157.259.157s.045-.077.06-.171a6.4 6.4 0 0 1 .436-1.284c.08-.16.231-.382.335-.493l.189-.202-.88-.036C19.522.58 19.074.595 18.088.719c-2.653.336-4.68.932-6.854 2.016-.891.444-2.516 1.402-2.75 1.621-.197.184-.3.426-.301.705-.002.404-.117 1.022-.277 1.482-.085.244-.391.936-.68 1.536S6.611 9.43 6.5 9.751c-.198.575-.2.588-.235 1.321-.046.98-.046 1.011-.011 1.82.023.535.015.794-.033 1.107-.077.493-.153.673-.475 1.115-.291.4-.465.732-.522.995-.023.105-.055.495-.071.868-.028.657-.026.687.081 1.005.061.18.223.564.36.853.213.448.289.564.519.786.266.257.522.425.649.425.057 0 .065-.145.065-1.168v-1.168l.13-.325c.149-.373.331-.703.466-.848.081-.086.123-.097.304-.08.204.02.226.036.688.502.472.476.745.672.935.672.147 0 .377.257.461.516a3.17 3.17 0 0 0 .18.426c.107.2.107.203.07.847a22.93 22.93 0 0 0-.035 1.196c.003.51.013.577.136.905.289.771.871 1.479 1.289 1.57.19.041.226.02.328-.19z" fill="#221e1f"/></svg>